<svg width="289" height="243" viewBox="0 0 289 243" fill="none" xmlns="http://www.w3.org/2000/svg">
<mask id="mask0" mask-type="alpha" maskUnits="userSpaceOnUse" x="0" y="0" width="289" height="243">
<rect width="289" height="243" fill="#C4C4C4"/>
</mask>
<g mask="url(#mask0)">
<path d="M167.926 84.9916C168.12 84.7378 169.096 83.6944 169.351 83.4807C170.574 82.455 175.153 75.8586 177.262 73.4562C179.149 71.3054 180.928 68.8724 182.574 66.7018C184.499 64.1638 188.11 58.9895 191.901 61.268C197.033 64.3525 184.442 80.9509 180.263 89.1139C176.084 97.277 148.987 144.335 144.158 182.444C139.329 220.552 140.003 257.424 140.003 257.424C98.3067 278.948 75.0168 240.746 75.0168 240.746C74.3231 240.136 95.3534 174.45 82.5884 142.523C77.4357 129.635 76.7924 114.702 76.2424 101.003C75.9407 93.4862 75.9826 85.9789 76.0024 78.4587C76.0206 71.665 73.2667 66.8568 78.0785 60.8488C80.3004 58.0747 83.176 55.911 86.0192 53.7788C90.0085 50.7867 93.9974 47.795 97.9868 44.8029C99.4114 43.7345 100.879 42.6444 102.594 42.1661C104.309 41.6882 106.353 41.9541 107.537 43.2838C108.51 44.3764 108.726 45.9448 108.714 47.4082C108.67 52.9033 105.885 58.3091 101.436 61.5343C98.5614 63.6181 94.6942 65.338 94.1533 68.8469C93.9547 70.1364 94.278 71.4427 94.5992 72.7072C96.1926 78.9858 97.3992 85.2714 99.0746 91.5794C99.1446 91.8431 107.336 84.8889 107.887 84.4265C110.358 82.3557 112.31 80.5684 114.251 77.7511C119.687 69.8601 123.683 60.1857 126.842 51.1666C127.611 48.9701 128.205 46.2228 126.57 44.5663C125.196 43.1754 122.971 43.3131 121.017 43.2583C117.852 43.1702 112.548 41.7594 111.172 38.4923C108.815 32.8953 118.323 32.8599 121.152 32.0229C122.732 31.5549 124.289 30.96 125.924 30.7545C132.297 29.9546 145.533 33.8334 147.209 40.9444C147.976 44.1955 146.328 49.0284 145.606 52.2558C143.878 59.9845 140.373 67.1153 138.757 74.9119C141.838 70.954 142.862 65.6782 144.445 60.9438C146.029 56.2097 147.45 51.1502 148.337 46.4075C148.648 44.7429 148.961 43.0502 148.786 41.3661C148.581 39.3928 146.667 36.1413 144.594 35.6219C144.512 34.7559 145.621 34.3445 146.483 34.2241C148.541 33.9366 150.628 33.6482 152.69 33.9098C168.152 35.8728 159.2 59.3201 157.308 67.9744C156.877 69.9486 156.259 71.8735 155.591 73.7786C155.039 75.35 154.866 76.9408 153.979 78.365C158.061 75.1998 160.931 69.7539 162.893 65.0889C164.5 61.2697 166.167 58.136 166.671 53.9411C167.231 49.2844 166.485 45.0438 165.485 40.5537C164.868 37.7826 164.637 34.5695 165.986 31.9663C167.389 29.2569 171.215 27.7149 174.218 28.0439C176.296 28.2718 176.089 30.1216 176.266 31.6395C176.56 34.1503 177.307 36.7254 177.759 39.2249C178.192 41.6208 178.945 44.1308 179.053 46.5617C179.267 51.3885 180.09 56.6203 179.19 61.3983C178.438 65.3903 176.785 69.1534 174.828 72.6903C174.033 74.1279 173.321 75.6108 172.515 77.0432C172.166 77.6622 168.647 84.2124 167.926 84.9916Z" fill="#3575F7"/>
<path d="M120.629 45.8938C118.497 46.8988 116.445 47.8909 114.597 49.3418C114.427 49.4752 114.257 49.609 114.103 49.761C112.285 51.5573 114.138 55.2367 115.732 56.6393C117.751 58.4175 121.217 58.7853 123.463 57.2393C124.77 56.3393 125.164 53.3838 125.668 51.91C126.18 50.4133 127.146 48.045 126.576 46.4507C126.29 45.6503 124.65 43.6559 123.393 44.4519C122.642 44.9285 121.68 45.3991 120.629 45.8938Z" fill="#3575F7"/>
</g>
</svg>
