<svg width="289" height="264" viewBox="0 0 289 264" fill="none" xmlns="http://www.w3.org/2000/svg">
<path d="M111.215 142L111.215 22.9032" stroke="#0650F5" stroke-width="6.727" stroke-miterlimit="10"/>
<path d="M123.215 22.9032H99V33.157H123.215V22.9032Z" fill="#0650F5"/>
<path d="M123.215 0H99V33.157H123.215V0Z" fill="#0650F5"/>
<path d="M119.791 32.3013H102.424V42.555H119.791V32.3013Z" fill="#0650F5"/>
<mask id="mask0" mask-type="alpha" maskUnits="userSpaceOnUse" x="0" y="21" width="289" height="243">
<rect y="21" width="289" height="243" fill="#C4C4C4"/>
</mask>
<g mask="url(#mask0)">
<path d="M167.926 105.992C168.12 105.738 169.096 104.694 169.351 104.481C170.574 103.455 175.153 96.8586 177.262 94.4562C179.149 92.3054 180.928 89.8724 182.574 87.7018C184.499 85.1638 188.11 79.9895 191.901 82.268C197.033 85.3525 184.442 101.951 180.263 110.114C176.084 118.277 148.987 165.335 144.158 203.444C139.329 241.552 140.003 278.424 140.003 278.424C98.3067 299.948 75.0168 261.746 75.0168 261.746C74.3231 261.136 95.3534 195.45 82.5884 163.523C77.4357 150.635 76.7924 135.702 76.2424 122.003C75.9407 114.486 75.9826 106.979 76.0024 99.4587C76.0206 92.665 73.2667 87.8568 78.0785 81.8488C80.3004 79.0747 83.176 76.911 86.0192 74.7788C90.0085 71.7867 93.9974 68.795 97.9868 65.8029C99.4114 64.7345 100.879 63.6444 102.594 63.1661C104.309 62.6882 106.353 62.9541 107.537 64.2838C108.51 65.3764 108.726 66.9448 108.714 68.4082C108.67 73.9033 105.885 79.3091 101.436 82.5343C98.5614 84.6181 94.6942 86.338 94.1533 89.8469C93.9547 91.1364 94.278 92.4427 94.5992 93.7072C96.1926 99.9858 97.3992 106.271 99.0746 112.579C99.1446 112.843 107.336 105.889 107.887 105.427C110.358 103.356 112.31 101.568 114.251 98.7511C119.687 90.8601 123.683 81.1857 126.842 72.1666C127.611 69.9701 128.205 67.2228 126.57 65.5663C125.196 64.1754 122.971 64.3131 121.017 64.2583C117.852 64.1702 112.548 62.7594 111.172 59.4923C108.815 53.8953 118.323 53.8599 121.152 53.0229C122.732 52.5549 124.289 51.96 125.924 51.7545C132.297 50.9546 145.533 54.8334 147.209 61.9444C147.976 65.1955 146.328 70.0284 145.606 73.2558C143.878 80.9845 140.373 88.1153 138.757 95.9119C141.838 91.954 142.862 86.6782 144.445 81.9438C146.029 77.2097 147.45 72.1502 148.337 67.4075C148.648 65.7429 148.961 64.0502 148.786 62.3661C148.581 60.3928 146.667 57.1413 144.594 56.6219C144.512 55.7559 145.621 55.3445 146.483 55.2241C148.541 54.9366 150.628 54.6482 152.69 54.9098C168.152 56.8728 159.2 80.3201 157.308 88.9744C156.877 90.9486 156.259 92.8735 155.591 94.7786C155.039 96.35 154.866 97.9408 153.979 99.365C158.061 96.1998 160.931 90.7539 162.893 86.0889C164.5 82.2697 166.167 79.136 166.671 74.9411C167.231 70.2844 166.485 66.0438 165.485 61.5537C164.868 58.7826 164.637 55.5695 165.986 52.9663C167.389 50.2569 171.215 48.7149 174.218 49.0439C176.296 49.2718 176.089 51.1216 176.266 52.6395C176.56 55.1503 177.307 57.7254 177.759 60.2249C178.192 62.6208 178.945 65.1308 179.053 67.5617C179.267 72.3885 180.09 77.6203 179.19 82.3983C178.438 86.3903 176.785 90.1534 174.828 93.6903C174.033 95.1279 173.321 96.6108 172.515 98.0432C172.166 98.6622 168.647 105.212 167.926 105.992Z" fill="#3575F7"/>
<path d="M120.629 66.8938C118.497 67.8988 116.445 68.8909 114.597 70.3418C114.427 70.4752 114.257 70.609 114.103 70.761C112.285 72.5573 114.138 76.2367 115.732 77.6393C117.751 79.4175 121.217 79.7853 123.463 78.2393C124.77 77.3393 125.164 74.3838 125.668 72.91C126.18 71.4133 127.146 69.045 126.576 67.4507C126.29 66.6503 124.65 64.6559 123.393 65.4519C122.642 65.9285 121.68 66.3991 120.629 66.8938Z" fill="#3575F7"/>
</g>
</svg>
