<svg width="89" height="69" viewBox="0 0 89 69" fill="none" xmlns="http://www.w3.org/2000/svg">
<path d="M36.448 18.944V50.336C36.448 55.968 34.688 60.416 31.168 63.68C27.648 66.944 23.36 68.576 18.304 68.576C13.312 68.576 9.056 66.944 5.536 63.68C2.016 60.416 0.256 55.968 0.256 50.336V18.944C0.256 13.312 2.016 8.864 5.536 5.6C9.056 2.336 13.312 0.703997 18.304 0.703997C23.296 0.703997 27.552 2.336 31.072 5.6C34.656 8.864 36.448 13.312 36.448 18.944ZM6.016 19.232V46.112C6.016 47.264 6.08 48.864 6.208 50.912L29.152 12.416C26.912 8.32 23.296 6.272 18.304 6.272C14.656 6.272 11.68 7.456 9.376 9.824C7.136 12.192 6.016 15.328 6.016 19.232ZM30.688 50.048V23.648C30.688 21.728 30.656 20.288 30.592 19.328L7.936 57.536C10.048 61.248 13.504 63.104 18.304 63.104C21.952 63.104 24.928 61.92 27.232 59.552C29.536 57.12 30.688 53.952 30.688 50.048ZM78.1893 32.672V33.056C80.8133 33.824 82.9573 35.232 84.6213 37.28C86.3493 39.328 87.4693 41.312 87.9813 43.232C88.4933 45.088 88.7493 46.912 88.7493 48.704C88.7493 54.464 86.8933 59.232 83.1813 63.008C79.5333 66.72 74.7333 68.576 68.7812 68.576C64.5573 68.576 60.7813 67.552 57.4532 65.504C54.1892 63.392 52.0773 60.064 51.1172 55.52L57.1653 54.656C57.8693 57.28 59.2773 59.36 61.3893 60.896C63.5013 62.368 66.0293 63.104 68.9733 63.104C73.0693 63.104 76.3653 61.792 78.8613 59.168C81.3573 56.48 82.6053 53.056 82.6053 48.896C82.6053 44.864 81.3893 41.664 78.9573 39.296C76.5893 36.928 73.5813 35.744 69.9333 35.744H65.4213V30.368H69.0693C72.6533 30.368 75.6293 29.28 77.9973 27.104C80.3653 24.928 81.5493 22.08 81.5493 18.56C81.5493 14.976 80.3973 12.032 78.0933 9.72799C75.7893 7.35999 72.8133 6.17599 69.1653 6.17599C66.5413 6.17599 64.1093 6.976 61.8693 8.576C59.6293 10.112 58.0933 12.352 57.2613 15.296L51.6933 14.24C52.6533 10.208 54.7653 6.944 58.0293 4.44799C61.2933 1.888 65.0373 0.607998 69.2613 0.607998C75.2773 0.607998 79.8213 2.304 82.8933 5.696C86.0293 9.088 87.5973 13.312 87.5973 18.368C87.5973 21.248 86.8293 24.064 85.2933 26.816C83.8213 29.568 81.4533 31.52 78.1893 32.672Z" fill="#3575F7"/>
</svg>
