<svg width="92" height="69" viewBox="0 0 92 69" fill="none" xmlns="http://www.w3.org/2000/svg">
<path d="M36.448 18.944V50.336C36.448 55.968 34.688 60.416 31.168 63.68C27.648 66.944 23.36 68.576 18.304 68.576C13.312 68.576 9.056 66.944 5.536 63.68C2.016 60.416 0.256 55.968 0.256 50.336V18.944C0.256 13.312 2.016 8.864 5.536 5.6C9.056 2.336 13.312 0.703997 18.304 0.703997C23.296 0.703997 27.552 2.336 31.072 5.6C34.656 8.864 36.448 13.312 36.448 18.944ZM6.016 19.232V46.112C6.016 47.264 6.08 48.864 6.208 50.912L29.152 12.416C26.912 8.32 23.296 6.272 18.304 6.272C14.656 6.272 11.68 7.456 9.376 9.824C7.136 12.192 6.016 15.328 6.016 19.232ZM30.688 50.048V23.648C30.688 21.728 30.656 20.288 30.592 19.328L7.936 57.536C10.048 61.248 13.504 63.104 18.304 63.104C21.952 63.104 24.928 61.92 27.232 59.552C29.536 57.12 30.688 53.952 30.688 50.048ZM85.6773 57.536V68H79.7253V57.536H50.1573V51.776L73.5813 1.184H80.3013L56.5893 51.872H79.7253V31.712H85.6773V51.872H91.3413V57.536H85.6773Z" fill="#3575F7"/>
</svg>
