<svg width="90" height="69" viewBox="0 0 90 69" fill="none" xmlns="http://www.w3.org/2000/svg">
<path d="M36.448 18.944V50.336C36.448 55.968 34.688 60.416 31.168 63.68C27.648 66.944 23.36 68.576 18.304 68.576C13.312 68.576 9.056 66.944 5.536 63.68C2.016 60.416 0.256 55.968 0.256 50.336V18.944C0.256 13.312 2.016 8.864 5.536 5.6C9.056 2.336 13.312 0.703997 18.304 0.703997C23.296 0.703997 27.552 2.336 31.072 5.6C34.656 8.864 36.448 13.312 36.448 18.944ZM6.016 19.232V46.112C6.016 47.264 6.08 48.864 6.208 50.912L29.152 12.416C26.912 8.32 23.296 6.272 18.304 6.272C14.656 6.272 11.68 7.456 9.376 9.824C7.136 12.192 6.016 15.328 6.016 19.232ZM30.688 50.048V23.648C30.688 21.728 30.656 20.288 30.592 19.328L7.936 57.536C10.048 61.248 13.504 63.104 18.304 63.104C21.952 63.104 24.928 61.92 27.232 59.552C29.536 57.12 30.688 53.952 30.688 50.048ZM52.3653 55.52L58.3173 54.464C59.7253 60.288 63.7253 63.2 70.3173 63.2C74.9893 63.2 78.3173 61.696 80.3013 58.688C82.2853 55.616 83.2773 51.776 83.2773 47.168V43.712C83.2773 33.792 79.1173 28.832 70.7973 28.832C68.7493 28.832 66.7013 29.44 64.6533 30.656C62.6693 31.872 61.1013 33.408 59.9493 35.264H54.0933V1.184H87.5973V6.944H59.6613V28.256C63.1173 24.992 67.3733 23.36 72.4293 23.36C77.9333 23.36 82.0933 25.088 84.9093 28.544C87.7893 32 89.2293 36.608 89.2293 42.368V48.032C89.2293 53.92 87.6613 58.816 84.5253 62.72C81.3893 66.56 76.6213 68.48 70.2213 68.48C60.3653 68.48 54.4133 64.16 52.3653 55.52Z" fill="#3575F7"/>
</svg>
