<svg width="6022" height="229" viewBox="0 0 6022 229" fill="none" xmlns="http://www.w3.org/2000/svg">
<path d="M8 18.0005C86.3649 62.9997 168.909 107.051 267.454 143.099C365.998 179.148 482.035 207.065 607.481 215.727C790.225 228.345 975.416 199.333 1137.49 159.241C1299.57 119.149 1480.72 41.5359 1648 18.7116C1726.5 8.00053 1833.5 1.78944 1929 28.0005C2194.71 100.927 2238.99 206.385 2585.5 215.727C3152 231 3359.5 65.5 3768.5 65.5C4153.5 65.5 4416 231.273 4944.5 220C5678 231.273 5976 30.9996 6014 8" stroke="url(#paint0_linear)" stroke-width="15" stroke-miterlimit="10" stroke-linecap="round" stroke-linejoin="round"/>
<defs>
<linearGradient id="paint0_linear" x1="312.876" y1="186.712" x2="2621" y2="186.712" gradientUnits="userSpaceOnUse">
<stop offset="0.1929" stop-color="#CBDDFD"/>
<stop offset="0.331" stop-color="#C9D9FC"/>
<stop offset="0.4809" stop-color="#C3CCF9"/>
<stop offset="0.6365" stop-color="#B9B6F5"/>
<stop offset="0.7957" stop-color="#AC97EE"/>
<stop offset="0.9565" stop-color="#9A71E6"/>
<stop offset="1" stop-color="#9565E3"/>
</linearGradient>
</defs>
</svg>
