<svg width="452" height="134" viewBox="0 0 452 134" fill="none" xmlns="http://www.w3.org/2000/svg">
<path d="M0.996094 57.751L8.05078 40.5342C11.2142 42.7458 14.0277 44.3695 16.4912 45.4053C18.9827 46.4131 21.3063 46.917 23.4619 46.917C24.9736 46.917 26.1634 46.637 27.0312 46.0771C27.8991 45.4893 28.333 44.7054 28.333 43.7256C28.333 42.0179 26.1634 40.7161 21.8242 39.8203C20.4245 39.5124 19.3327 39.2744 18.5488 39.1064C13.9577 37.9867 10.4443 35.999 8.00879 33.1436C5.57324 30.2881 4.35547 26.7327 4.35547 22.4775C4.35547 15.8708 6.72103 10.4958 11.4521 6.35254C16.1833 2.20931 22.3841 0.137695 30.0547 0.137695C33.582 0.137695 37.0534 0.599609 40.4687 1.52344C43.8841 2.44727 47.3275 3.84701 50.7988 5.72266L44.0801 21.8057C41.9525 20.238 39.8109 19.0482 37.6553 18.2363C35.5277 17.3965 33.4561 16.9766 31.4404 16.9766C29.9007 16.9766 28.7109 17.2425 27.8711 17.7744C27.0312 18.2783 26.6113 18.9922 26.6113 19.916C26.6113 21.6517 29.6768 23.1774 35.8076 24.4932C36.7874 24.7171 37.5433 24.8851 38.0752 24.9971C42.3024 25.9489 45.6338 27.8945 48.0693 30.834C50.5049 33.7734 51.7227 37.3288 51.7227 41.5C51.7227 48.3027 49.2591 53.8597 44.332 58.1709C39.4329 62.4821 33.0501 64.6377 25.1836 64.6377C21.1523 64.6377 17.1211 64.0638 13.0898 62.916C9.05859 61.7682 5.02734 60.0465 0.996094 57.751ZM67.0918 63L67.0918 21.6377L54.7881 21.6377L54.7881 1.52344L101.483 1.52344L101.483 21.6377L89.1797 21.6377L89.1797 63L67.0918 63ZM126.259 40.6602L135.455 40.6602L133.565 33.6895C132.642 30.1621 132.012 27.4466 131.676 25.543C131.34 23.6393 131.13 21.8477 131.046 20.168H130.668C130.584 21.8477 130.374 23.6393 130.038 25.543C129.702 27.4466 129.072 30.1621 128.148 33.6895L126.259 40.6602ZM96.9482 63L118.868 1.52344L143.476 1.52344L164.976 63L141.208 63L139.234 55.2734L122.563 55.2734L120.674 63L96.9482 63ZM190.087 17.3545V29.3643L193.53 29.3643C195.63 29.3643 197.24 28.8604 198.359 27.8525C199.507 26.8167 200.081 25.347 200.081 23.4434C200.081 21.4837 199.507 19.986 198.359 18.9502C197.24 17.8864 195.63 17.3545 193.53 17.3545L190.087 17.3545ZM168.419 63L168.419 1.52344L196.218 1.52344C204.28 1.52344 210.439 3.30111 214.694 6.85645C218.95 10.4118 221.077 15.5348 221.077 22.2256C221.077 26.5928 219.999 30.1901 217.844 33.0176C215.716 35.8451 212.833 37.4967 209.193 37.9727L225.612 63L200.837 63L190.087 42.7178L190.087 63L168.419 63ZM237.916 63L237.916 21.6377L225.612 21.6377L225.612 1.52344L272.308 1.52344L272.308 21.6377L260.004 21.6377L260.004 63L237.916 63ZM279.866 63L279.866 1.52344L302.332 1.52344L302.332 63L279.866 63ZM314.3 63L314.3 1.52344L335.968 1.52344L355.074 33.6895C354.822 32.2617 354.64 30.68 354.528 28.9443C354.444 27.2087 354.402 24.9411 354.402 22.1416L354.402 1.52344L375.692 1.52344L375.692 63L353.856 63L334.96 31.0859C335.184 32.4577 335.352 33.9414 335.464 35.5371C335.576 37.1048 335.632 38.8685 335.632 40.8281L335.632 63L314.3 63ZM426.167 40.9961L416.551 40.9961V26.5508L450.522 26.5508C450.578 27.8105 450.62 28.7484 450.648 29.3643C450.676 29.9801 450.69 30.526 450.69 31.002C450.69 34.5293 450.354 37.7487 449.683 40.6602C449.011 43.5716 448.031 46.1471 446.743 48.3867C443.608 53.6497 439.562 57.681 434.607 60.4805C429.652 63.252 424.025 64.6377 417.727 64.6377C413.079 64.6377 408.754 63.8678 404.751 62.3281C400.776 60.7604 397.248 58.4648 394.169 55.4414C391.118 52.418 388.808 48.9606 387.24 45.0693C385.673 41.1781 384.889 36.9508 384.889 32.3877C384.889 27.7965 385.673 23.5553 387.24 19.6641C388.836 15.7448 391.146 12.3014 394.169 9.33398C397.22 6.33854 400.748 4.05697 404.751 2.48926C408.754 0.921549 413.079 0.137695 417.727 0.137695C424.025 0.137695 429.624 1.52344 434.523 4.29492C439.423 7.03841 443.426 11.0697 446.533 16.3887L426.839 23.6953C425.803 21.9876 424.557 20.7139 423.102 19.874C421.646 19.0342 419.98 18.6143 418.104 18.6143C414.829 18.6143 412.212 19.86 410.252 22.3516C408.32 24.8431 407.354 28.1885 407.354 32.3877C407.354 36.7269 408.334 40.1003 410.294 42.5078C412.254 44.8874 415.025 46.0771 418.608 46.0771C420.736 46.0771 422.458 45.6292 423.773 44.7334C425.117 43.8376 425.915 42.5918 426.167 40.9961ZM167.915 132L167.915 70.5234L194.328 70.5234C203.622 70.5234 210.411 72.3151 214.694 75.8984C219.006 79.4818 221.161 85.1647 221.161 92.9473C221.161 100.198 219.229 105.503 215.366 108.862C211.503 112.194 205.372 113.859 196.974 113.859L190.045 113.859V132L167.915 132ZM190.129 87.6143V97.8604H193.572C195.672 97.8604 197.282 97.4264 198.401 96.5586C199.521 95.6628 200.081 94.403 200.081 92.7793C200.081 91.1556 199.507 89.8958 198.359 89C197.212 88.0762 195.616 87.6143 193.572 87.6143H190.129ZM259.5 112.978C262.607 112.978 265.099 111.928 266.975 109.828C268.878 107.701 269.83 104.887 269.83 101.388C269.83 97.8604 268.878 95.0329 266.975 92.9053C265.099 90.7497 262.607 89.6719 259.5 89.6719C256.393 89.6719 253.887 90.7497 251.983 92.9053C250.08 95.0609 249.128 97.8883 249.128 101.388C249.128 104.887 250.08 107.701 251.983 109.828C253.887 111.928 256.393 112.978 259.5 112.978ZM292.38 101.388C292.38 105.895 291.582 110.094 289.986 113.985C288.391 117.849 286.053 121.306 282.974 124.357C279.894 127.353 276.339 129.648 272.308 131.244C268.304 132.84 264.035 133.638 259.5 133.638C254.909 133.638 250.612 132.84 246.608 131.244C242.605 129.648 239.05 127.325 235.942 124.273C232.891 121.306 230.581 117.891 229.014 114.027C227.446 110.164 226.662 105.951 226.662 101.388C226.662 96.8245 227.446 92.5973 229.014 88.7061C230.581 84.8148 232.891 81.3854 235.942 78.418C239.022 75.3945 242.563 73.099 246.566 71.5313C250.57 69.9355 254.881 69.1377 259.5 69.1377C264.119 69.1377 268.43 69.9355 272.434 71.5313C276.437 73.099 279.992 75.3945 283.1 78.418C286.123 81.4134 288.419 84.8568 289.986 88.748C291.582 92.6393 292.38 96.8525 292.38 101.388ZM302.122 132L302.122 70.5234L324.588 70.5234L324.588 132L302.122 132ZM336.556 132L336.556 70.5234L358.224 70.5234L377.33 102.689C377.078 101.262 376.896 99.68 376.784 97.9443C376.7 96.2087 376.658 93.9411 376.658 91.1416L376.658 70.5234L397.948 70.5234L397.948 132L376.112 132L357.216 100.086C357.44 101.458 357.608 102.941 357.72 104.537C357.832 106.105 357.888 107.868 357.888 109.828L357.888 132L336.556 132ZM417.223 132L417.223 90.6377L404.919 90.6377L404.919 70.5234L451.614 70.5234V90.6377L439.311 90.6377L439.311 132L417.223 132Z" fill="#3575F7"/>
</svg>
