<svg width="536" height="319" viewBox="0 0 536 319" fill="none" xmlns="http://www.w3.org/2000/svg">
<path d="M536 9H10V319H536V9Z" fill="white"/>
<g clip-path="url(#clip0)">
<path d="M526.324 0.6875H0.675781V311.312H526.324V0.6875Z" stroke="#0650F5" stroke-width="3" stroke-miterlimit="10"/>
</g>
<path d="M70.1323 108.641V70H81.4023C84.9825 70 88.0377 70.1978 90.5688 70.5941C93.0995 70.99 95.1586 71.6013 96.7459 72.4285C100.097 74.1883 102.667 76.5198 104.457 79.4229C106.247 82.3264 107.143 85.6344 107.143 89.347C107.143 93.0419 106.252 96.3327 104.471 99.2181C102.689 102.104 100.114 104.435 96.7459 106.212C95.1058 107.057 93.0247 107.673 90.5026 108.06C87.9806 108.447 84.6034 108.641 80.3707 108.641H70.1323ZM83.9417 96.8426C87.0809 96.8253 89.3736 96.2135 90.8202 95.0081C92.2661 93.8031 92.9896 91.9159 92.9896 89.3466C92.9896 86.8304 92.2972 84.9562 90.9128 83.7248C89.5281 82.4934 87.4076 81.8774 84.5506 81.8774H83.9421V96.8426H83.9417Z" fill="#0650F5"/>
<path d="M105.821 108.641L119.631 70H135.133L148.678 108.641H133.705L132.462 103.784H121.959L120.768 108.641H105.821ZM124.287 94.5992H130.08L128.89 90.2179C128.308 88.0008 127.911 86.2941 127.699 85.0973C127.488 83.901 127.355 82.7746 127.302 81.7189H127.064C127.012 82.7746 126.879 83.901 126.668 85.0973C126.456 86.2941 126.059 88.0008 125.477 90.2179L124.287 94.5992Z" fill="#0650F5"/>
<path d="M152.541 108.641V82.6428H144.79V70H174.208V82.6428H166.456V108.641H152.541Z" fill="#0650F5"/>
<path d="M170.294 108.641L184.104 70H199.606L213.151 108.641H198.178L196.935 103.784H186.432L185.242 108.641H170.294ZM188.76 94.5992H194.553L193.363 90.2179C192.781 88.0008 192.384 86.2941 192.172 85.0973C191.961 83.901 191.828 82.7746 191.776 81.7189H191.537C191.485 82.7746 191.352 83.901 191.141 85.0973C190.929 86.2941 190.532 88.0008 189.95 90.2179L188.76 94.5992Z" fill="#0650F5"/>
<path d="M70.1323 152.751V114.11H81.4023C84.9825 114.11 88.0377 114.308 90.5688 114.704C93.0995 115.1 95.1586 115.711 96.7459 116.538C100.097 118.298 102.667 120.63 104.457 123.533C106.247 126.436 107.143 129.744 107.143 133.457C107.143 137.152 106.252 140.442 104.471 143.328C102.689 146.214 100.114 148.545 96.7459 150.322C95.1058 151.167 93.0247 151.783 90.5026 152.17C87.9806 152.557 84.6034 152.751 80.3707 152.751H70.1323ZM83.9417 140.952C87.0809 140.935 89.3736 140.323 90.8202 139.118C92.2661 137.913 92.9896 136.026 92.9896 133.456C92.9896 130.94 92.2972 129.066 90.9128 127.835C89.5281 126.603 87.4076 125.987 84.5506 125.987H83.9421V140.952H83.9417Z" fill="#0650F5"/>
<path d="M111.906 152.751V114.11H129.419C134.498 114.11 138.378 115.227 141.059 117.462C143.74 119.697 145.08 122.917 145.08 127.122C145.08 129.867 144.406 132.128 143.057 133.905C141.707 135.682 139.886 136.72 137.594 137.019L147.938 152.75H132.329L125.557 140.002V152.75H111.906V152.751ZM125.556 124.06V131.609H127.726C129.049 131.609 130.067 131.288 130.781 130.646C131.495 130.004 131.853 129.084 131.853 127.888C131.853 126.656 131.495 125.71 130.781 125.05C130.067 124.39 129.049 124.06 127.726 124.06H125.556Z" fill="#0650F5"/>
<path d="M149.87 152.751V114.11H164.023V152.751H149.87Z" fill="#0650F5"/>
<path d="M179.712 152.751L164.924 114.11H180.003L184.104 128.099C184.703 130.14 185.149 131.864 185.44 133.272C185.731 134.68 185.92 136 186.009 137.231H186.273C186.449 135.929 186.701 134.557 187.027 133.114C187.354 131.671 187.772 130.105 188.284 128.415L192.622 114.11H207.411L192.675 152.751H179.712Z" fill="#0650F5"/>
<path d="M208.046 152.751V114.11H233.946V124.588H221.697V128.309H232.808V138.207H221.697V142.272H234.263V152.75H208.046V152.751Z" fill="#0650F5"/>
<path d="M238.814 152.751V114.11H252.465L264.502 134.328C264.344 133.43 264.233 132.436 264.172 131.345C264.11 130.254 264.079 128.829 264.079 127.069V114.11H277.492V152.751H263.735L251.831 132.692C251.971 133.554 252.077 134.483 252.148 135.476C252.218 136.471 252.254 137.584 252.254 138.816V152.751H238.814V152.751Z" fill="#0650F5"/>
<path d="M105.529 196.861L103.836 181.552C103.73 180.373 103.624 179.199 103.518 178.028C103.412 176.858 103.324 175.684 103.254 174.505C103.095 175.613 102.871 176.788 102.579 178.028C102.289 179.269 101.931 180.593 101.508 182.001L97.0635 196.861H88.7833L84.339 182.001C83.8976 180.593 83.5363 179.269 83.2545 178.028C82.972 176.788 82.7517 175.613 82.5929 174.505C82.5046 175.701 82.412 176.88 82.315 178.042C82.2177 179.203 82.1168 180.373 82.0108 181.552L80.3179 196.861H66.6665L73.2802 158.22H87.6452L90.3962 167.775C90.4845 168.074 90.6165 168.523 90.7931 169.121C91.9572 173.15 92.6712 176.468 92.936 179.072H93.1741C93.3857 177.435 93.7029 175.693 94.1265 173.845C94.5501 171.998 95.1141 169.922 95.8194 167.616L98.7029 158.22H113.042L119.179 196.861H105.529V196.861Z" fill="#9565E3"/>
<path d="M161.985 177.62C161.985 180.453 161.482 183.088 160.477 185.525C159.471 187.962 157.999 190.139 156.059 192.057C154.118 193.94 151.883 195.382 149.353 196.386C146.821 197.389 144.128 197.89 141.271 197.89C138.378 197.89 135.671 197.389 133.149 196.386C130.627 195.382 128.387 193.922 126.429 192.004C124.507 190.139 123.052 187.992 122.064 185.564C121.076 183.135 120.583 180.487 120.583 177.619C120.583 174.751 121.076 172.094 122.064 169.648C123.052 167.203 124.507 165.047 126.429 163.182C128.369 161.282 130.6 159.834 133.122 158.84C135.644 157.846 138.36 157.349 141.271 157.349C144.181 157.349 146.896 157.846 149.419 158.84C151.941 159.834 154.181 161.282 156.138 163.182C158.043 165.065 159.494 167.229 160.49 169.675C161.486 172.121 161.985 174.769 161.985 177.62ZM141.271 184.904C143.228 184.904 144.802 184.24 145.993 182.912C147.183 181.583 147.778 179.819 147.778 177.62C147.778 175.402 147.183 173.621 145.993 172.275C144.802 170.928 143.228 170.256 141.271 170.256C139.313 170.256 137.734 170.934 136.535 172.288C135.335 173.643 134.736 175.42 134.736 177.62C134.736 179.82 135.335 181.584 136.535 182.912C137.734 184.241 139.313 184.904 141.271 184.904Z" fill="#9565E3"/>
<path d="M166.748 196.861V158.22H178.018C181.598 158.22 184.653 158.418 187.185 158.814C189.715 159.21 191.774 159.821 193.362 160.648C196.712 162.408 199.283 164.739 201.073 167.643C202.863 170.546 203.758 173.854 203.758 177.567C203.758 181.262 202.868 184.553 201.087 187.438C199.305 190.324 196.73 192.655 193.362 194.432C191.721 195.276 189.64 195.893 187.118 196.28C184.596 196.667 181.219 196.861 176.986 196.861H166.748ZM180.557 185.063C183.697 185.045 185.989 184.434 187.436 183.228C188.882 182.023 189.605 180.136 189.605 177.567C189.605 175.051 188.913 173.177 187.529 171.945C186.144 170.713 184.023 170.098 181.166 170.098H180.558V185.063H180.557Z" fill="#9565E3"/>
<path d="M208.521 196.861V158.22H234.421V168.698H222.172V172.42H233.283V182.318H222.172V186.382H234.739V196.861H208.521V196.861Z" fill="#9565E3"/>
<path d="M239.29 196.861V158.22H253.232V184.324H266.777V196.861H239.29V196.861Z" fill="#9565E3"/>
<path d="M65 240.971L78.8094 202.33H94.3122L107.857 240.971H92.8836L91.6404 236.114H81.1376L79.9471 240.971H65ZM83.4658 226.929H89.2594L88.0689 222.548C87.4868 220.33 87.09 218.624 86.8784 217.427C86.6668 216.231 86.5344 215.105 86.4816 214.049H86.2436C86.1908 215.105 86.0583 216.231 85.8467 217.427C85.6351 218.624 85.2383 220.331 84.6562 222.548L83.4658 226.929Z" fill="#9565E3"/>
<path d="M111.721 240.971V214.973H103.97V202.33H133.387V214.973H125.636V240.971H111.721V240.971Z" fill="#9565E3"/>
<path d="M141.801 240.971V214.973H134.05V202.33H163.468V214.973H155.716V240.971H141.801V240.971Z" fill="#9565E3"/>
<path d="M166.881 240.971V202.33H184.395C189.474 202.33 193.354 203.448 196.035 205.682C198.716 207.917 200.056 211.137 200.056 215.342C200.056 218.087 199.381 220.348 198.032 222.125C196.683 223.903 194.862 224.941 192.569 225.24L202.913 240.971H187.305L180.532 228.222V240.971H166.881V240.971ZM180.532 212.28V219.829H182.701C184.024 219.829 185.042 219.508 185.757 218.866C186.471 218.224 186.828 217.304 186.828 216.107C186.828 214.876 186.471 213.93 185.757 213.27C185.043 212.61 184.024 212.28 182.701 212.28H180.532V212.28Z" fill="#9565E3"/>
<path d="M204.845 240.971V202.33H218.999V240.971H204.845Z" fill="#9565E3"/>
<path d="M225.429 240.971V202.33H243.974C247.942 202.33 251.037 203.258 253.259 205.115C255.482 206.971 256.593 209.553 256.593 212.861C256.593 214.973 256.068 216.728 255.019 218.127C253.969 219.526 252.483 220.436 250.561 220.859C253.189 221.404 255.146 222.434 256.434 223.946C257.721 225.46 258.365 227.493 258.365 230.044C258.365 233.651 257.143 236.374 254.701 238.212C252.258 240.051 248.665 240.971 243.92 240.971H225.429V240.971ZM238.497 211.515V216.926H240.323C241.451 216.926 242.311 216.693 242.902 216.227C243.493 215.76 243.788 215.088 243.788 214.207C243.788 213.328 243.493 212.659 242.902 212.201C242.311 211.744 241.451 211.515 240.323 211.515H238.497V211.515ZM238.497 225.24V231.416H240.825C242.218 231.416 243.29 231.148 244.039 230.611C244.789 230.075 245.164 229.313 245.164 228.328C245.164 227.324 244.789 226.559 244.039 226.031C243.29 225.503 242.218 225.24 240.825 225.24H238.497V225.24Z" fill="#9565E3"/>
<path d="M261.858 223.287V202.33H275.773V223.392C275.773 225.838 276.064 227.523 276.647 228.446C277.229 229.37 278.225 229.832 279.636 229.832C281.029 229.832 282.025 229.357 282.625 228.407C283.225 227.456 283.525 225.785 283.525 223.392V202.329H297.44V223.286C297.44 226.031 297.259 228.292 296.898 230.07C296.536 231.847 295.959 233.334 295.165 234.53C293.613 236.941 291.497 238.789 288.816 240.073C286.135 241.358 283.076 242 279.636 242C276.18 242 273.111 241.357 270.43 240.073C267.749 238.789 265.633 236.941 264.081 234.53C263.305 233.352 262.741 231.882 262.388 230.122C262.034 228.363 261.858 226.085 261.858 223.287Z" fill="#9565E3"/>
<path d="M308.579 240.971V214.973H300.828V202.33H330.245V214.973H322.494V240.971H308.579V240.971Z" fill="#9565E3"/>
<path d="M333.923 240.971V202.33H348.077V240.971H333.923Z" fill="#9565E3"/>
<path d="M394.559 221.729C394.559 224.563 394.057 227.197 393.052 229.634C392.046 232.072 390.573 234.249 388.633 236.167C386.693 238.05 384.458 239.492 381.927 240.495C379.396 241.498 376.702 242 373.845 242C370.952 242 368.245 241.498 365.723 240.495C363.201 239.492 360.961 238.032 359.004 236.114C357.081 234.249 355.626 232.102 354.639 229.674C353.651 227.245 353.157 224.597 353.157 221.729C353.157 218.861 353.651 216.204 354.639 213.758C355.626 211.313 357.081 209.157 359.004 207.292C360.944 205.391 363.174 203.944 365.697 202.95C368.219 201.956 370.935 201.458 373.845 201.458C376.755 201.458 379.47 201.956 381.993 202.95C384.515 203.944 386.755 205.391 388.713 207.292C390.618 209.175 392.068 211.339 393.065 213.785C394.061 216.231 394.559 218.879 394.559 221.729ZM373.846 229.014C375.803 229.014 377.377 228.351 378.567 227.022C379.758 225.693 380.353 223.93 380.353 221.73C380.353 219.512 379.758 217.731 378.567 216.385C377.377 215.039 375.803 214.366 373.846 214.366C371.888 214.366 370.309 215.043 369.11 216.398C367.91 217.753 367.311 219.53 367.311 221.73C367.311 223.93 367.91 225.693 369.11 227.022C370.309 228.35 371.888 229.014 373.846 229.014Z" fill="#9565E3"/>
<path d="M399.323 240.971V202.33H412.974L425.011 222.548C424.852 221.651 424.741 220.657 424.68 219.565C424.618 218.475 424.587 217.05 424.587 215.289V202.33H438V240.971H424.244L412.339 220.911C412.48 221.773 412.586 222.702 412.657 223.696C412.727 224.69 412.763 225.803 412.763 227.034V240.97H399.323V240.971Z" fill="#9565E3"/>
<path d="M494 62.8364C496.761 62.8364 499 60.5388 499 57.7046C499 54.8704 496.761 52.5728 494 52.5728C491.239 52.5728 489 54.8704 489 57.7046C489 60.5388 491.239 62.8364 494 62.8364Z" fill="#9565E3"/>
<path d="M494 81C496.761 81 499 78.7024 499 75.8682C499 73.0339 496.761 70.7363 494 70.7363C491.239 70.7363 489 73.0339 489 75.8682C489 78.7024 491.239 81 494 81Z" fill="#FD6125"/>
<path d="M494 45.2637C496.761 45.2637 499 42.9661 499 40.1318C499 37.2976 496.761 35 494 35C491.239 35 489 37.2976 489 40.1318C489 42.9661 491.239 45.2637 494 45.2637Z" fill="#0650F5"/>
<g clip-path="url(#clip1)">
<path d="M498.618 33.4998C498.618 38.5293 494.658 42.6063 489.774 42.6063H447.226C442.341 42.6063 438.382 38.5293 438.382 33.4998C438.382 28.4704 442.341 24.3934 447.226 24.3934H489.774C494.658 24.3934 498.618 28.4709 498.618 33.4998Z" stroke="#0650F5" stroke-width="1.6288" stroke-miterlimit="10" stroke-linecap="round" stroke-linejoin="round"/>
</g>
<defs>
<clipPath id="clip0">
<rect width="527" height="312" fill="white"/>
</clipPath>
<clipPath id="clip1">
<rect width="61" height="19" fill="white" transform="translate(438 24)"/>
</clipPath>
</defs>
</svg>
