<svg width="373" height="172" viewBox="0 0 373 172" fill="none" xmlns="http://www.w3.org/2000/svg">
<path d="M5.13232 38.6405V0H16.4023C19.9825 0 23.0377 0.197759 25.5688 0.594065C28.0995 0.989977 30.1586 1.60134 31.7459 2.42855C35.0967 4.18833 37.6672 6.51977 39.4574 9.42286C41.2473 12.3264 42.1426 15.6344 42.1426 19.347C42.1426 23.0419 41.252 26.3327 39.4708 29.2181C37.6893 32.1039 35.1144 34.4353 31.7459 36.2124C30.1058 37.0569 28.0247 37.673 25.5026 38.0598C22.9806 38.4471 19.6034 38.6405 15.3707 38.6405H5.13232ZM18.9417 26.8426C22.0809 26.8253 24.3736 26.2135 25.8202 25.0081C27.2661 23.8031 27.9896 21.9159 27.9896 19.3466C27.9896 16.8304 27.2972 14.9562 25.9128 13.7248C24.5281 12.4934 22.4076 11.8774 19.5506 11.8774H18.9421V26.8426H18.9417Z" fill="#0650F5"/>
<path d="M40.8208 38.6405L54.6306 0H70.1333L83.6783 38.6405H68.7048L67.4615 33.7838H56.9588L55.7683 38.6405H40.8208ZM59.2866 24.5992H65.0802L63.8897 20.2179C63.3077 18.0008 62.9108 16.2941 62.6992 15.0973C62.4876 13.901 62.3552 12.7746 62.3024 11.7189H62.0644C62.0116 12.7746 61.8791 13.901 61.6675 15.0973C61.4559 16.2941 61.0591 18.0008 60.477 20.2179L59.2866 24.5992Z" fill="#0650F5"/>
<path d="M87.5414 38.6405V12.6428H79.79V0H109.208V12.6428H101.456V38.6405H87.5414Z" fill="#0650F5"/>
<path d="M105.294 38.6405L119.104 0H134.606L148.151 38.6405H133.178L131.935 33.7838H121.432L120.242 38.6405H105.294ZM123.76 24.5992H129.553L128.363 20.2179C127.781 18.0008 127.384 16.2941 127.172 15.0973C126.961 13.901 126.828 12.7746 126.776 11.7189H126.537C126.485 12.7746 126.352 13.901 126.141 15.0973C125.929 16.2941 125.532 18.0008 124.95 20.2179L123.76 24.5992Z" fill="#0650F5"/>
<path d="M5.13232 82.7507V44.1097H16.4023C19.9825 44.1097 23.0377 44.3075 25.5688 44.7038C28.0995 45.0997 30.1586 45.7111 31.7459 46.5383C35.0967 48.2981 37.6672 50.6295 39.4574 53.5326C41.2473 56.4361 42.1426 59.7441 42.1426 63.4567C42.1426 67.1517 41.252 70.4424 39.4708 73.3278C37.6893 76.2136 35.1144 78.545 31.7459 80.3221C30.1058 81.1666 28.0247 81.7831 25.5026 82.1696C22.9806 82.5569 19.6034 82.7507 15.3707 82.7507H5.13232ZM18.9417 70.9523C22.0809 70.935 24.3736 70.3233 25.8202 69.1179C27.2661 67.9128 27.9896 66.0257 27.9896 63.4564C27.9896 60.9401 27.2972 59.0659 25.9128 57.8346C24.5281 56.6032 22.4076 55.9871 19.5506 55.9871H18.9421V70.9523H18.9417Z" fill="#0650F5"/>
<path d="M46.9058 82.7507V44.1097H64.419C69.4982 44.1097 73.3782 45.2275 76.0591 47.4618C78.74 49.6965 80.0802 52.9169 80.0802 57.1218C80.0802 59.8668 79.4055 62.1279 78.0566 63.905C76.7073 65.6824 74.886 66.7204 72.5936 67.0192L82.9376 82.7503H67.3293L60.5568 70.0017V82.7503H46.9058V82.7507ZM60.5564 54.0602V61.6089H62.7257C64.0486 61.6089 65.0669 61.2881 65.7813 60.6457C66.4954 60.0036 66.8528 59.0844 66.8528 57.8876C66.8528 56.6563 66.4954 55.7099 65.7813 55.0502C65.0673 54.3905 64.0486 54.0602 62.7257 54.0602H60.5564Z" fill="#0650F5"/>
<path d="M84.8696 82.7507V44.1097H99.0231V82.7507H84.8696Z" fill="#0650F5"/>
<path d="M114.712 82.7507L99.9238 44.1097H115.003L119.104 58.0988C119.703 60.1401 120.149 61.8645 120.44 63.272C120.731 64.6799 120.92 65.9997 121.009 67.2311H121.273C121.449 65.9289 121.701 64.5568 122.027 63.1135C122.354 61.671 122.772 60.1047 123.284 58.4153L127.622 44.1097H142.411L127.675 82.7507H114.712Z" fill="#0650F5"/>
<path d="M143.046 82.7507V44.1097H168.946V54.5882H156.697V58.3095H167.808V68.2073H156.697V72.2718H169.263V82.7503H143.046V82.7507Z" fill="#0650F5"/>
<path d="M173.814 82.7507V44.1097H187.465L199.502 64.3276C199.344 63.43 199.233 62.4361 199.172 61.3451C199.11 60.2541 199.079 58.8289 199.079 57.0695V44.1101H212.492V82.7511H198.735L186.831 62.6917C186.971 63.5539 187.077 64.4825 187.148 65.4764C187.218 66.4707 187.254 67.5838 187.254 68.8155V82.7515H173.814V82.7507Z" fill="#0650F5"/>
<path d="M40.5289 126.861L38.836 111.552C38.73 110.373 38.6244 109.199 38.5184 108.028C38.4124 106.858 38.3241 105.684 38.254 104.505C38.0952 105.613 37.8706 106.788 37.5793 108.028C37.2885 109.269 36.9311 110.593 36.5079 112.001L32.0635 126.861H23.7833L19.339 112.001C18.8976 110.593 18.5363 109.269 18.2545 108.028C17.972 106.788 17.7517 105.613 17.5929 104.505C17.5046 105.701 17.412 106.88 17.315 108.042C17.2177 109.203 17.1168 110.373 17.0108 111.552L15.3179 126.861H1.6665L8.28019 88.22H22.6452L25.3962 97.7745C25.4845 98.0741 25.6165 98.5227 25.7931 99.1207C26.9572 103.15 27.6712 106.468 27.936 109.072H28.1741C28.3857 107.435 28.7029 105.693 29.1265 103.845C29.5501 101.998 30.1141 99.922 30.8195 97.6165L33.7029 88.2204H48.0415L54.1792 126.861H40.5289V126.861Z" fill="#9565E3"/>
<path d="M96.9848 107.62C96.9848 110.453 96.4824 113.088 95.4767 115.525C94.4715 117.962 92.9988 120.139 91.0588 122.057C89.1184 123.94 86.8828 125.382 84.3525 126.386C81.8214 127.389 79.1275 127.89 76.2705 127.89C73.3781 127.89 70.6708 127.389 68.1491 126.386C65.6267 125.382 63.3872 123.922 61.4294 122.004C59.5068 120.139 58.0519 117.992 57.0643 115.564C56.0764 113.135 55.583 110.487 55.583 107.619C55.583 104.751 56.0764 102.094 57.0643 99.6484C58.0519 97.2029 59.5068 95.0472 61.4294 93.1821C63.3691 91.2815 65.5999 89.8343 68.1223 88.8404C70.6444 87.8465 73.3603 87.3488 76.2705 87.3488C79.1807 87.3488 81.8963 87.8465 84.4187 88.8404C86.9408 89.8343 89.1807 91.2815 91.1384 93.1821C93.043 95.0649 94.4939 97.2293 95.4901 99.6751C96.4864 102.121 96.9848 104.769 96.9848 107.62ZM76.2705 114.904C78.2283 114.904 79.8022 114.24 80.9927 112.912C82.1832 111.583 82.7782 109.819 82.7782 107.62C82.7782 105.402 82.1832 103.621 80.9927 102.275C79.8022 100.928 78.2283 100.256 76.2705 100.256C74.3128 100.256 72.7341 100.934 71.535 102.288C70.3354 103.643 69.7361 105.42 69.7361 107.62C69.7361 109.82 70.3354 111.584 71.535 112.912C72.7341 114.24 74.3128 114.904 76.2705 114.904Z" fill="#9565E3"/>
<path d="M101.748 126.861V88.22H113.018C116.598 88.22 119.653 88.4181 122.185 88.814C124.715 89.2099 126.774 89.8213 128.362 90.6481C131.712 92.4083 134.283 94.7394 136.073 97.6428C137.863 100.546 138.758 103.854 138.758 107.567C138.758 111.262 137.868 114.553 136.087 117.438C134.305 120.324 131.73 122.655 128.362 124.432C126.721 125.276 124.64 125.893 122.118 126.28C119.596 126.667 116.219 126.861 111.986 126.861H101.748ZM115.557 115.063C118.697 115.045 120.989 114.434 122.436 113.228C123.882 112.023 124.605 110.136 124.605 107.567C124.605 105.051 123.913 103.177 122.529 101.945C121.144 100.713 119.023 100.098 116.166 100.098H115.558V115.063H115.557Z" fill="#9565E3"/>
<path d="M143.521 126.861V88.22H169.421V98.6981H157.172V102.42H168.283V112.318H157.172V116.382H169.739V126.861H143.521Z" fill="#9565E3"/>
<path d="M174.29 126.861V88.22H188.232V114.324H201.777V126.861H174.29V126.861Z" fill="#9565E3"/>
<path d="M0 170.971L13.8094 132.33H29.3122L42.8571 170.971H27.8836L26.6404 166.114H16.1376L14.9471 170.971H0ZM18.4658 156.929H24.2594L23.0689 152.548C22.4868 150.33 22.09 148.624 21.8784 147.427C21.6668 146.231 21.5344 145.105 21.4816 144.049H21.2436C21.1908 145.105 21.0583 146.231 20.8467 147.427C20.6351 148.624 20.2383 150.331 19.6562 152.548L18.4658 156.929Z" fill="#9565E3"/>
<path d="M46.7211 170.971V144.973H38.9697V132.33H68.3875V144.973H60.6361V170.971H46.7211Z" fill="#9565E3"/>
<path d="M76.8012 170.971V144.973H69.0498V132.33H98.4676V144.973H90.7162V170.971H76.8012Z" fill="#9565E3"/>
<path d="M101.881 170.971V132.33H119.395C124.474 132.33 128.354 133.448 131.035 135.682C133.716 137.917 135.056 141.137 135.056 145.342C135.056 148.087 134.381 150.348 133.032 152.125C131.683 153.903 129.862 154.941 127.569 155.24L137.913 170.971H122.305L115.532 158.222V170.971H101.881ZM115.532 142.28V149.829H117.701C119.024 149.829 120.042 149.508 120.757 148.866C121.471 148.224 121.828 147.304 121.828 146.107C121.828 144.876 121.471 143.93 120.757 143.27C120.043 142.61 119.024 142.28 117.701 142.28H115.532V142.28Z" fill="#9565E3"/>
<path d="M139.845 170.971V132.33H153.999V170.971H139.845Z" fill="#9565E3"/>
<path d="M160.429 170.971V132.33H178.974C182.942 132.33 186.037 133.258 188.259 135.115C190.482 136.971 191.593 139.553 191.593 142.861C191.593 144.973 191.068 146.728 190.019 148.127C188.969 149.526 187.483 150.436 185.561 150.859C188.189 151.404 190.146 152.434 191.434 153.946C192.721 155.46 193.365 157.493 193.365 160.044C193.365 163.651 192.143 166.374 189.701 168.212C187.258 170.051 183.665 170.971 178.92 170.971H160.429ZM173.497 141.515V146.926H175.323C176.451 146.926 177.311 146.693 177.902 146.227C178.493 145.76 178.788 145.088 178.788 144.207C178.788 143.328 178.493 142.659 177.902 142.201C177.311 141.744 176.451 141.515 175.323 141.515H173.497ZM173.497 155.24V161.416H175.825C177.218 161.416 178.29 161.148 179.039 160.611C179.789 160.075 180.164 159.313 180.164 158.328C180.164 157.324 179.789 156.559 179.039 156.031C178.29 155.503 177.218 155.24 175.825 155.24H173.497V155.24Z" fill="#9565E3"/>
<path d="M196.858 153.287V132.33H210.773V153.392C210.773 155.838 211.064 157.523 211.647 158.446C212.229 159.37 213.225 159.832 214.636 159.832C216.029 159.832 217.025 159.357 217.625 158.406C218.225 157.456 218.525 155.785 218.525 153.392V132.329H232.44V153.286C232.44 156.031 232.259 158.292 231.898 160.07C231.536 161.847 230.959 163.334 230.165 164.53C228.613 166.941 226.497 168.789 223.816 170.073C221.135 171.358 218.076 172 214.636 172C211.18 172 208.111 171.357 205.43 170.073C202.749 168.789 200.633 166.941 199.081 164.53C198.305 163.352 197.741 161.882 197.388 160.122C197.034 158.363 196.858 156.084 196.858 153.287Z" fill="#9565E3"/>
<path d="M243.579 170.971V144.973H235.828V132.33H265.245V144.973H257.494V170.971H243.579Z" fill="#9565E3"/>
<path d="M268.923 170.971V132.33H283.077V170.971H268.923Z" fill="#9565E3"/>
<path d="M329.559 151.729C329.559 154.563 329.057 157.197 328.052 159.634C327.046 162.072 325.573 164.249 323.633 166.167C321.693 168.05 319.458 169.492 316.927 170.495C314.396 171.498 311.702 172 308.845 172C305.952 172 303.245 171.498 300.723 170.495C298.201 169.492 295.961 168.032 294.004 166.114C292.081 164.249 290.626 162.102 289.639 159.674C288.651 157.245 288.157 154.597 288.157 151.729C288.157 148.861 288.651 146.204 289.639 143.758C290.626 141.313 292.081 139.157 294.004 137.292C295.944 135.391 298.174 133.944 300.697 132.95C303.219 131.956 305.935 131.458 308.845 131.458C311.755 131.458 314.47 131.956 316.993 132.95C319.515 133.944 321.755 135.391 323.713 137.292C325.618 139.175 327.068 141.339 328.065 143.785C329.061 146.231 329.559 148.879 329.559 151.729ZM308.846 159.014C310.803 159.014 312.377 158.351 313.567 157.022C314.758 155.693 315.353 153.93 315.353 151.73C315.353 149.512 314.758 147.731 313.567 146.385C312.377 145.039 310.803 144.366 308.846 144.366C306.888 144.366 305.309 145.043 304.11 146.398C302.91 147.753 302.311 149.53 302.311 151.73C302.311 153.93 302.91 155.693 304.11 157.022C305.309 158.35 306.888 159.014 308.846 159.014Z" fill="#9565E3"/>
<path d="M334.323 170.971V132.33H347.974L360.011 152.548C359.852 151.651 359.741 150.656 359.68 149.565C359.618 148.475 359.587 147.05 359.587 145.289V132.33H373V170.971H359.244L347.339 150.911C347.48 151.773 347.586 152.702 347.657 153.696C347.727 154.69 347.763 155.803 347.763 157.034V170.97H334.323V170.971Z" fill="#9565E3"/>
</svg>
