<svg width="600" height="254" viewBox="0 0 600 254" fill="none" xmlns="http://www.w3.org/2000/svg">
<mask id="mask0" mask-type="alpha" maskUnits="userSpaceOnUse" x="0" y="0" width="600" height="254">
<rect width="600" height="254" fill="#C4C4C4"/>
</mask>
<g mask="url(#mask0)">
<path d="M214.779 108.837C231.321 81.9303 252.573 42.7918 269.052 26.0105C273.9 21.0734 277.135 19.9459 280.162 21.316C284.214 23.1495 284.923 25.792 281.954 31.5028C278.985 37.2137 231.594 116.911 231.594 116.911C231.594 116.911 268.679 63.7757 278.5 49.537C288.322 35.2983 292.37 33.9896 295.143 39.1776C298.288 45.0642 289.571 63.047 289.571 63.047C285.973 75.1013 253.874 118.322 248.148 147.781C239.394 192.817 261.36 181.273 283.33 164.614C305.299 147.956 310.938 147.642 314.445 153.166C316.645 156.633 306.021 169.871 306.021 169.871C297.637 179.227 268.896 223.745 236.667 223.836C176.412 224.006 134.581 313.948 133.392 313.83C133.392 313.83 76.695 325.524 60.2462 267.079C60.2462 267.079 95.7194 235.167 127.506 196.957C159.292 158.748 179.886 91.573 183.919 80.4137C187.951 69.2544 192.537 42.6902 199.986 44.822C207.434 46.9539 202.383 59.9621 198.523 80.6092C194.663 101.256 194.237 102.746 196.539 102C198.841 101.253 236.856 38.1752 237.642 37.2783C238.427 36.3814 245.283 20.6276 251.932 23.7943C258.581 26.961 252.715 38.3565 252.715 38.3565C238.314 70.6446 214.43 108.372 214.43 108.372" fill="#3575F7"/>
<path d="M112.223 211.608C114.428 208.984 118.067 208.709 120.675 209.415C124.972 210.578 129.336 212.172 133.85 214.068C138.147 216.187 140.681 219.264 142.044 222.798C143.407 226.332 143.766 230.036 143.388 233.799C143.011 237.562 142.066 239.921 140.443 241.036C138.82 242.152 136.464 241.547 132.786 239.435C122.201 234.113 112.049 231.238 101.458 232.021C99.2496 232.184 97.2032 232.806 93.7248 233.705C93.7248 233.705 92.377 233.721 94.2565 231.365C96.1356 229.009 112.223 211.608 112.223 211.608Z" fill="white"/>
<path d="M132.786 239.435C122.201 234.113 112.052 231.29 101.458 232.021C98.9987 232.191 96.7177 232.563 94.5549 234.387C94.5549 234.387 93.3138 234.913 94.1583 232.02C95.0028 229.126 112.223 211.608 112.223 211.608C114.428 208.984 118.067 208.709 120.675 209.415C124.972 210.578 129.336 212.172 133.85 214.068C138.147 216.187 140.681 219.264 142.044 222.798C143.407 226.332 143.766 230.036 143.388 233.799C143.011 237.562 142.066 239.921 140.443 241.036C138.821 242.152 136.464 241.547 132.786 239.435Z" fill="url(#paint0_linear)"/>
<mask id="mask1" mask-type="alpha" maskUnits="userSpaceOnUse" x="107" y="204" width="74" height="83">
<path d="M114.537 225.149C124.299 219.451 133.556 215.032 143.62 209.897C144.558 209.413 145.629 209.905 145.087 210.58C142.418 213.905 141.913 214.813 139.533 217.813C139.258 218.16 139.41 218.52 139.868 218.625C157.611 223.915 166.687 235.813 174.539 252.189C176.344 256.627 176.196 260.61 174.869 264.157C173.542 267.705 171.352 270.713 168.571 273.276C165.79 275.84 163.518 276.977 161.563 276.733C159.609 276.49 158.249 274.474 156.901 270.452C150.484 254.331 141.276 242.753 124.708 236.74C124.29 236.626 123.68 236.843 123.353 237.217C120.516 240.45 119.075 242.084 116.425 245.171C115.887 245.797 114.764 245.853 114.768 245.266C114.608 238.814 114.226 232.403 113.865 225.96C113.863 225.843 113.93 225.703 114.048 225.56C114.165 225.418 114.335 225.273 114.537 225.149Z" fill="white"/>
</mask>
<g mask="url(#mask1)">
<path d="M96.2595 246.319C125.981 242.821 145.596 261.287 149.928 290.463C162.356 279.005 174.784 267.548 187.212 256.09C182.184 224.334 158.649 203.617 127.763 208.832C117.38 221.439 106.83 233.869 96.2595 246.319Z" fill="url(#paint1_linear)"/>
</g>
<path d="M443.232 96.3181C420.791 75.195 390.717 43.6737 371.09 32.2434C365.315 28.8808 362.052 28.715 359.659 30.8859C356.455 33.7911 356.527 36.5261 360.795 41.1629C365.062 45.7997 430.064 108.821 430.064 108.821C430.064 108.821 381.71 68.3577 368.859 57.4815C356.009 46.6054 351.952 46.4963 350.831 52.2566C349.559 58.7926 362.42 73.572 362.42 73.572C368.989 84.1145 410.087 116.481 423.339 143.113C443.597 183.829 420.381 178.974 395.77 169.216C371.159 159.458 365.921 160.752 364.22 167.043C363.153 170.991 376.465 180.68 376.465 180.68C386.673 187.28 425.056 221.841 454.532 212.806C509.643 195.914 572.351 270.335 573.406 269.885C573.406 269.885 628.401 265.052 627.524 204.344C627.524 204.344 586.421 183.778 546.972 156.13C507.524 128.481 470.419 69.8844 463.697 60.3232C456.974 50.7621 445.553 26.5831 439.326 30.736C433.099 34.889 441.256 45.9349 450.404 64.6444C459.552 83.3539 460.346 84.6622 458.039 84.598C455.732 84.5338 403.823 34.7973 402.861 34.1595C401.899 33.5217 391.346 20.3531 386.131 25.2722C380.917 30.1913 389.379 39.4601 389.379 39.4601C411.329 66.3505 443.424 95.7733 443.424 95.7733" fill="#3575F7"/>
<path d="M564.926 165.855C562.197 163.963 558.797 164.729 556.605 166.144C552.996 168.476 549.441 171.24 545.832 174.336C542.483 177.584 541.005 181.253 540.721 185.027C540.437 188.803 541.117 192.456 542.487 195.959C543.856 199.461 545.361 201.456 547.148 202.066C548.935 202.677 550.923 201.43 553.71 198.363C561.934 190.263 570.429 184.632 580.321 182.385C582.383 181.916 584.422 181.933 587.846 181.812C587.846 181.812 589.082 181.446 586.723 179.718C584.364 177.99 564.926 165.855 564.926 165.855Z" fill="white"/>
<path d="M553.709 198.363C561.934 190.263 570.439 184.683 580.32 182.385C582.614 181.852 584.8 181.564 587.272 182.7C587.272 182.7 588.55 182.854 586.99 180.318C585.431 177.782 564.926 165.855 564.926 165.855C562.197 163.963 558.797 164.729 556.605 166.144C552.996 168.476 549.441 171.24 545.832 174.336C542.483 177.584 541.005 181.253 540.721 185.027C540.437 188.803 541.117 192.456 542.487 195.959C543.856 199.461 545.361 201.456 547.148 202.066C548.934 202.677 550.923 201.43 553.709 198.363Z" fill="url(#paint2_linear)"/>
<mask id="mask2" mask-type="alpha" maskUnits="userSpaceOnUse" x="517" y="172" width="56" height="72">
<path d="M566.498 179.496C556.026 176.795 546.364 175.177 535.769 173.101C534.781 172.902 533.935 173.677 534.614 174.171C537.958 176.604 538.667 177.332 541.659 179.536C542.004 179.791 541.963 180.179 541.574 180.409C526.8 190.505 521.744 204.485 519.027 222.413C518.584 227.18 519.804 230.959 521.982 233.985C524.16 237.013 526.981 239.276 530.22 240.948C533.46 242.62 535.845 243.067 537.565 242.28C539.285 241.494 539.979 239.175 540.116 234.936C541.592 217.659 546.855 203.949 560.359 193.492C560.71 193.265 561.326 193.3 561.727 193.566C565.199 195.864 566.961 197.023 570.223 199.233C570.885 199.682 571.926 199.418 571.763 198.855C570.153 192.622 568.757 186.365 567.333 180.084C567.303 179.971 567.204 179.856 567.057 179.752C566.911 179.649 566.717 179.559 566.498 179.496Z" fill="white"/>
</mask>
<g mask="url(#mask2)">
<path d="M588.963 194.627C560.851 199.685 547.952 222.946 551.935 252.155C537.459 244.684 522.983 237.213 508.507 229.742C504.457 197.862 520.326 171.332 549.97 167.591C562.89 176.743 575.915 185.678 588.963 194.627Z" fill="url(#paint3_linear)"/>
</g>
</g>
<defs>
<linearGradient id="paint0_linear" x1="94.0187" y1="234.437" x2="141.854" y2="221.62" gradientUnits="userSpaceOnUse">
<stop stop-color="#00F1F1"/>
<stop offset="0.0775" stop-color="#00F0F1"/>
<stop offset="0.16" stop-color="#00F0F1"/>
<stop offset="0.19" stop-color="#00F0F1"/>
<stop offset="0.22" stop-color="#00F0F1"/>
<stop offset="0.3232" stop-color="#02CEF1" stop-opacity="0.9471"/>
<stop offset="0.5668" stop-color="#0783EF" stop-opacity="0.8222"/>
<stop offset="0.7687" stop-color="#0A4DEF" stop-opacity="0.7186"/>
<stop offset="0.9186" stop-color="#0C2BEE" stop-opacity="0.6417"/>
<stop offset="1" stop-color="#0D1EEE" stop-opacity="0.6"/>
</linearGradient>
<linearGradient id="paint1_linear" x1="140.763" y1="207.364" x2="142.586" y2="292.871" gradientUnits="userSpaceOnUse">
<stop stop-color="#00F1F1"/>
<stop offset="0.0775" stop-color="#00F0F1"/>
<stop offset="0.16" stop-color="#00F0F1"/>
<stop offset="0.19" stop-color="#00F0F1"/>
<stop offset="0.22" stop-color="#00F0F1"/>
<stop offset="1" stop-color="#0D1EEE"/>
</linearGradient>
<linearGradient id="paint2_linear" x1="587.776" y1="182.597" x2="540.573" y2="183.844" gradientUnits="userSpaceOnUse">
<stop stop-color="#00F1F1"/>
<stop offset="0.0775" stop-color="#00F0F1"/>
<stop offset="0.16" stop-color="#00F0F1"/>
<stop offset="0.19" stop-color="#00F0F1"/>
<stop offset="0.22" stop-color="#00F0F1"/>
<stop offset="0.3232" stop-color="#02CEF1" stop-opacity="0.9471"/>
<stop offset="0.5668" stop-color="#0783EF" stop-opacity="0.8222"/>
<stop offset="0.7687" stop-color="#0A4DEF" stop-opacity="0.7186"/>
<stop offset="0.9186" stop-color="#0C2BEE" stop-opacity="0.6417"/>
<stop offset="1" stop-color="#0D1EEE" stop-opacity="0.6"/>
</linearGradient>
<linearGradient id="paint3_linear" x1="537.691" y1="169.862" x2="561.107" y2="251.87" gradientUnits="userSpaceOnUse">
<stop stop-color="#00F1F1"/>
<stop offset="0.0775" stop-color="#00F0F1"/>
<stop offset="0.16" stop-color="#00F0F1"/>
<stop offset="0.19" stop-color="#00F0F1"/>
<stop offset="0.22" stop-color="#00F0F1"/>
<stop offset="1" stop-color="#0D1EEE"/>
</linearGradient>
</defs>
</svg>
