<svg width="292" height="109" viewBox="0 0 292 109" fill="none" xmlns="http://www.w3.org/2000/svg">
<mask id="mask0" mask-type="alpha" maskUnits="userSpaceOnUse" x="0" y="0" width="292" height="109">
<rect width="291.592" height="109" fill="#C4C4C4"/>
</mask>
<g mask="url(#mask0)">
<path d="M92.4509 46.8484C99.5713 35.2666 108.719 18.4196 115.812 11.1961C117.899 9.07097 119.292 8.58564 120.595 9.1754C122.339 9.96462 122.644 11.1021 121.366 13.5603C120.088 16.0185 99.6888 50.324 99.6888 50.324C99.6888 50.324 115.652 27.452 119.88 21.323C124.107 15.194 125.85 14.6307 127.043 16.8639C128.397 19.3977 124.645 27.1383 124.645 27.1383C123.096 32.3271 109.279 50.9311 106.814 63.6118C103.046 82.9975 112.502 78.028 121.958 70.8575C131.415 63.6871 133.842 63.5517 135.352 65.9297C136.299 67.422 131.726 73.1201 131.726 73.1201C128.117 77.1475 115.745 96.3101 101.873 96.3492C75.9359 96.4224 57.9302 135.138 57.4182 135.087C57.4182 135.087 33.0132 140.12 25.9329 114.963C25.9329 114.963 41.2022 101.227 54.8845 84.7795C68.5668 68.3325 77.4314 39.4172 79.1672 34.6138C80.903 29.8103 82.8769 18.3758 86.0832 19.2935C89.2894 20.2111 87.115 25.8104 85.4535 34.6979C83.792 43.5854 83.6086 44.2267 84.5996 43.9054C85.5906 43.5841 101.954 16.4324 102.292 16.0463C102.63 15.6602 105.581 8.8791 108.443 10.2422C111.305 11.6053 108.78 16.5104 108.78 16.5104C102.581 30.4087 92.3007 46.6482 92.3007 46.6482" fill="#3575F7"/>
<path d="M48.306 91.0857C49.2552 89.9565 50.8213 89.838 51.9442 90.142C53.7936 90.6426 55.6723 91.3286 57.6153 92.1449C59.4647 93.0569 60.5553 94.3814 61.1421 95.9024C61.729 97.4238 61.8833 99.0179 61.7207 100.638C61.5584 102.258 61.1518 103.273 60.4531 103.753C59.7546 104.233 58.7405 103.973 57.1572 103.064C52.6007 100.773 48.2308 99.5355 43.672 99.8723C42.7215 99.9426 41.8407 100.21 40.3434 100.597C40.3434 100.597 39.7633 100.604 40.5723 99.59C41.3811 98.576 48.306 91.0857 48.306 91.0857Z" fill="white"/>
<path d="M57.1573 103.064C52.6009 100.773 48.2326 99.5577 43.6722 99.8726C42.6137 99.9456 41.6319 100.106 40.7009 100.891C40.7009 100.891 40.1667 101.117 40.5302 99.8719C40.8937 98.6265 48.3061 91.0857 48.3061 91.0857C49.2553 89.9565 50.8214 89.838 51.9443 90.142C53.7937 90.6426 55.6724 91.3286 57.6154 92.1449C59.4648 93.0569 60.5555 94.3814 61.1422 95.9024C61.7291 97.4238 61.8834 99.0179 61.7208 100.638C61.5585 102.258 61.152 103.273 60.4532 103.753C59.755 104.233 58.7406 103.973 57.1573 103.064Z" fill="url(#paint0_linear)"/>
<mask id="mask1" mask-type="alpha" maskUnits="userSpaceOnUse" x="46" y="88" width="32" height="36">
<path d="M49.3022 96.9143C53.5041 94.4616 57.4887 92.5598 61.8207 90.3494C62.2244 90.1411 62.6856 90.3526 62.4523 90.6434C61.3034 92.0743 61.0858 92.4652 60.0616 93.7567C59.9433 93.9059 60.0087 94.0609 60.2057 94.1061C67.8428 96.3832 71.7498 101.505 75.1294 108.554C75.9068 110.464 75.843 112.179 75.2719 113.705C74.7006 115.233 73.7576 116.527 72.5605 117.631C71.3635 118.734 70.3857 119.224 69.5441 119.119C68.7031 119.014 68.1176 118.146 67.5372 116.415C64.7751 109.476 60.8116 104.492 53.6801 101.904C53.5 101.855 53.2375 101.948 53.0966 102.109C51.8757 103.501 51.2555 104.204 50.1145 105.533C49.8831 105.802 49.3999 105.826 49.4013 105.574C49.3325 102.796 49.1681 100.037 49.0129 97.2633C49.0118 97.2131 49.0405 97.1529 49.0915 97.0914C49.142 97.0301 49.215 96.968 49.3022 96.9143Z" fill="white"/>
</mask>
<g mask="url(#mask1)">
<path d="M41.4342 106.027C54.2276 104.521 62.6709 112.47 64.5358 125.028C69.8853 120.097 75.2348 115.165 80.5843 110.233C78.4203 96.5636 68.2894 87.6463 54.9947 89.8908C50.5256 95.3174 45.9843 100.668 41.4342 106.027Z" fill="url(#paint1_linear)"/>
</g>
<path d="M196.726 43.4768C189.59 32.2935 180.367 15.9652 173.383 9.1238C171.328 7.11106 169.984 6.69748 168.756 7.35079C167.113 8.22506 166.854 9.37393 168.145 11.7593C169.437 14.1447 189.911 47.3046 189.911 47.3046C189.911 47.3046 174.003 25.3154 169.788 19.4204C165.574 13.5254 163.892 13.0517 162.817 15.3372C161.596 17.9304 165.403 25.4554 165.403 25.4554C167.032 30.5482 180.766 48.3924 183.485 60.9051C187.642 80.034 178.466 75.5577 169.225 68.888C159.985 62.2184 157.662 62.2056 156.289 64.6513C155.427 66.1862 159.959 71.6344 159.959 71.6344C163.522 75.4662 175.892 93.9397 189.146 93.2805C213.927 92.0479 232.241 129.723 232.729 129.647C232.729 129.647 256.189 133.434 262.23 108.008C262.23 108.008 247.248 95.0872 233.704 79.3858C220.16 63.6844 210.861 35.3154 209.065 30.6159C207.268 25.9164 205.054 14.6209 202.017 15.6968C198.981 16.7726 201.219 22.2431 203.061 31.0162C204.904 39.7892 205.098 40.4191 204.142 40.1488C203.186 39.8785 186.773 13.6444 186.439 13.2767C186.105 12.909 183.091 6.29983 180.396 7.80225C177.701 9.30467 180.254 14.0658 180.254 14.0658C186.575 27.6039 196.863 43.2697 196.863 43.2697" fill="#3575F7"/>
<path d="M240.17 85.3391C239.231 84.2615 237.731 84.2223 236.667 84.5817C234.915 85.1737 233.14 85.9518 231.307 86.8631C229.566 87.8651 228.562 89.2399 228.045 90.7851C227.528 92.3308 227.427 93.9271 227.629 95.5333C227.83 97.1394 228.248 98.1307 228.929 98.574C229.61 99.0174 230.572 98.707 232.058 97.721C236.345 95.2088 240.485 93.7558 244.849 93.862C245.759 93.8842 246.609 94.1065 248.05 94.4171C248.05 94.4171 248.605 94.3947 247.803 93.4246C247.001 92.4549 240.17 85.3391 240.17 85.3391Z" fill="white"/>
<path d="M232.058 97.7213C236.345 95.209 240.483 93.778 244.849 93.8623C245.863 93.8818 246.805 93.9921 247.717 94.7274C247.717 94.7274 248.234 94.9262 247.851 93.7034C247.468 92.4806 240.17 85.3391 240.17 85.3391C239.231 84.2615 237.731 84.2223 236.667 84.5818C234.915 85.1737 233.139 85.9518 231.307 86.8631C229.566 87.8651 228.562 89.2399 228.045 90.7852C227.528 92.3309 227.427 93.9272 227.628 95.5333C227.83 97.1394 228.248 98.1307 228.929 98.5741C229.61 99.0173 230.571 98.707 232.058 97.7213Z" fill="url(#paint2_linear)"/>
<mask id="mask2" mask-type="alpha" maskUnits="userSpaceOnUse" x="213" y="83" width="30" height="35">
<path d="M239.386 91.1976C235.301 88.965 231.44 87.2703 227.238 85.2856C226.846 85.0984 226.412 85.3323 226.643 85.6103C227.782 86.9785 228.001 87.3571 229.016 88.5925C229.134 88.7353 229.076 88.893 228.889 88.948C221.658 91.6016 218.073 96.9018 215.046 104.097C214.359 106.039 214.469 107.745 215.058 109.238C215.648 110.731 216.586 111.973 217.761 113.013C218.937 114.052 219.885 114.491 220.686 114.344C221.486 114.197 222.021 113.303 222.525 111.548C224.965 104.494 228.608 99.3286 235.347 96.3903C235.518 96.3323 235.771 96.4123 235.91 96.5653C237.117 97.8908 237.729 98.5605 238.857 99.8273C239.086 100.084 239.549 100.084 239.54 99.832C239.526 97.061 239.604 94.3025 239.672 91.5309C239.672 91.4808 239.643 91.4222 239.592 91.3635C239.542 91.305 239.471 91.2467 239.386 91.1976Z" fill="white"/>
</mask>
<g mask="url(#mask2)">
<path d="M247.164 99.8828C234.899 99.0264 227.061 107.372 225.64 119.981C220.388 115.336 215.136 110.69 209.883 106.045C211.558 92.3139 220.98 82.9175 233.746 84.4851C238.171 89.668 242.664 94.7715 247.164 99.8828Z" fill="url(#paint3_linear)"/>
</g>
</g>
<defs>
<linearGradient id="paint0_linear" x1="40.4701" y1="100.912" x2="61.0607" y2="95.3952" gradientUnits="userSpaceOnUse">
<stop stop-color="#00F1F1"/>
<stop offset="0.0775" stop-color="#00F0F1"/>
<stop offset="0.16" stop-color="#00F0F1"/>
<stop offset="0.19" stop-color="#00F0F1"/>
<stop offset="0.22" stop-color="#00F0F1"/>
<stop offset="0.3232" stop-color="#02CEF1" stop-opacity="0.9471"/>
<stop offset="0.5668" stop-color="#0783EF" stop-opacity="0.8222"/>
<stop offset="0.7687" stop-color="#0A4DEF" stop-opacity="0.7186"/>
<stop offset="0.9186" stop-color="#0C2BEE" stop-opacity="0.6417"/>
<stop offset="1" stop-color="#0D1EEE" stop-opacity="0.6"/>
</linearGradient>
<linearGradient id="paint1_linear" x1="60.5904" y1="89.2588" x2="61.3755" y2="126.065" gradientUnits="userSpaceOnUse">
<stop stop-color="#00F1F1"/>
<stop offset="0.0775" stop-color="#00F0F1"/>
<stop offset="0.16" stop-color="#00F0F1"/>
<stop offset="0.19" stop-color="#00F0F1"/>
<stop offset="0.22" stop-color="#00F0F1"/>
<stop offset="1" stop-color="#0D1EEE"/>
</linearGradient>
<linearGradient id="paint2_linear" x1="247.938" y1="94.7374" x2="228.109" y2="90.2756" gradientUnits="userSpaceOnUse">
<stop stop-color="#00F1F1"/>
<stop offset="0.0775" stop-color="#00F0F1"/>
<stop offset="0.16" stop-color="#00F0F1"/>
<stop offset="0.19" stop-color="#00F0F1"/>
<stop offset="0.22" stop-color="#00F0F1"/>
<stop offset="0.3232" stop-color="#02CEF1" stop-opacity="0.9471"/>
<stop offset="0.5668" stop-color="#0783EF" stop-opacity="0.8222"/>
<stop offset="0.7687" stop-color="#0A4DEF" stop-opacity="0.7186"/>
<stop offset="0.9186" stop-color="#0C2BEE" stop-opacity="0.6417"/>
<stop offset="1" stop-color="#0D1EEE" stop-opacity="0.6"/>
</linearGradient>
<linearGradient id="paint3_linear" x1="228.382" y1="84.137" x2="229.498" y2="120.831" gradientUnits="userSpaceOnUse">
<stop stop-color="#00F1F1"/>
<stop offset="0.0775" stop-color="#00F0F1"/>
<stop offset="0.16" stop-color="#00F0F1"/>
<stop offset="0.19" stop-color="#00F0F1"/>
<stop offset="0.22" stop-color="#00F0F1"/>
<stop offset="1" stop-color="#0D1EEE"/>
</linearGradient>
</defs>
</svg>
