<svg width="230" height="106" viewBox="0 0 230 106" fill="none" xmlns="http://www.w3.org/2000/svg">
<path d="M225.923 7.80804H101.797V88.3008H225.923V7.80804Z" fill="url(#paint0_linear)"/>
<path d="M221.994 3.35364H83.9062V83.8927H221.994V3.35364Z" fill="white"/>
<path d="M106.943 18.2604V21.0771H107.75C108.243 21.0771 108.62 20.9589 108.883 20.7226C109.152 20.4796 109.287 20.1349 109.287 19.6885C109.287 19.2289 109.152 18.8776 108.883 18.6347C108.62 18.3852 108.243 18.2604 107.75 18.2604H106.943ZM101.861 28.9659V14.5475H108.381C110.272 14.5475 111.716 14.9644 112.714 15.7983C113.712 16.6321 114.211 17.8336 114.211 19.4029C114.211 20.4271 113.958 21.2708 113.453 21.934C112.954 22.5971 112.278 22.9845 111.424 23.0961L115.275 28.9659H109.464L106.943 24.209V28.9659H101.861ZM116.299 28.9659V14.5475H125.941V18.4574H121.381V19.846H125.517V23.5393H121.381V25.056H126.059V28.9659H116.299ZM126.847 27.7348L128.502 23.6969C129.243 24.2156 129.903 24.5964 130.481 24.8393C131.065 25.0757 131.61 25.1939 132.116 25.1939C132.471 25.1939 132.75 25.1282 132.953 24.9969C133.157 24.859 133.258 24.6752 133.258 24.4454C133.258 24.0448 132.75 23.7395 131.732 23.5294C131.404 23.4572 131.148 23.4014 130.964 23.362C129.887 23.0994 129.063 22.6332 128.492 21.9635C127.92 21.2938 127.635 20.4599 127.635 19.462C127.635 17.9124 128.19 16.6518 129.299 15.6801C130.409 14.7083 131.863 14.2225 133.662 14.2225C134.49 14.2225 135.304 14.3308 136.105 14.5475C136.906 14.7642 137.713 15.0924 138.527 15.5323L136.952 19.3044C136.453 18.9367 135.95 18.6576 135.445 18.4672C134.946 18.2703 134.46 18.1718 133.987 18.1718C133.626 18.1718 133.347 18.2342 133.15 18.3589C132.953 18.4771 132.855 18.6445 132.855 18.8612C132.855 19.2683 133.574 19.6261 135.011 19.9347C135.241 19.9872 135.419 20.0266 135.543 20.0529C136.535 20.2761 137.316 20.7324 137.887 21.4218C138.459 22.1112 138.744 22.9451 138.744 23.9234C138.744 25.5189 138.166 26.8222 137.011 27.8333C135.862 28.8444 134.365 29.35 132.52 29.35C131.574 29.35 130.629 29.2154 129.683 28.9462C128.738 28.677 127.792 28.2732 126.847 27.7348ZM140.33 22.3673V14.5475H145.51V22.4067C145.51 23.3193 145.618 23.9496 145.835 24.2976C146.052 24.639 146.423 24.8098 146.948 24.8098C147.467 24.8098 147.838 24.6325 148.061 24.2779C148.284 23.9234 148.396 23.2996 148.396 22.4067V14.5475H153.576V22.3673C153.576 23.3916 153.507 24.2353 153.369 24.8984C153.238 25.5615 153.025 26.1163 152.729 26.5628C152.151 27.4623 151.363 28.1517 150.365 28.631C149.368 29.1103 148.228 29.35 146.948 29.35C145.661 29.35 144.519 29.1103 143.521 28.631C142.523 28.1517 141.735 27.4623 141.157 26.5628C140.868 26.1229 140.658 25.5747 140.527 24.9181C140.395 24.2615 140.33 23.4113 140.33 22.3673ZM156.265 28.9659V14.5475H161.455V24.2878H166.498V28.9659H156.265ZM169.216 28.9659V19.265H166.33V14.5475H177.282V19.265H174.396V28.9659H169.216ZM100.551 51.7348L102.206 47.6969C102.948 48.2156 103.607 48.5964 104.185 48.8393C104.77 49.0757 105.315 49.1939 105.82 49.1939C106.175 49.1939 106.454 49.1282 106.657 48.9969C106.861 48.859 106.963 48.6752 106.963 48.4454C106.963 48.0448 106.454 47.7395 105.436 47.5294C105.108 47.4572 104.852 47.4014 104.668 47.362C103.591 47.0994 102.767 46.6332 102.196 45.9635C101.625 45.2938 101.339 44.4599 101.339 43.462C101.339 41.9124 101.894 40.6518 103.003 39.6801C104.113 38.7083 105.567 38.2225 107.366 38.2225C108.194 38.2225 109.008 38.3308 109.809 38.5475C110.61 38.7642 111.417 39.0924 112.232 39.5323L110.656 43.3044C110.157 42.9367 109.655 42.6576 109.149 42.4672C108.65 42.2703 108.164 42.1718 107.691 42.1718C107.33 42.1718 107.051 42.2342 106.854 42.3589C106.657 42.4771 106.559 42.6445 106.559 42.8612C106.559 43.2683 107.278 43.6261 108.716 43.9347C108.945 43.9872 109.123 44.0266 109.247 44.0529C110.239 44.2761 111.02 44.7324 111.591 45.4218C112.163 46.1112 112.448 46.9451 112.448 47.9234C112.448 49.5189 111.87 50.8222 110.715 51.8333C109.566 52.8444 108.069 53.35 106.224 53.35C105.278 53.35 104.333 53.2154 103.388 52.9462C102.442 52.677 101.497 52.2732 100.551 51.7348Z" fill="#3575F7"/>
<path d="M217.887 1.7124H82.4199V80.5962H217.887V1.7124Z" stroke="#0650F5" stroke-width="2" stroke-miterlimit="10"/>
<path d="M2.26367 61.2539C15.3297 38.9156 44.6815 19.923 72.3848 19.923C128.547 19.923 143.569 61.2539 143.569 61.2539L87.3818 100.111" fill="white"/>
<mask id="mask0" mask-type="alpha" maskUnits="userSpaceOnUse" x="13" y="20" width="123" height="65">
<path d="M13.5 47.0001C26.6299 30.2394 41.2008 20.8377 74.252 20.8377C120.886 20.8377 135.374 49.8292 135.374 49.8292L72.8937 84.2565" fill="white"/>
</mask>
<g mask="url(#mask0)">
<path d="M73.7315 173.117C33.6044 173.117 0.958984 140.4 0.958984 100.185C0.958984 59.9701 33.6044 27.2528 73.7315 27.2528C113.859 27.2528 146.505 59.9701 146.505 100.185C146.505 140.4 113.859 173.117 73.7315 173.117ZM73.7315 35.2234C37.99 35.2234 8.91218 64.3653 8.91218 100.185C8.91218 136.005 37.9905 165.146 73.7315 165.146C109.474 165.146 138.552 136.005 138.552 100.185C138.552 64.3653 109.474 35.2234 73.7315 35.2234Z" fill="url(#paint1_linear)"/>
<path d="M73.7313 154.051C44.4045 154.051 20.5449 130.139 20.5449 100.748C20.5449 71.3563 44.4045 47.4446 73.7313 47.4446C103.059 47.4446 126.918 71.3563 126.918 100.748C126.918 130.139 103.059 154.051 73.7313 154.051ZM73.7313 55.4157C48.7895 55.4157 28.4981 75.7515 28.4981 100.748C28.4981 125.745 48.7895 146.081 73.7313 146.081C98.6736 146.081 118.965 125.745 118.965 100.748C118.965 75.7515 98.6736 55.4157 73.7313 55.4157Z" fill="url(#paint2_linear)"/>
<path d="M73.7317 134.523C55.4221 134.523 40.5269 119.595 40.5269 101.246C40.5269 82.8966 55.4221 67.9683 73.7317 67.9683C92.0413 67.9683 106.936 82.8966 106.936 101.246C106.936 119.595 92.0413 134.523 73.7317 134.523ZM73.7317 75.9395C59.8082 75.9395 48.4801 87.2924 48.4801 101.246C48.4801 115.2 59.8082 126.553 73.7317 126.553C87.6551 126.553 98.9833 115.2 98.9833 101.246C98.9833 87.2924 87.6551 75.9395 73.7317 75.9395Z" fill="url(#paint3_linear)"/>
</g>
<path d="M83.2202 96.557L135.268 56.7521L77.5023 88.4142C75.4428 87.9095 73.1849 88.2652 71.3214 89.593C67.9166 92.019 67.1189 96.7523 69.5396 100.165C71.9602 103.577 76.6832 104.376 80.088 101.95C81.9307 100.637 83.0022 98.6465 83.2202 96.557Z" fill="#FD6125"/>
<path d="M198.538 30.3733H192.359V55.2854H198.538V30.3733Z" fill="#CBDDFD"/>
<path d="M187.569 41.2006H181.39V55.2854H187.569V41.2006Z" fill="#CBDDFD"/>
<path d="M176.859 49.3152H170.68V55.2861H176.859V49.3152Z" fill="#FD91C2"/>
<path d="M166.149 52.838H159.971V55.2854H166.149V52.838Z" fill="#FD91C2"/>
<path d="M208.988 10.0172H202.809V55.2854H208.988V10.0172Z" fill="url(#paint4_linear)"/>
<path d="M148.217 91.9084V97.6095H129.648C128.3 97.6095 127.207 98.7047 127.207 100.056C127.207 101.407 128.3 102.502 129.648 102.502H178.088C179.436 102.502 180.529 101.407 180.529 100.056C180.529 98.7047 179.436 97.6095 178.088 97.6095H159.109V91.9084" stroke="#0650F5" stroke-width="2" stroke-miterlimit="10"/>
<path d="M209.025 64.0024H160.074" stroke="#0650F5" stroke-width="1.0249" stroke-miterlimit="10" stroke-linecap="round" stroke-linejoin="round"/>
<path d="M209.025 67.9623H180.558" stroke="#0650F5" stroke-width="1.0249" stroke-miterlimit="10" stroke-linecap="round" stroke-linejoin="round"/>
<path d="M209.025 71.9216H172.231" stroke="#0650F5" stroke-width="1.0249" stroke-miterlimit="10" stroke-linecap="round" stroke-linejoin="round"/>
<defs>
<linearGradient id="paint0_linear" x1="136.726" y1="0.954464" x2="209.696" y2="127.068" gradientUnits="userSpaceOnUse">
<stop offset="0.3646" stop-color="#FFD9EB"/>
<stop offset="0.4302" stop-color="#FFD2DF"/>
<stop offset="0.5493" stop-color="#FFBEBF"/>
<stop offset="0.7084" stop-color="#FE9E8A"/>
<stop offset="0.8993" stop-color="#FD7343"/>
<stop offset="0.9736" stop-color="#FD6125"/>
</linearGradient>
<linearGradient id="paint1_linear" x1="0.958759" y1="100.185" x2="146.505" y2="100.185" gradientUnits="userSpaceOnUse">
<stop offset="0.3646" stop-color="#FFD9EB"/>
<stop offset="0.4302" stop-color="#FFD2DF"/>
<stop offset="0.5493" stop-color="#FFBEBF"/>
<stop offset="0.7084" stop-color="#FE9E8A"/>
<stop offset="0.8993" stop-color="#FD7343"/>
<stop offset="0.9736" stop-color="#FD6125"/>
</linearGradient>
<linearGradient id="paint2_linear" x1="20.5449" y1="100.748" x2="126.919" y2="100.748" gradientUnits="userSpaceOnUse">
<stop offset="0.3646" stop-color="#FFD9EB"/>
<stop offset="0.4302" stop-color="#FFD2DF"/>
<stop offset="0.5493" stop-color="#FFBEBF"/>
<stop offset="0.7084" stop-color="#FE9E8A"/>
<stop offset="0.8993" stop-color="#FD7343"/>
<stop offset="0.9736" stop-color="#FD6125"/>
</linearGradient>
<linearGradient id="paint3_linear" x1="40.527" y1="101.246" x2="106.936" y2="101.246" gradientUnits="userSpaceOnUse">
<stop offset="0.3646" stop-color="#FFD9EB"/>
<stop offset="0.4302" stop-color="#FFD2DF"/>
<stop offset="0.5493" stop-color="#FFBEBF"/>
<stop offset="0.7084" stop-color="#FE9E8A"/>
<stop offset="0.8993" stop-color="#FD7343"/>
<stop offset="0.9736" stop-color="#FD6125"/>
</linearGradient>
<linearGradient id="paint4_linear" x1="205.898" y1="9.36864" x2="205.898" y2="57.6816" gradientUnits="userSpaceOnUse">
<stop stop-color="#00F1F1"/>
<stop offset="0.9974" stop-color="#3575F7"/>
</linearGradient>
</defs>
</svg>
