<svg width="220" height="150" viewBox="0 0 220 150" fill="none" xmlns="http://www.w3.org/2000/svg">
<g clip-path="url(#clip0)">
<mask id="mask0" mask-type="alpha" maskUnits="userSpaceOnUse" x="22" y="2" width="47" height="47">
<ellipse cx="45.0281" cy="25.8006" rx="23.0281" ry="22.9969" fill="#C4C4C4"/>
</mask>
<g mask="url(#mask0)">
<path d="M56.874 9.50781L60.1184 11.2771" stroke="#FFD9EB" stroke-width="1.5328" stroke-miterlimit="10" stroke-linecap="round"/>
<path d="M58.4146 4.58875L58.6439 7.14954" stroke="#FFD9EB" stroke-width="1.5328" stroke-miterlimit="10" stroke-linecap="round"/>
<path d="M60.3403 7.32277L61.9625 4.52197" stroke="#FFD9EB" stroke-width="1.5328" stroke-miterlimit="10" stroke-linecap="round"/>
<path d="M65.3096 15.4507L67.5311 13.0959" stroke="#FFD9EB" stroke-width="1.5328" stroke-miterlimit="10" stroke-linecap="round"/>
<path d="M63.4512 5.97034L67.2163 8.76399" stroke="#FFD9EB" stroke-width="1.5328" stroke-miterlimit="10" stroke-linecap="round"/>
<path d="M60.958 9.27973L63.6859 8.41382" stroke="#FFD9EB" stroke-width="1.5328" stroke-miterlimit="10" stroke-linecap="round"/>
<path d="M59.8198 13.6046L61.4283 12.557" stroke="#FFD9EB" stroke-width="1.5328" stroke-miterlimit="10" stroke-linecap="round"/>
<path d="M56.6362 18.0925L57.3881 16.4476" stroke="#FFD9EB" stroke-width="1.5328" stroke-miterlimit="10" stroke-linecap="round"/>
<path d="M65.2798 10.8347H68.0822" stroke="#FFD9EB" stroke-width="1.5328" stroke-miterlimit="10" stroke-linecap="round"/>
<path d="M62.7729 10.9824L64.2474 12.7512" stroke="#FFD9EB" stroke-width="1.5328" stroke-miterlimit="10" stroke-linecap="round"/>
<path d="M62.0411 14.1924L60.8657 18.1396" stroke="#FFD9EB" stroke-width="1.5328" stroke-miterlimit="10" stroke-linecap="round"/>
<path d="M53.9595 16.6089L57.8759 13.103" stroke="#FFD9EB" stroke-width="1.5328" stroke-miterlimit="10" stroke-linecap="round"/>
<path d="M53.4824 6.55933L54.8705 7.13997" stroke="#FFD9EB" stroke-width="1.5328" stroke-miterlimit="10" stroke-linecap="round"/>
<path d="M56.6162 7.42468L56.6919 7.86836" stroke="#FFD9EB" stroke-width="1.5328" stroke-miterlimit="10" stroke-linecap="round"/>
<path d="M67.7983 15.4495L67.874 15.8931" stroke="#FFD9EB" stroke-width="1.5328" stroke-miterlimit="10" stroke-linecap="round"/>
<path d="M55.9111 11.7471L55.9874 12.1907" stroke="#FFD9EB" stroke-width="1.5328" stroke-miterlimit="10" stroke-linecap="round"/>
<path d="M67.2548 4.87817L66.5786 5.44512" stroke="#FFD9EB" stroke-width="1.5328" stroke-miterlimit="10" stroke-linecap="round"/>
<path d="M55.2694 4.50232L54.5933 5.06927" stroke="#FFD9EB" stroke-width="1.5328" stroke-miterlimit="10" stroke-linecap="round"/>
<path d="M58.7783 15.1058L59.5313 16.4089" stroke="#FFD9EB" stroke-width="1.5328" stroke-miterlimit="10" stroke-linecap="round"/>
<path d="M54.6617 10.3922L53.9248 11.8668" stroke="#FFD9EB" stroke-width="1.5328" stroke-miterlimit="10" stroke-linecap="round"/>
<path d="M63.5449 16.4946L66.8823 17.6696" stroke="#FFD9EB" stroke-width="1.5328" stroke-miterlimit="10" stroke-linecap="round"/>
<path d="M56.874 24.61L60.1184 26.3787" stroke="#FFD9EB" stroke-width="1.5328" stroke-miterlimit="10" stroke-linecap="round"/>
<path d="M58.4146 19.6909L58.6439 22.2511" stroke="#FFD9EB" stroke-width="1.5328" stroke-miterlimit="10" stroke-linecap="round"/>
<path d="M60.3403 22.4251L61.9625 19.6237" stroke="#FFD9EB" stroke-width="1.5328" stroke-miterlimit="10" stroke-linecap="round"/>
<path d="M65.3096 30.5523L67.5311 28.1981" stroke="#FFD9EB" stroke-width="1.5328" stroke-miterlimit="10" stroke-linecap="round"/>
<path d="M63.4512 21.0725L67.2163 23.8662" stroke="#FFD9EB" stroke-width="1.5328" stroke-miterlimit="10" stroke-linecap="round"/>
<path d="M60.958 24.3813L63.6859 23.5154" stroke="#FFD9EB" stroke-width="1.5328" stroke-miterlimit="10" stroke-linecap="round"/>
<path d="M59.8198 28.7061L61.4283 27.6592" stroke="#FFD9EB" stroke-width="1.5328" stroke-miterlimit="10" stroke-linecap="round"/>
<path d="M56.6362 33.1941L57.3881 31.5498" stroke="#FFD9EB" stroke-width="1.5328" stroke-miterlimit="10" stroke-linecap="round"/>
<path d="M65.2798 25.9369H68.0822" stroke="#FFD9EB" stroke-width="1.5328" stroke-miterlimit="10" stroke-linecap="round"/>
<path d="M62.7729 26.084L64.2474 27.8533" stroke="#FFD9EB" stroke-width="1.5328" stroke-miterlimit="10" stroke-linecap="round"/>
<path d="M62.0411 29.2946L60.8657 33.2412" stroke="#FFD9EB" stroke-width="1.5328" stroke-miterlimit="10" stroke-linecap="round"/>
<path d="M53.9595 31.7105L57.8759 28.2052" stroke="#FFD9EB" stroke-width="1.5328" stroke-miterlimit="10" stroke-linecap="round"/>
<path d="M53.4824 21.6615L54.8705 22.2416" stroke="#FFD9EB" stroke-width="1.5328" stroke-miterlimit="10" stroke-linecap="round"/>
<path d="M56.6162 22.5269L56.6919 22.9699" stroke="#FFD9EB" stroke-width="1.5328" stroke-miterlimit="10" stroke-linecap="round"/>
<path d="M67.7983 30.5516L67.874 30.9953" stroke="#FFD9EB" stroke-width="1.5328" stroke-miterlimit="10" stroke-linecap="round"/>
<path d="M55.9111 26.8492L55.9874 27.2929" stroke="#FFD9EB" stroke-width="1.5328" stroke-miterlimit="10" stroke-linecap="round"/>
<path d="M67.2548 19.9803L66.5786 20.5473" stroke="#FFD9EB" stroke-width="1.5328" stroke-miterlimit="10" stroke-linecap="round"/>
<path d="M55.2694 19.6045L54.5933 20.1714" stroke="#FFD9EB" stroke-width="1.5328" stroke-miterlimit="10" stroke-linecap="round"/>
<path d="M58.7783 30.208L59.5313 31.511" stroke="#FFD9EB" stroke-width="1.5328" stroke-miterlimit="10" stroke-linecap="round"/>
<path d="M54.6617 25.4944L53.9248 26.9689" stroke="#FFD9EB" stroke-width="1.5328" stroke-miterlimit="10" stroke-linecap="round"/>
<path d="M63.5449 31.5968L66.8823 32.7712" stroke="#FFD9EB" stroke-width="1.5328" stroke-miterlimit="10" stroke-linecap="round"/>
<path d="M56.874 39.7122L60.1184 41.4809" stroke="#FFD9EB" stroke-width="1.5328" stroke-miterlimit="10" stroke-linecap="round"/>
<path d="M58.4146 34.7931L58.6439 37.3533" stroke="#FFD9EB" stroke-width="1.5328" stroke-miterlimit="10" stroke-linecap="round"/>
<path d="M60.3403 37.5266L61.9625 34.7258" stroke="#FFD9EB" stroke-width="1.5328" stroke-miterlimit="10" stroke-linecap="round"/>
<path d="M65.3096 45.6544L67.5311 43.3003" stroke="#FFD9EB" stroke-width="1.5328" stroke-miterlimit="10" stroke-linecap="round"/>
<path d="M63.4512 36.1747L67.2163 38.9683" stroke="#FFD9EB" stroke-width="1.5328" stroke-miterlimit="10" stroke-linecap="round"/>
<path d="M60.958 39.4835L63.6859 38.6176" stroke="#FFD9EB" stroke-width="1.5328" stroke-miterlimit="10" stroke-linecap="round"/>
<path d="M59.8198 43.8083L61.4283 42.7614" stroke="#FFD9EB" stroke-width="1.5328" stroke-miterlimit="10" stroke-linecap="round"/>
<path d="M56.6362 48.2962L57.3881 46.652" stroke="#FFD9EB" stroke-width="1.5328" stroke-miterlimit="10" stroke-linecap="round"/>
<path d="M65.2798 41.0391H68.0822" stroke="#FFD9EB" stroke-width="1.5328" stroke-miterlimit="10" stroke-linecap="round"/>
<path d="M62.7729 41.1862L64.2474 42.9555" stroke="#FFD9EB" stroke-width="1.5328" stroke-miterlimit="10" stroke-linecap="round"/>
<path d="M62.0411 44.3966L60.8657 48.3432" stroke="#FFD9EB" stroke-width="1.5328" stroke-miterlimit="10" stroke-linecap="round"/>
<path d="M53.9595 46.8127L57.8759 43.3074" stroke="#FFD9EB" stroke-width="1.5328" stroke-miterlimit="10" stroke-linecap="round"/>
<path d="M53.4824 36.7637L54.8705 37.3437" stroke="#FFD9EB" stroke-width="1.5328" stroke-miterlimit="10" stroke-linecap="round"/>
<path d="M56.6162 37.629L56.6919 38.0721" stroke="#FFD9EB" stroke-width="1.5328" stroke-miterlimit="10" stroke-linecap="round"/>
<path d="M67.7983 45.6538L67.874 46.0969" stroke="#FFD9EB" stroke-width="1.5328" stroke-miterlimit="10" stroke-linecap="round"/>
<path d="M55.9111 41.9514L55.9874 42.3945" stroke="#FFD9EB" stroke-width="1.5328" stroke-miterlimit="10" stroke-linecap="round"/>
<path d="M67.2548 35.0825L66.5786 35.6495" stroke="#FFD9EB" stroke-width="1.5328" stroke-miterlimit="10" stroke-linecap="round"/>
<path d="M55.2694 34.7067L54.5933 35.273" stroke="#FFD9EB" stroke-width="1.5328" stroke-miterlimit="10" stroke-linecap="round"/>
<path d="M58.7783 45.3102L59.5313 46.6132" stroke="#FFD9EB" stroke-width="1.5328" stroke-miterlimit="10" stroke-linecap="round"/>
<path d="M54.6617 40.5966L53.9248 42.0705" stroke="#FFD9EB" stroke-width="1.5328" stroke-miterlimit="10" stroke-linecap="round"/>
<path d="M63.5449 46.699L66.8823 47.8734" stroke="#FFD9EB" stroke-width="1.5328" stroke-miterlimit="10" stroke-linecap="round"/>
<path d="M41.3613 9.50781L44.6057 11.2771" stroke="#FFD9EB" stroke-width="1.5328" stroke-miterlimit="10" stroke-linecap="round"/>
<path d="M42.9014 4.58875L43.1313 7.14954" stroke="#FFD9EB" stroke-width="1.5328" stroke-miterlimit="10" stroke-linecap="round"/>
<path d="M44.8271 7.32277L46.4494 4.52197" stroke="#FFD9EB" stroke-width="1.5328" stroke-miterlimit="10" stroke-linecap="round"/>
<path d="M49.7969 15.4507L52.0184 13.0959" stroke="#FFD9EB" stroke-width="1.5328" stroke-miterlimit="10" stroke-linecap="round"/>
<path d="M47.938 5.97034L51.7031 8.76399" stroke="#FFD9EB" stroke-width="1.5328" stroke-miterlimit="10" stroke-linecap="round"/>
<path d="M45.4448 9.27973L48.1733 8.41382" stroke="#FFD9EB" stroke-width="1.5328" stroke-miterlimit="10" stroke-linecap="round"/>
<path d="M44.3066 13.6046L45.9157 12.557" stroke="#FFD9EB" stroke-width="1.5328" stroke-miterlimit="10" stroke-linecap="round"/>
<path d="M41.1235 18.0925L41.8754 16.4476" stroke="#FFD9EB" stroke-width="1.5328" stroke-miterlimit="10" stroke-linecap="round"/>
<path d="M49.7671 10.8347H52.5689" stroke="#FFD9EB" stroke-width="1.5328" stroke-miterlimit="10" stroke-linecap="round"/>
<path d="M47.2603 10.9824L48.7347 12.7512" stroke="#FFD9EB" stroke-width="1.5328" stroke-miterlimit="10" stroke-linecap="round"/>
<path d="M46.5284 14.1924L45.353 18.1396" stroke="#FFD9EB" stroke-width="1.5328" stroke-miterlimit="10" stroke-linecap="round"/>
<path d="M38.4468 16.6089L42.3632 13.103" stroke="#FFD9EB" stroke-width="1.5328" stroke-miterlimit="10" stroke-linecap="round"/>
<path d="M37.9697 6.55933L39.3578 7.13997" stroke="#FFD9EB" stroke-width="1.5328" stroke-miterlimit="10" stroke-linecap="round"/>
<path d="M41.103 7.42468L41.1793 7.86836" stroke="#FFD9EB" stroke-width="1.5328" stroke-miterlimit="10" stroke-linecap="round"/>
<path d="M52.2852 15.4495L52.3614 15.8931" stroke="#FFD9EB" stroke-width="1.5328" stroke-miterlimit="10" stroke-linecap="round"/>
<path d="M40.3984 11.7471L40.4741 12.1907" stroke="#FFD9EB" stroke-width="1.5328" stroke-miterlimit="10" stroke-linecap="round"/>
<path d="M51.7421 4.87817L51.0659 5.44512" stroke="#FFD9EB" stroke-width="1.5328" stroke-miterlimit="10" stroke-linecap="round"/>
<path d="M39.7567 4.50232L39.0806 5.06927" stroke="#FFD9EB" stroke-width="1.5328" stroke-miterlimit="10" stroke-linecap="round"/>
<path d="M43.2656 15.1058L44.0186 16.4089" stroke="#FFD9EB" stroke-width="1.5328" stroke-miterlimit="10" stroke-linecap="round"/>
<path d="M39.1491 10.3922L38.4116 11.8668" stroke="#FFD9EB" stroke-width="1.5328" stroke-miterlimit="10" stroke-linecap="round"/>
<path d="M48.0322 16.4946L51.3696 17.6696" stroke="#FFD9EB" stroke-width="1.5328" stroke-miterlimit="10" stroke-linecap="round"/>
<path d="M41.3613 24.61L44.6057 26.3787" stroke="#FFD9EB" stroke-width="1.5328" stroke-miterlimit="10" stroke-linecap="round"/>
<path d="M42.9014 19.6909L43.1313 22.2511" stroke="#FFD9EB" stroke-width="1.5328" stroke-miterlimit="10" stroke-linecap="round"/>
<path d="M44.8271 22.4251L46.4494 19.6237" stroke="#FFD9EB" stroke-width="1.5328" stroke-miterlimit="10" stroke-linecap="round"/>
<path d="M49.7969 30.5523L52.0184 28.1981" stroke="#FFD9EB" stroke-width="1.5328" stroke-miterlimit="10" stroke-linecap="round"/>
<path d="M47.938 21.0725L51.7031 23.8662" stroke="#FFD9EB" stroke-width="1.5328" stroke-miterlimit="10" stroke-linecap="round"/>
<path d="M45.4448 24.3813L48.1733 23.5154" stroke="#FFD9EB" stroke-width="1.5328" stroke-miterlimit="10" stroke-linecap="round"/>
<path d="M44.3066 28.7061L45.9157 27.6592" stroke="#FFD9EB" stroke-width="1.5328" stroke-miterlimit="10" stroke-linecap="round"/>
<path d="M41.1235 33.1941L41.8754 31.5498" stroke="#FFD9EB" stroke-width="1.5328" stroke-miterlimit="10" stroke-linecap="round"/>
<path d="M49.7671 25.9369H52.5689" stroke="#FFD9EB" stroke-width="1.5328" stroke-miterlimit="10" stroke-linecap="round"/>
<path d="M47.2603 26.084L48.7347 27.8533" stroke="#FFD9EB" stroke-width="1.5328" stroke-miterlimit="10" stroke-linecap="round"/>
<path d="M46.5284 29.2946L45.353 33.2412" stroke="#FFD9EB" stroke-width="1.5328" stroke-miterlimit="10" stroke-linecap="round"/>
<path d="M38.4468 31.7105L42.3632 28.2052" stroke="#FFD9EB" stroke-width="1.5328" stroke-miterlimit="10" stroke-linecap="round"/>
<path d="M37.9697 21.6615L39.3578 22.2416" stroke="#FFD9EB" stroke-width="1.5328" stroke-miterlimit="10" stroke-linecap="round"/>
<path d="M41.103 22.5269L41.1793 22.9699" stroke="#FFD9EB" stroke-width="1.5328" stroke-miterlimit="10" stroke-linecap="round"/>
<path d="M52.2852 30.5516L52.3614 30.9953" stroke="#FFD9EB" stroke-width="1.5328" stroke-miterlimit="10" stroke-linecap="round"/>
<path d="M40.3984 26.8492L40.4741 27.2929" stroke="#FFD9EB" stroke-width="1.5328" stroke-miterlimit="10" stroke-linecap="round"/>
<path d="M51.7421 19.9803L51.0659 20.5473" stroke="#FFD9EB" stroke-width="1.5328" stroke-miterlimit="10" stroke-linecap="round"/>
<path d="M39.7567 19.6045L39.0806 20.1714" stroke="#FFD9EB" stroke-width="1.5328" stroke-miterlimit="10" stroke-linecap="round"/>
<path d="M43.2656 30.208L44.0186 31.511" stroke="#FFD9EB" stroke-width="1.5328" stroke-miterlimit="10" stroke-linecap="round"/>
<path d="M39.1491 25.4944L38.4116 26.9689" stroke="#FFD9EB" stroke-width="1.5328" stroke-miterlimit="10" stroke-linecap="round"/>
<path d="M48.0322 31.5968L51.3696 32.7712" stroke="#FFD9EB" stroke-width="1.5328" stroke-miterlimit="10" stroke-linecap="round"/>
<path d="M41.3613 39.7122L44.6057 41.4809" stroke="#FFD9EB" stroke-width="1.5328" stroke-miterlimit="10" stroke-linecap="round"/>
<path d="M42.9014 34.7931L43.1313 37.3533" stroke="#FFD9EB" stroke-width="1.5328" stroke-miterlimit="10" stroke-linecap="round"/>
<path d="M44.8271 37.5266L46.4494 34.7258" stroke="#FFD9EB" stroke-width="1.5328" stroke-miterlimit="10" stroke-linecap="round"/>
<path d="M49.7969 45.6544L52.0184 43.3003" stroke="#FFD9EB" stroke-width="1.5328" stroke-miterlimit="10" stroke-linecap="round"/>
<path d="M47.938 36.1747L51.7031 38.9683" stroke="#FFD9EB" stroke-width="1.5328" stroke-miterlimit="10" stroke-linecap="round"/>
<path d="M45.4448 39.4835L48.1733 38.6176" stroke="#FFD9EB" stroke-width="1.5328" stroke-miterlimit="10" stroke-linecap="round"/>
<path d="M44.3066 43.8083L45.9157 42.7614" stroke="#FFD9EB" stroke-width="1.5328" stroke-miterlimit="10" stroke-linecap="round"/>
<path d="M41.1235 48.2962L41.8754 46.652" stroke="#FFD9EB" stroke-width="1.5328" stroke-miterlimit="10" stroke-linecap="round"/>
<path d="M49.7671 41.0391H52.5689" stroke="#FFD9EB" stroke-width="1.5328" stroke-miterlimit="10" stroke-linecap="round"/>
<path d="M47.2603 41.1862L48.7347 42.9555" stroke="#FFD9EB" stroke-width="1.5328" stroke-miterlimit="10" stroke-linecap="round"/>
<path d="M46.5284 44.3966L45.353 48.3432" stroke="#FFD9EB" stroke-width="1.5328" stroke-miterlimit="10" stroke-linecap="round"/>
<path d="M38.4468 46.8127L42.3632 43.3074" stroke="#FFD9EB" stroke-width="1.5328" stroke-miterlimit="10" stroke-linecap="round"/>
<path d="M37.9697 36.7637L39.3578 37.3437" stroke="#FFD9EB" stroke-width="1.5328" stroke-miterlimit="10" stroke-linecap="round"/>
<path d="M41.103 37.629L41.1793 38.0721" stroke="#FFD9EB" stroke-width="1.5328" stroke-miterlimit="10" stroke-linecap="round"/>
<path d="M52.2852 45.6538L52.3614 46.0969" stroke="#FFD9EB" stroke-width="1.5328" stroke-miterlimit="10" stroke-linecap="round"/>
<path d="M40.3984 41.9514L40.4741 42.3945" stroke="#FFD9EB" stroke-width="1.5328" stroke-miterlimit="10" stroke-linecap="round"/>
<path d="M51.7421 35.0825L51.0659 35.6495" stroke="#FFD9EB" stroke-width="1.5328" stroke-miterlimit="10" stroke-linecap="round"/>
<path d="M39.7567 34.7067L39.0806 35.273" stroke="#FFD9EB" stroke-width="1.5328" stroke-miterlimit="10" stroke-linecap="round"/>
<path d="M43.2656 45.3102L44.0186 46.6132" stroke="#FFD9EB" stroke-width="1.5328" stroke-miterlimit="10" stroke-linecap="round"/>
<path d="M39.1491 40.5966L38.4116 42.0705" stroke="#FFD9EB" stroke-width="1.5328" stroke-miterlimit="10" stroke-linecap="round"/>
<path d="M48.0322 46.699L51.3696 47.8734" stroke="#FFD9EB" stroke-width="1.5328" stroke-miterlimit="10" stroke-linecap="round"/>
<path d="M25.8486 9.50781L29.093 11.2771" stroke="#FFD9EB" stroke-width="1.5328" stroke-miterlimit="10" stroke-linecap="round"/>
<path d="M27.3887 4.58875L27.618 7.14954" stroke="#FFD9EB" stroke-width="1.5328" stroke-miterlimit="10" stroke-linecap="round"/>
<path d="M29.3145 7.32277L30.9367 4.52197" stroke="#FFD9EB" stroke-width="1.5328" stroke-miterlimit="10" stroke-linecap="round"/>
<path d="M34.2837 15.4507L36.5058 13.0959" stroke="#FFD9EB" stroke-width="1.5328" stroke-miterlimit="10" stroke-linecap="round"/>
<path d="M32.4253 5.97034L36.1904 8.76399" stroke="#FFD9EB" stroke-width="1.5328" stroke-miterlimit="10" stroke-linecap="round"/>
<path d="M29.9321 9.27973L32.66 8.41382" stroke="#FFD9EB" stroke-width="1.5328" stroke-miterlimit="10" stroke-linecap="round"/>
<path d="M28.7939 13.6046L30.4025 12.557" stroke="#FFD9EB" stroke-width="1.5328" stroke-miterlimit="10" stroke-linecap="round"/>
<path d="M25.6104 18.0925L26.3628 16.4476" stroke="#FFD9EB" stroke-width="1.5328" stroke-miterlimit="10" stroke-linecap="round"/>
<path d="M34.2544 10.8347H37.0562" stroke="#FFD9EB" stroke-width="1.5328" stroke-miterlimit="10" stroke-linecap="round"/>
<path d="M31.7471 10.9824L33.2221 12.7512" stroke="#FFD9EB" stroke-width="1.5328" stroke-miterlimit="10" stroke-linecap="round"/>
<path d="M31.0151 14.1924L29.8403 18.1396" stroke="#FFD9EB" stroke-width="1.5328" stroke-miterlimit="10" stroke-linecap="round"/>
<path d="M22.9341 16.6089L26.8505 13.103" stroke="#FFD9EB" stroke-width="1.5328" stroke-miterlimit="10" stroke-linecap="round"/>
<path d="M22.4565 6.55933L23.8452 7.13997" stroke="#FFD9EB" stroke-width="1.5328" stroke-miterlimit="10" stroke-linecap="round"/>
<path d="M25.5903 7.42468L25.666 7.86836" stroke="#FFD9EB" stroke-width="1.5328" stroke-miterlimit="10" stroke-linecap="round"/>
<path d="M36.7725 15.4495L36.8481 15.8931" stroke="#FFD9EB" stroke-width="1.5328" stroke-miterlimit="10" stroke-linecap="round"/>
<path d="M24.8857 11.7471L24.9614 12.1907" stroke="#FFD9EB" stroke-width="1.5328" stroke-miterlimit="10" stroke-linecap="round"/>
<path d="M36.2294 4.87817L35.5532 5.44512" stroke="#FFD9EB" stroke-width="1.5328" stroke-miterlimit="10" stroke-linecap="round"/>
<path d="M24.244 4.50232L23.5679 5.06927" stroke="#FFD9EB" stroke-width="1.5328" stroke-miterlimit="10" stroke-linecap="round"/>
<path d="M27.7529 15.1058L28.5059 16.4089" stroke="#FFD9EB" stroke-width="1.5328" stroke-miterlimit="10" stroke-linecap="round"/>
<path d="M23.6365 10.3922L22.8989 11.8668" stroke="#FFD9EB" stroke-width="1.5328" stroke-miterlimit="10" stroke-linecap="round"/>
<path d="M32.5195 16.4946L35.8563 17.6696" stroke="#FFD9EB" stroke-width="1.5328" stroke-miterlimit="10" stroke-linecap="round"/>
<path d="M25.8486 24.61L29.093 26.3787" stroke="#FFD9EB" stroke-width="1.5328" stroke-miterlimit="10" stroke-linecap="round"/>
<path d="M27.3887 19.6909L27.618 22.2511" stroke="#FFD9EB" stroke-width="1.5328" stroke-miterlimit="10" stroke-linecap="round"/>
<path d="M29.3145 22.4251L30.9367 19.6237" stroke="#FFD9EB" stroke-width="1.5328" stroke-miterlimit="10" stroke-linecap="round"/>
<path d="M34.2837 30.5523L36.5058 28.1981" stroke="#FFD9EB" stroke-width="1.5328" stroke-miterlimit="10" stroke-linecap="round"/>
<path d="M32.4253 21.0725L36.1904 23.8662" stroke="#FFD9EB" stroke-width="1.5328" stroke-miterlimit="10" stroke-linecap="round"/>
<path d="M29.9321 24.3813L32.66 23.5154" stroke="#FFD9EB" stroke-width="1.5328" stroke-miterlimit="10" stroke-linecap="round"/>
<path d="M28.7939 28.7061L30.4025 27.6592" stroke="#FFD9EB" stroke-width="1.5328" stroke-miterlimit="10" stroke-linecap="round"/>
<path d="M25.6104 33.1941L26.3628 31.5498" stroke="#FFD9EB" stroke-width="1.5328" stroke-miterlimit="10" stroke-linecap="round"/>
<path d="M34.2544 25.9369H37.0562" stroke="#FFD9EB" stroke-width="1.5328" stroke-miterlimit="10" stroke-linecap="round"/>
<path d="M31.7471 26.084L33.2221 27.8533" stroke="#FFD9EB" stroke-width="1.5328" stroke-miterlimit="10" stroke-linecap="round"/>
<path d="M31.0151 29.2946L29.8403 33.2412" stroke="#FFD9EB" stroke-width="1.5328" stroke-miterlimit="10" stroke-linecap="round"/>
<path d="M22.9341 31.7105L26.8505 28.2052" stroke="#FFD9EB" stroke-width="1.5328" stroke-miterlimit="10" stroke-linecap="round"/>
<path d="M22.4565 21.6615L23.8452 22.2416" stroke="#FFD9EB" stroke-width="1.5328" stroke-miterlimit="10" stroke-linecap="round"/>
<path d="M25.5903 22.5269L25.666 22.9699" stroke="#FFD9EB" stroke-width="1.5328" stroke-miterlimit="10" stroke-linecap="round"/>
<path d="M36.7725 30.5516L36.8481 30.9953" stroke="#FFD9EB" stroke-width="1.5328" stroke-miterlimit="10" stroke-linecap="round"/>
<path d="M24.8857 26.8492L24.9614 27.2929" stroke="#FFD9EB" stroke-width="1.5328" stroke-miterlimit="10" stroke-linecap="round"/>
<path d="M36.2294 19.9803L35.5532 20.5473" stroke="#FFD9EB" stroke-width="1.5328" stroke-miterlimit="10" stroke-linecap="round"/>
<path d="M24.244 19.6045L23.5679 20.1714" stroke="#FFD9EB" stroke-width="1.5328" stroke-miterlimit="10" stroke-linecap="round"/>
<path d="M27.7529 30.208L28.5059 31.511" stroke="#FFD9EB" stroke-width="1.5328" stroke-miterlimit="10" stroke-linecap="round"/>
<path d="M23.6365 25.4944L22.8989 26.9689" stroke="#FFD9EB" stroke-width="1.5328" stroke-miterlimit="10" stroke-linecap="round"/>
<path d="M32.5195 31.5968L35.8563 32.7712" stroke="#FFD9EB" stroke-width="1.5328" stroke-miterlimit="10" stroke-linecap="round"/>
<path d="M25.8486 39.7122L29.093 41.4809" stroke="#FFD9EB" stroke-width="1.5328" stroke-miterlimit="10" stroke-linecap="round"/>
<path d="M27.3887 34.7931L27.618 37.3533" stroke="#FFD9EB" stroke-width="1.5328" stroke-miterlimit="10" stroke-linecap="round"/>
<path d="M29.3145 37.5266L30.9367 34.7258" stroke="#FFD9EB" stroke-width="1.5328" stroke-miterlimit="10" stroke-linecap="round"/>
<path d="M34.2837 45.6544L36.5058 43.3003" stroke="#FFD9EB" stroke-width="1.5328" stroke-miterlimit="10" stroke-linecap="round"/>
<path d="M32.4253 36.1747L36.1904 38.9683" stroke="#FFD9EB" stroke-width="1.5328" stroke-miterlimit="10" stroke-linecap="round"/>
<path d="M29.9321 39.4835L32.66 38.6176" stroke="#FFD9EB" stroke-width="1.5328" stroke-miterlimit="10" stroke-linecap="round"/>
<path d="M28.7939 43.8083L30.4025 42.7614" stroke="#FFD9EB" stroke-width="1.5328" stroke-miterlimit="10" stroke-linecap="round"/>
<path d="M25.6104 48.2962L26.3628 46.652" stroke="#FFD9EB" stroke-width="1.5328" stroke-miterlimit="10" stroke-linecap="round"/>
<path d="M34.2544 41.0391H37.0562" stroke="#FFD9EB" stroke-width="1.5328" stroke-miterlimit="10" stroke-linecap="round"/>
<path d="M31.7471 41.1862L33.2221 42.9555" stroke="#FFD9EB" stroke-width="1.5328" stroke-miterlimit="10" stroke-linecap="round"/>
<path d="M31.0151 44.3966L29.8403 48.3432" stroke="#FFD9EB" stroke-width="1.5328" stroke-miterlimit="10" stroke-linecap="round"/>
<path d="M22.9341 46.8127L26.8505 43.3074" stroke="#FFD9EB" stroke-width="1.5328" stroke-miterlimit="10" stroke-linecap="round"/>
<path d="M22.4565 36.7637L23.8452 37.3437" stroke="#FFD9EB" stroke-width="1.5328" stroke-miterlimit="10" stroke-linecap="round"/>
<path d="M25.5903 37.629L25.666 38.0721" stroke="#FFD9EB" stroke-width="1.5328" stroke-miterlimit="10" stroke-linecap="round"/>
<path d="M36.7725 45.6538L36.8481 46.0969" stroke="#FFD9EB" stroke-width="1.5328" stroke-miterlimit="10" stroke-linecap="round"/>
<path d="M24.8857 41.9514L24.9614 42.3945" stroke="#FFD9EB" stroke-width="1.5328" stroke-miterlimit="10" stroke-linecap="round"/>
<path d="M36.2294 35.0825L35.5532 35.6495" stroke="#FFD9EB" stroke-width="1.5328" stroke-miterlimit="10" stroke-linecap="round"/>
<path d="M24.244 34.7067L23.5679 35.273" stroke="#FFD9EB" stroke-width="1.5328" stroke-miterlimit="10" stroke-linecap="round"/>
<path d="M27.7529 45.3102L28.5059 46.6132" stroke="#FFD9EB" stroke-width="1.5328" stroke-miterlimit="10" stroke-linecap="round"/>
<path d="M23.6365 40.5966L22.8989 42.0705" stroke="#FFD9EB" stroke-width="1.5328" stroke-miterlimit="10" stroke-linecap="round"/>
<path d="M32.5195 46.699L35.8563 47.8734" stroke="#FFD9EB" stroke-width="1.5328" stroke-miterlimit="10" stroke-linecap="round"/>
</g>
<path d="M43.2129 24.8214V88.5436" stroke="#F2F2F2" stroke-miterlimit="10"/>
<path d="M55.1279 24.8214V88.5436" stroke="#F2F2F2" stroke-miterlimit="10"/>
<path d="M65.2554 23.6304V88.5436" stroke="#F2F2F2" stroke-miterlimit="10"/>
<path d="M76.5747 1V88.5436" stroke="#F2F2F2" stroke-miterlimit="10"/>
<path d="M87.2979 1V88.5436" stroke="#F2F2F2" stroke-miterlimit="10"/>
<path d="M99.8086 1V88.5436" stroke="#F2F2F2" stroke-miterlimit="10"/>
<path d="M110.532 1V88.5436" stroke="#F2F2F2" stroke-miterlimit="10"/>
<path d="M121.255 1V88.5436" stroke="#F2F2F2" stroke-miterlimit="10"/>
<path d="M132.575 1V88.5436" stroke="#F2F2F2" stroke-miterlimit="10"/>
<path d="M143.298 1V88.5436" stroke="#F2F2F2" stroke-miterlimit="10"/>
<path d="M154.617 1V88.5436" stroke="#F2F2F2" stroke-miterlimit="10"/>
<path d="M165.34 1V88.5436" stroke="#F2F2F2" stroke-miterlimit="10"/>
<path d="M177.255 1V88.5436" stroke="#F2F2F2" stroke-miterlimit="10"/>
<path d="M187.383 1V88.5436" stroke="#F2F2F2" stroke-miterlimit="10"/>
<path d="M64.9575 12.0173H198.404" stroke="#F2F2F2" stroke-miterlimit="10"/>
<path d="M44.7026 23.9281H198.404" stroke="#F2F2F2" stroke-miterlimit="10"/>
<path d="M44.7026 34.0521H198.404" stroke="#F2F2F2" stroke-miterlimit="10"/>
<path d="M45.894 45.3673H198.404" stroke="#F2F2F2" stroke-miterlimit="10"/>
<path d="M32.7876 56.0869H198.404" stroke="#F2F2F2" stroke-miterlimit="10"/>
<path d="M32.7876 66.8066H198.404" stroke="#F2F2F2" stroke-miterlimit="10"/>
<path d="M32.7876 78.7173H198.404" stroke="#F2F2F2" stroke-miterlimit="10"/>
<path d="M199 29.5481H49.9292V117.667H199V29.5481Z" fill="url(#paint0_linear)"/>
<path d="M190.472 25.9268H44.4409V110.883H190.472V25.9268Z" fill="white"/>
<path d="M186.175 24.4015H42.9155V107.612H186.175V24.4015Z" stroke="#0650F5" stroke-width="2" stroke-miterlimit="10"/>
<path d="M54.394 75.374H84.3403" stroke="#0650F5" stroke-width="2" stroke-miterlimit="10" stroke-linecap="round" stroke-linejoin="round"/>
<path d="M54.394 79.7422H66.3119" stroke="#0650F5" stroke-width="2" stroke-miterlimit="10" stroke-linecap="round" stroke-linejoin="round"/>
<path d="M54.394 84.1105H75.9826" stroke="#0650F5" stroke-width="2" stroke-miterlimit="10" stroke-linecap="round" stroke-linejoin="round"/>
<path d="M94.2922 48.5386H56.0044V70.7776H94.2922V48.5386Z" fill="#F7F8F9"/>
<path d="M92.6818 46.9294H54.394V69.1685H92.6818V46.9294Z" stroke="#0650F5" stroke-width="2" stroke-miterlimit="10" stroke-linecap="round" stroke-linejoin="round"/>
<path d="M57.487 37.349C59.1739 37.349 60.5414 35.982 60.5414 34.2957C60.5414 32.6094 59.1739 31.2424 57.487 31.2424C55.8001 31.2424 54.4326 32.6094 54.4326 34.2957C54.4326 35.982 55.8001 37.349 57.487 37.349Z" fill="#E9E9E9"/>
<path d="M65.9714 37.349C67.6583 37.349 69.0257 35.982 69.0257 34.2957C69.0257 32.6094 67.6583 31.2424 65.9714 31.2424C64.2845 31.2424 62.917 32.6094 62.917 34.2957C62.917 35.982 64.2845 37.349 65.9714 37.349Z" fill="#E9E9E9"/>
<path d="M74.4567 37.349C76.1436 37.349 77.5111 35.982 77.5111 34.2957C77.5111 32.6094 76.1436 31.2424 74.4567 31.2424C72.7698 31.2424 71.4023 32.6094 71.4023 34.2957C71.4023 35.982 72.7698 37.349 74.4567 37.349Z" fill="#E9E9E9"/>
<path d="M101.543 46.7555V100.648" stroke="#0650F5" stroke-width="1.0249" stroke-miterlimit="10" stroke-linecap="round" stroke-linejoin="round"/>
<path d="M180.399 46.7555H110.165V84.0991H180.399V46.7555Z" stroke="#0650F5" stroke-width="2" stroke-miterlimit="10"/>
<path d="M112.533 74.8082L122.607 77.1802L126.945 72.7423H132.641L136.359 71.0045L138.7 67.9072L145.991 64.7526L155.875 66.5309L165.836 61.7642L177.95 48.7161" stroke="url(#paint1_linear)" stroke-width="3" stroke-miterlimit="10" stroke-linecap="round" stroke-linejoin="round"/>
<path d="M178.547 34.2957C178.547 35.9817 177.18 37.349 175.493 37.349H119.026C117.34 37.349 115.972 35.9823 115.972 34.2957C115.972 32.6098 117.339 31.2424 119.026 31.2424H175.493C177.18 31.2424 178.547 32.6092 178.547 34.2957Z" fill="url(#paint2_linear)"/>
<path d="M96.2452 96.276C96.2452 99.343 93.758 101.829 90.6905 101.829H57.211C54.1429 101.829 51.6562 99.3424 51.6562 96.276C51.6562 93.209 54.1435 90.7233 57.211 90.7233H90.6911C93.7586 90.7233 96.2452 93.2096 96.2452 96.276Z" fill="url(#paint3_linear)"/>
<path d="M68.6746 122.489H57.7505V133.409H68.6746V122.489Z" stroke="#E9E9E9" stroke-miterlimit="10"/>
<path d="M83.1151 122.489H72.1909V133.409H83.1151V122.489Z" stroke="#E9E9E9" stroke-miterlimit="10"/>
<path d="M97.555 122.489H86.6309V133.409H97.555V122.489Z" stroke="#E9E9E9" stroke-miterlimit="10"/>
<path d="M111.995 122.489H101.071V133.409H111.995V122.489Z" stroke="#E9E9E9" stroke-miterlimit="10"/>
<path d="M126.435 122.489H115.511V133.409H126.435V122.489Z" stroke="#E9E9E9" stroke-miterlimit="10"/>
<path d="M140.876 122.489H129.952V133.409H140.876V122.489Z" stroke="#E9E9E9" stroke-miterlimit="10"/>
<path d="M155.315 122.489H144.391V133.409H155.315V122.489Z" stroke="#E9E9E9" stroke-miterlimit="10"/>
<path d="M169.756 122.489H158.832V133.409H169.756V122.489Z" stroke="#E9E9E9" stroke-miterlimit="10"/>
<path d="M184.196 122.489H173.271V133.409H184.196V122.489Z" stroke="#E9E9E9" stroke-miterlimit="10"/>
<path d="M128.486 93.2484C129.839 93.2484 130.936 92.1517 130.936 90.7989C130.936 89.4461 129.839 88.3495 128.486 88.3495C127.133 88.3495 126.036 89.4461 126.036 90.7989C126.036 92.1517 127.133 93.2484 128.486 93.2484Z" fill="#D37AA7"/>
<path d="M112.513 93.2484C113.866 93.2484 114.963 92.1517 114.963 90.7989C114.963 89.4461 113.866 88.3495 112.513 88.3495C111.16 88.3495 110.062 89.4461 110.062 90.7989C110.062 92.1517 111.16 93.2484 112.513 93.2484Z" fill="#FFD9EB"/>
<path d="M120.5 93.2484C121.853 93.2484 122.95 92.1517 122.95 90.7989C122.95 89.4461 121.853 88.3495 120.5 88.3495C119.146 88.3495 118.049 89.4461 118.049 90.7989C118.049 92.1517 119.146 93.2484 120.5 93.2484Z" fill="#FD91C2"/>
<path d="M136.473 93.2484C137.826 93.2484 138.923 92.1517 138.923 90.7989C138.923 89.4461 137.826 88.3495 136.473 88.3495C135.119 88.3495 134.022 89.4461 134.022 90.7989C134.022 92.1517 135.119 93.2484 136.473 93.2484Z" fill="#FD91C2"/>
<path d="M144.593 93.2484C145.947 93.2484 147.044 92.1517 147.044 90.7989C147.044 89.4461 145.947 88.3495 144.593 88.3495C143.24 88.3495 142.143 89.4461 142.143 90.7989C142.143 92.1517 143.24 93.2484 144.593 93.2484Z" fill="#FFD9EB"/>
<path d="M152.58 93.2484C153.933 93.2484 155.03 92.1517 155.03 90.7989C155.03 89.4461 153.933 88.3495 152.58 88.3495C151.226 88.3495 150.129 89.4461 150.129 90.7989C150.129 92.1517 151.226 93.2484 152.58 93.2484Z" fill="#FFD9EB"/>
<path d="M128.486 100.648C129.839 100.648 130.936 99.5518 130.936 98.1991C130.936 96.8463 129.839 95.7496 128.486 95.7496C127.133 95.7496 126.036 96.8463 126.036 98.1991C126.036 99.5518 127.133 100.648 128.486 100.648Z" fill="#FD6125"/>
<path d="M112.513 100.648C113.866 100.648 114.963 99.5518 114.963 98.1991C114.963 96.8463 113.866 95.7496 112.513 95.7496C111.16 95.7496 110.062 96.8463 110.062 98.1991C110.062 99.5518 111.16 100.648 112.513 100.648Z" fill="#FD91C2"/>
<path d="M120.5 100.648C121.853 100.648 122.95 99.5518 122.95 98.1991C122.95 96.8463 121.853 95.7496 120.5 95.7496C119.146 95.7496 118.049 96.8463 118.049 98.1991C118.049 99.5518 119.146 100.648 120.5 100.648Z" fill="#FD6125"/>
<path d="M136.473 100.648C137.826 100.648 138.923 99.5518 138.923 98.1991C138.923 96.8463 137.826 95.7496 136.473 95.7496C135.119 95.7496 134.022 96.8463 134.022 98.1991C134.022 99.5518 135.119 100.648 136.473 100.648Z" fill="#FD91C2"/>
<path d="M144.593 100.648C145.947 100.648 147.044 99.5518 147.044 98.1991C147.044 96.8463 145.947 95.7496 144.593 95.7496C143.24 95.7496 142.143 96.8463 142.143 98.1991C142.143 99.5518 143.24 100.648 144.593 100.648Z" fill="#FFD9EB"/>
<path d="M152.58 100.648C153.933 100.648 155.03 99.5518 155.03 98.1991C155.03 96.8463 153.933 95.7496 152.58 95.7496C151.226 95.7496 150.129 96.8463 150.129 98.1991C150.129 99.5518 151.226 100.648 152.58 100.648Z" fill="#FFD9EB"/>
</g>
<defs>
<linearGradient id="paint0_linear" x1="93.3611" y1="19.7539" x2="176.69" y2="164.135" gradientUnits="userSpaceOnUse">
<stop offset="0.1929" stop-color="#CBDDFD"/>
<stop offset="0.331" stop-color="#C9D9FC"/>
<stop offset="0.4809" stop-color="#C3CCF9"/>
<stop offset="0.6365" stop-color="#B9B6F5"/>
<stop offset="0.7957" stop-color="#AC97EE"/>
<stop offset="0.9565" stop-color="#9A71E6"/>
<stop offset="1" stop-color="#9565E3"/>
</linearGradient>
<linearGradient id="paint1_linear" x1="111.639" y1="62.9482" x2="178.844" y2="62.9482" gradientUnits="userSpaceOnUse">
<stop offset="0.1929" stop-color="#CBDDFD"/>
<stop offset="0.331" stop-color="#C9D9FC"/>
<stop offset="0.4809" stop-color="#C3CCF9"/>
<stop offset="0.6365" stop-color="#B9B6F5"/>
<stop offset="0.7957" stop-color="#AC97EE"/>
<stop offset="0.9565" stop-color="#9A71E6"/>
<stop offset="1" stop-color="#9565E3"/>
</linearGradient>
<linearGradient id="paint2_linear" x1="115.972" y1="34.2956" x2="178.547" y2="34.2956" gradientUnits="userSpaceOnUse">
<stop offset="0.1929" stop-color="#CBDDFD"/>
<stop offset="0.331" stop-color="#C9D9FC"/>
<stop offset="0.4809" stop-color="#C3CCF9"/>
<stop offset="0.6365" stop-color="#B9B6F5"/>
<stop offset="0.7957" stop-color="#AC97EE"/>
<stop offset="0.9565" stop-color="#9A71E6"/>
<stop offset="1" stop-color="#9565E3"/>
</linearGradient>
<linearGradient id="paint3_linear" x1="51.6559" y1="96.2761" x2="96.2454" y2="96.2761" gradientUnits="userSpaceOnUse">
<stop offset="0.1929" stop-color="#CBDDFD"/>
<stop offset="0.331" stop-color="#C9D9FC"/>
<stop offset="0.4809" stop-color="#C3CCF9"/>
<stop offset="0.6365" stop-color="#B9B6F5"/>
<stop offset="0.7957" stop-color="#AC97EE"/>
<stop offset="0.9565" stop-color="#9A71E6"/>
<stop offset="1" stop-color="#9565E3"/>
</linearGradient>
<clipPath id="clip0">
<rect width="177" height="147" fill="white" transform="translate(22 1)"/>
</clipPath>
</defs>
</svg>
