<svg width="220" height="150" viewBox="0 0 220 150" fill="none" xmlns="http://www.w3.org/2000/svg">
<path d="M208.25 34.1451H94.6631V107.804H208.25V34.1451Z" fill="url(#paint0_linear)"/>
<path d="M204.655 30.0688H78.2915V103.77H204.655V30.0688Z" fill="white"/>
<path d="M99.9185 44.4143V47.231H100.726C101.218 47.231 101.596 47.1128 101.859 46.8764C102.128 46.6335 102.262 46.2888 102.262 45.8423C102.262 45.3827 102.128 45.0315 101.859 44.7885C101.596 44.539 101.218 44.4143 100.726 44.4143H99.9185ZM94.8366 55.1198V40.7014H101.356C103.247 40.7014 104.692 41.1183 105.69 41.9521C106.688 42.786 107.187 43.9875 107.187 45.5567C107.187 46.581 106.934 47.4247 106.428 48.0878C105.929 48.751 105.253 49.1383 104.4 49.25L108.25 55.1198H102.44L99.9185 50.3629V55.1198H94.8366ZM109.275 55.1198V40.7014H118.916V44.6113H114.357V45.9999H118.493V49.6932H114.357V51.2098H119.035V55.1198H109.275ZM119.823 53.8887L121.477 49.8507C122.219 50.3694 122.879 50.7502 123.457 50.9932C124.041 51.2295 124.586 51.3477 125.092 51.3477C125.446 51.3477 125.725 51.2821 125.929 51.1508C126.132 51.0129 126.234 50.829 126.234 50.5992C126.234 50.1987 125.725 49.8934 124.707 49.6833C124.379 49.6111 124.123 49.5553 123.939 49.5159C122.862 49.2532 122.038 48.7871 121.467 48.1174C120.896 47.4477 120.61 46.6138 120.61 45.6158C120.61 44.0663 121.165 42.8057 122.275 41.8339C123.384 40.8622 124.839 40.3763 126.638 40.3763C127.465 40.3763 128.279 40.4847 129.08 40.7014C129.881 40.918 130.689 41.2463 131.503 41.6862L129.927 45.4582C129.428 45.0906 128.926 44.8115 128.42 44.6211C127.921 44.4241 127.436 44.3256 126.963 44.3256C126.602 44.3256 126.323 44.388 126.126 44.5128C125.929 44.631 125.83 44.7984 125.83 45.0151C125.83 45.4221 126.549 45.78 127.987 46.0886C128.217 46.1411 128.394 46.1805 128.519 46.2067C129.51 46.43 130.292 46.8863 130.863 47.5757C131.434 48.2651 131.72 49.099 131.72 50.0773C131.72 51.6727 131.142 52.976 129.986 53.9872C128.837 54.9983 127.34 55.5038 125.495 55.5038C124.55 55.5038 123.604 55.3692 122.659 55.1001C121.713 54.8309 120.768 54.4271 119.823 53.8887ZM133.305 48.5212V40.7014H138.486V48.5606C138.486 49.4732 138.594 50.1035 138.811 50.4515C139.027 50.7929 139.398 50.9636 139.924 50.9636C140.442 50.9636 140.813 50.7864 141.037 50.4318C141.26 50.0773 141.371 49.4535 141.371 48.5606V40.7014H146.552V48.5212C146.552 49.5454 146.483 50.3891 146.345 51.0523C146.214 51.7154 146 52.2702 145.705 52.7167C145.127 53.6162 144.339 54.3056 143.341 54.7849C142.343 55.2642 141.204 55.5038 139.924 55.5038C138.637 55.5038 137.494 55.2642 136.496 54.7849C135.498 54.3056 134.71 53.6162 134.133 52.7167C133.844 52.2768 133.634 51.7285 133.502 51.072C133.371 50.4154 133.305 49.5651 133.305 48.5212ZM149.24 55.1198V40.7014H154.431V50.4417H159.473V55.1198H149.24ZM162.191 55.1198V45.4188H159.306V40.7014H170.257V45.4188H167.372V55.1198H162.191ZM93.5267 77.8887L95.1813 73.8507C95.9232 74.3694 96.5831 74.7502 97.1608 74.9932C97.7452 75.2295 98.2902 75.3477 98.7957 75.3477C99.1503 75.3477 99.4293 75.2821 99.6329 75.1508C99.8364 75.0129 99.9382 74.829 99.9382 74.5992C99.9382 74.1987 99.4293 73.8934 98.4116 73.6833C98.0833 73.6111 97.8273 73.5553 97.6434 73.5159C96.5666 73.2532 95.7426 72.7871 95.1714 72.1174C94.6002 71.4477 94.3146 70.6138 94.3146 69.6158C94.3146 68.0663 94.8694 66.8057 95.979 65.8339C97.0886 64.8622 98.5429 64.3763 100.342 64.3763C101.169 64.3763 101.983 64.4847 102.784 64.7014C103.585 64.918 104.393 65.2463 105.207 65.6862L103.631 69.4582C103.132 69.0906 102.63 68.8115 102.125 68.6211C101.626 68.4241 101.14 68.3256 100.667 68.3256C100.306 68.3256 100.027 68.388 99.8298 68.5128C99.6329 68.631 99.5344 68.7984 99.5344 69.0151C99.5344 69.4221 100.253 69.78 101.691 70.0886C101.921 70.1411 102.098 70.1805 102.223 70.2067C103.214 70.43 103.996 70.8863 104.567 71.5757C105.138 72.2651 105.424 73.099 105.424 74.0773C105.424 75.6727 104.846 76.976 103.69 77.9872C102.541 78.9983 101.044 79.5038 99.1995 79.5038C98.254 79.5038 97.3086 79.3692 96.3631 79.1001C95.4176 78.8309 94.4722 78.4271 93.5267 77.8887Z" fill="#3575F7"/>
<path d="M200.897 28.567H76.9316V100.753H200.897V28.567Z" stroke="#0650F5" stroke-width="2" stroke-miterlimit="10"/>
<path d="M3.58105 83.0531C15.5377 62.6115 42.3974 45.2314 67.7485 45.2314C119.142 45.2314 132.889 83.0531 132.889 83.0531L81.4722 118.611" fill="white"/>
<mask id="mask0" mask-type="alpha" maskUnits="userSpaceOnUse" x="13" y="46" width="113" height="59">
<path d="M13.8633 70.0095C25.8784 54.6719 39.2121 46.0685 69.4571 46.0685C112.131 46.0685 125.39 72.5984 125.39 72.5984L68.2141 104.103" fill="white"/>
</mask>
<g mask="url(#mask0)">
<path d="M68.9804 185.418C32.2603 185.418 2.38672 155.479 2.38672 118.679C2.38672 81.8783 32.2603 51.9388 68.9804 51.9388C105.701 51.9388 135.575 81.8783 135.575 118.679C135.575 155.479 105.701 185.418 68.9804 185.418ZM68.9804 59.2327C36.2736 59.2327 9.66465 85.9003 9.66465 118.679C9.66465 151.457 36.2741 178.124 68.9804 178.124C101.688 178.124 128.297 151.457 128.297 118.679C128.297 85.9003 101.688 59.2327 68.9804 59.2327Z" fill="url(#paint1_linear)"/>
<path d="M68.9806 167.971C42.1438 167.971 20.3101 146.09 20.3101 119.194C20.3101 92.2977 42.1438 70.4163 68.9806 70.4163C95.8179 70.4163 117.652 92.2977 117.652 119.194C117.652 146.09 95.8179 167.971 68.9806 167.971ZM68.9806 77.7106C46.1566 77.7106 27.588 96.3197 27.588 119.194C27.588 142.069 46.1566 160.678 68.9806 160.678C91.8052 160.678 110.374 142.069 110.374 119.194C110.374 96.3197 91.8052 77.7106 68.9806 77.7106Z" fill="url(#paint2_linear)"/>
<path d="M68.9803 150.101C52.2252 150.101 38.5947 136.44 38.5947 119.649C38.5947 102.858 52.2252 89.1974 68.9803 89.1974C85.7353 89.1974 99.3658 102.858 99.3658 119.649C99.3658 136.44 85.7353 150.101 68.9803 150.101ZM68.9803 96.4917C56.239 96.4917 45.8727 106.881 45.8727 119.65C45.8727 132.419 56.239 142.808 68.9803 142.808C81.7215 142.808 92.0878 132.419 92.0878 119.65C92.0878 106.881 81.7215 96.4917 68.9803 96.4917Z" fill="url(#paint3_linear)"/>
</g>
<path d="M77.6639 115.359L125.293 78.9335L72.4315 107.907C70.5468 107.445 68.4807 107.771 66.7754 108.986C63.6596 111.206 62.9297 115.537 65.1448 118.66C67.3599 121.783 71.6819 122.514 74.7977 120.294C76.4839 119.092 77.4644 117.271 77.6639 115.359Z" fill="#FD6125"/>
<path d="M183.191 54.7944H177.537V77.5914H183.191V54.7944Z" fill="#CBDDFD"/>
<path d="M173.153 64.7025H167.499V77.5915H173.153V64.7025Z" fill="#CBDDFD"/>
<path d="M163.352 72.1281H157.698V77.592H163.352V72.1281Z" fill="#FD91C2"/>
<path d="M153.552 75.3518H147.898V77.5914H153.552V75.3518Z" fill="#FD91C2"/>
<path d="M192.753 36.1667H187.099V77.5915H192.753V36.1667Z" fill="url(#paint4_linear)"/>
<path d="M137.142 111.105V116.322H120.15C118.916 116.322 117.916 117.324 117.916 118.56C117.916 119.797 118.916 120.799 120.15 120.799H164.477C165.711 120.799 166.711 119.797 166.711 118.56C166.711 117.324 165.711 116.322 164.477 116.322H147.109V111.105" stroke="#0650F5" stroke-width="2" stroke-miterlimit="10"/>
<path d="M192.787 85.5682H147.992" stroke="#0650F5" stroke-width="1.0249" stroke-miterlimit="10" stroke-linecap="round" stroke-linejoin="round"/>
<path d="M192.787 89.1919H166.737" stroke="#0650F5" stroke-width="1.0249" stroke-miterlimit="10" stroke-linecap="round" stroke-linejoin="round"/>
<path d="M192.787 92.8151H159.118" stroke="#0650F5" stroke-width="1.0249" stroke-miterlimit="10" stroke-linecap="round" stroke-linejoin="round"/>
<defs>
<linearGradient id="paint0_linear" x1="126.626" y1="27.8735" x2="193.401" y2="143.279" gradientUnits="userSpaceOnUse">
<stop offset="0.3646" stop-color="#FFD9EB"/>
<stop offset="0.4302" stop-color="#FFD2DF"/>
<stop offset="0.5493" stop-color="#FFBEBF"/>
<stop offset="0.7084" stop-color="#FE9E8A"/>
<stop offset="0.8993" stop-color="#FD7343"/>
<stop offset="0.9736" stop-color="#FD6125"/>
</linearGradient>
<linearGradient id="paint1_linear" x1="2.38651" y1="118.679" x2="135.575" y2="118.679" gradientUnits="userSpaceOnUse">
<stop offset="0.3646" stop-color="#FFD9EB"/>
<stop offset="0.4302" stop-color="#FFD2DF"/>
<stop offset="0.5493" stop-color="#FFBEBF"/>
<stop offset="0.7084" stop-color="#FE9E8A"/>
<stop offset="0.8993" stop-color="#FD7343"/>
<stop offset="0.9736" stop-color="#FD6125"/>
</linearGradient>
<linearGradient id="paint2_linear" x1="20.3101" y1="119.194" x2="117.652" y2="119.194" gradientUnits="userSpaceOnUse">
<stop offset="0.3646" stop-color="#FFD9EB"/>
<stop offset="0.4302" stop-color="#FFD2DF"/>
<stop offset="0.5493" stop-color="#FFBEBF"/>
<stop offset="0.7084" stop-color="#FE9E8A"/>
<stop offset="0.8993" stop-color="#FD7343"/>
<stop offset="0.9736" stop-color="#FD6125"/>
</linearGradient>
<linearGradient id="paint3_linear" x1="38.5948" y1="119.65" x2="99.3657" y2="119.65" gradientUnits="userSpaceOnUse">
<stop offset="0.3646" stop-color="#FFD9EB"/>
<stop offset="0.4302" stop-color="#FFD2DF"/>
<stop offset="0.5493" stop-color="#FFBEBF"/>
<stop offset="0.7084" stop-color="#FE9E8A"/>
<stop offset="0.8993" stop-color="#FD7343"/>
<stop offset="0.9736" stop-color="#FD6125"/>
</linearGradient>
<linearGradient id="paint4_linear" x1="189.926" y1="35.5732" x2="189.926" y2="79.7842" gradientUnits="userSpaceOnUse">
<stop stop-color="#00F1F1"/>
<stop offset="0.9974" stop-color="#3575F7"/>
</linearGradient>
</defs>
</svg>
