<svg width="220" height="150" viewBox="0 0 220 150" fill="none" xmlns="http://www.w3.org/2000/svg">
<path d="M197.053 30.8663L199.805 32.3735" stroke="#FFD9EB" stroke-width="1.5328" stroke-miterlimit="10" stroke-linecap="round"/>
<path d="M198.359 26.6748L198.554 28.8563" stroke="#FFD9EB" stroke-width="1.5328" stroke-miterlimit="10" stroke-linecap="round"/>
<path d="M199.993 29.004L201.369 26.6174" stroke="#FFD9EB" stroke-width="1.5328" stroke-miterlimit="10" stroke-linecap="round"/>
<path d="M204.208 35.9296L206.092 33.9237" stroke="#FFD9EB" stroke-width="1.5328" stroke-miterlimit="10" stroke-linecap="round"/>
<path d="M202.632 27.8516L205.825 30.2325" stroke="#FFD9EB" stroke-width="1.5328" stroke-miterlimit="10" stroke-linecap="round"/>
<path d="M200.517 30.6714L202.831 29.9336" stroke="#FFD9EB" stroke-width="1.5328" stroke-miterlimit="10" stroke-linecap="round"/>
<path d="M199.551 34.3566L200.916 33.4645" stroke="#FFD9EB" stroke-width="1.5328" stroke-miterlimit="10" stroke-linecap="round"/>
<path d="M196.851 38.1807L197.489 36.7797" stroke="#FFD9EB" stroke-width="1.5328" stroke-miterlimit="10" stroke-linecap="round"/>
<path d="M204.183 31.9963H206.56" stroke="#FFD9EB" stroke-width="1.5328" stroke-miterlimit="10" stroke-linecap="round"/>
<path d="M202.057 32.1222L203.307 33.6293" stroke="#FFD9EB" stroke-width="1.5328" stroke-miterlimit="10" stroke-linecap="round"/>
<path d="M201.436 34.8579L200.439 38.2208" stroke="#FFD9EB" stroke-width="1.5328" stroke-miterlimit="10" stroke-linecap="round"/>
<path d="M194.581 36.9167L197.903 33.9298" stroke="#FFD9EB" stroke-width="1.5328" stroke-miterlimit="10" stroke-linecap="round"/>
<path d="M194.176 28.354L195.354 28.8483" stroke="#FFD9EB" stroke-width="1.5328" stroke-miterlimit="10" stroke-linecap="round"/>
<path d="M196.834 29.0907L196.899 29.4687" stroke="#FFD9EB" stroke-width="1.5328" stroke-miterlimit="10" stroke-linecap="round"/>
<path d="M206.319 35.9291L206.384 36.3066" stroke="#FFD9EB" stroke-width="1.5328" stroke-miterlimit="10" stroke-linecap="round"/>
<path d="M196.236 32.7743L196.301 33.1518" stroke="#FFD9EB" stroke-width="1.5328" stroke-miterlimit="10" stroke-linecap="round"/>
<path d="M205.858 26.9214L205.285 27.404" stroke="#FFD9EB" stroke-width="1.5328" stroke-miterlimit="10" stroke-linecap="round"/>
<path d="M195.692 26.6007L195.119 27.0838" stroke="#FFD9EB" stroke-width="1.5328" stroke-miterlimit="10" stroke-linecap="round"/>
<path d="M198.668 35.6364L199.307 36.7466" stroke="#FFD9EB" stroke-width="1.5328" stroke-miterlimit="10" stroke-linecap="round"/>
<path d="M195.177 31.6199L194.551 32.8758" stroke="#FFD9EB" stroke-width="1.5328" stroke-miterlimit="10" stroke-linecap="round"/>
<path d="M202.711 36.8197L205.542 37.8204" stroke="#FFD9EB" stroke-width="1.5328" stroke-miterlimit="10" stroke-linecap="round"/>
<path d="M197.053 43.7343L199.805 45.2419" stroke="#FFD9EB" stroke-width="1.5328" stroke-miterlimit="10" stroke-linecap="round"/>
<path d="M198.359 39.5427L198.554 41.7248" stroke="#FFD9EB" stroke-width="1.5328" stroke-miterlimit="10" stroke-linecap="round"/>
<path d="M199.993 41.8724L201.369 39.4858" stroke="#FFD9EB" stroke-width="1.5328" stroke-miterlimit="10" stroke-linecap="round"/>
<path d="M204.208 48.7981L206.092 46.7916" stroke="#FFD9EB" stroke-width="1.5328" stroke-miterlimit="10" stroke-linecap="round"/>
<path d="M202.632 40.72L205.825 43.1004" stroke="#FFD9EB" stroke-width="1.5328" stroke-miterlimit="10" stroke-linecap="round"/>
<path d="M200.517 43.5398L202.831 42.802" stroke="#FFD9EB" stroke-width="1.5328" stroke-miterlimit="10" stroke-linecap="round"/>
<path d="M199.551 47.225L200.916 46.3324" stroke="#FFD9EB" stroke-width="1.5328" stroke-miterlimit="10" stroke-linecap="round"/>
<path d="M196.851 51.0492L197.489 49.6476" stroke="#FFD9EB" stroke-width="1.5328" stroke-miterlimit="10" stroke-linecap="round"/>
<path d="M204.183 44.8647H206.56" stroke="#FFD9EB" stroke-width="1.5328" stroke-miterlimit="10" stroke-linecap="round"/>
<path d="M202.057 44.9907L203.307 46.4978" stroke="#FFD9EB" stroke-width="1.5328" stroke-miterlimit="10" stroke-linecap="round"/>
<path d="M201.436 47.7263L200.439 51.0892" stroke="#FFD9EB" stroke-width="1.5328" stroke-miterlimit="10" stroke-linecap="round"/>
<path d="M194.581 49.7851L197.903 46.7982" stroke="#FFD9EB" stroke-width="1.5328" stroke-miterlimit="10" stroke-linecap="round"/>
<path d="M194.176 41.2223L195.354 41.7165" stroke="#FFD9EB" stroke-width="1.5328" stroke-miterlimit="10" stroke-linecap="round"/>
<path d="M196.834 41.9592L196.899 42.3373" stroke="#FFD9EB" stroke-width="1.5328" stroke-miterlimit="10" stroke-linecap="round"/>
<path d="M206.319 48.797L206.384 49.175" stroke="#FFD9EB" stroke-width="1.5328" stroke-miterlimit="10" stroke-linecap="round"/>
<path d="M196.236 45.6422L196.301 46.0203" stroke="#FFD9EB" stroke-width="1.5328" stroke-miterlimit="10" stroke-linecap="round"/>
<path d="M205.858 39.7893L205.285 40.2724" stroke="#FFD9EB" stroke-width="1.5328" stroke-miterlimit="10" stroke-linecap="round"/>
<path d="M195.692 39.4691L195.119 39.9522" stroke="#FFD9EB" stroke-width="1.5328" stroke-miterlimit="10" stroke-linecap="round"/>
<path d="M198.668 48.5048L199.307 49.6146" stroke="#FFD9EB" stroke-width="1.5328" stroke-miterlimit="10" stroke-linecap="round"/>
<path d="M195.177 44.4883L194.551 45.7442" stroke="#FFD9EB" stroke-width="1.5328" stroke-miterlimit="10" stroke-linecap="round"/>
<path d="M202.711 49.6876L205.542 50.6888" stroke="#FFD9EB" stroke-width="1.5328" stroke-miterlimit="10" stroke-linecap="round"/>
<path d="M197.053 56.6025L199.805 58.1102" stroke="#FFD9EB" stroke-width="1.5328" stroke-miterlimit="10" stroke-linecap="round"/>
<path d="M198.359 52.411L198.554 54.5925" stroke="#FFD9EB" stroke-width="1.5328" stroke-miterlimit="10" stroke-linecap="round"/>
<path d="M199.993 54.7407L201.369 52.3541" stroke="#FFD9EB" stroke-width="1.5328" stroke-miterlimit="10" stroke-linecap="round"/>
<path d="M204.208 61.6659L206.092 59.6599" stroke="#FFD9EB" stroke-width="1.5328" stroke-miterlimit="10" stroke-linecap="round"/>
<path d="M202.632 53.5883L205.825 55.9687" stroke="#FFD9EB" stroke-width="1.5328" stroke-miterlimit="10" stroke-linecap="round"/>
<path d="M200.517 56.4076L202.831 55.6698" stroke="#FFD9EB" stroke-width="1.5328" stroke-miterlimit="10" stroke-linecap="round"/>
<path d="M199.551 60.0933L200.916 59.2007" stroke="#FFD9EB" stroke-width="1.5328" stroke-miterlimit="10" stroke-linecap="round"/>
<path d="M196.851 63.9169L197.489 62.5159" stroke="#FFD9EB" stroke-width="1.5328" stroke-miterlimit="10" stroke-linecap="round"/>
<path d="M204.183 57.7332H206.56" stroke="#FFD9EB" stroke-width="1.5328" stroke-miterlimit="10" stroke-linecap="round"/>
<path d="M202.057 57.8584L203.307 59.366" stroke="#FFD9EB" stroke-width="1.5328" stroke-miterlimit="10" stroke-linecap="round"/>
<path d="M201.436 60.5941L200.439 63.957" stroke="#FFD9EB" stroke-width="1.5328" stroke-miterlimit="10" stroke-linecap="round"/>
<path d="M194.581 62.6529L197.903 59.666" stroke="#FFD9EB" stroke-width="1.5328" stroke-miterlimit="10" stroke-linecap="round"/>
<path d="M194.176 54.0902L195.354 54.5845" stroke="#FFD9EB" stroke-width="1.5328" stroke-miterlimit="10" stroke-linecap="round"/>
<path d="M196.834 54.8275L196.899 55.2051" stroke="#FFD9EB" stroke-width="1.5328" stroke-miterlimit="10" stroke-linecap="round"/>
<path d="M206.319 61.6653L206.384 62.0433" stroke="#FFD9EB" stroke-width="1.5328" stroke-miterlimit="10" stroke-linecap="round"/>
<path d="M196.236 58.5105L196.301 58.8885" stroke="#FFD9EB" stroke-width="1.5328" stroke-miterlimit="10" stroke-linecap="round"/>
<path d="M205.858 52.6576L205.285 53.1407" stroke="#FFD9EB" stroke-width="1.5328" stroke-miterlimit="10" stroke-linecap="round"/>
<path d="M195.692 52.3374L195.119 52.8205" stroke="#FFD9EB" stroke-width="1.5328" stroke-miterlimit="10" stroke-linecap="round"/>
<path d="M198.668 61.3726L199.307 62.4829" stroke="#FFD9EB" stroke-width="1.5328" stroke-miterlimit="10" stroke-linecap="round"/>
<path d="M195.177 57.3561L194.551 58.6125" stroke="#FFD9EB" stroke-width="1.5328" stroke-miterlimit="10" stroke-linecap="round"/>
<path d="M202.711 62.5559L205.542 63.5566" stroke="#FFD9EB" stroke-width="1.5328" stroke-miterlimit="10" stroke-linecap="round"/>
<path d="M183.895 30.8663L186.646 32.3735" stroke="#FFD9EB" stroke-width="1.5328" stroke-miterlimit="10" stroke-linecap="round"/>
<path d="M185.201 26.6748L185.396 28.8563" stroke="#FFD9EB" stroke-width="1.5328" stroke-miterlimit="10" stroke-linecap="round"/>
<path d="M186.834 29.004L188.21 26.6174" stroke="#FFD9EB" stroke-width="1.5328" stroke-miterlimit="10" stroke-linecap="round"/>
<path d="M191.049 35.9296L192.934 33.9237" stroke="#FFD9EB" stroke-width="1.5328" stroke-miterlimit="10" stroke-linecap="round"/>
<path d="M189.474 27.8516L192.667 30.2325" stroke="#FFD9EB" stroke-width="1.5328" stroke-miterlimit="10" stroke-linecap="round"/>
<path d="M187.358 30.6714L189.673 29.9336" stroke="#FFD9EB" stroke-width="1.5328" stroke-miterlimit="10" stroke-linecap="round"/>
<path d="M186.393 34.3566L187.757 33.4645" stroke="#FFD9EB" stroke-width="1.5328" stroke-miterlimit="10" stroke-linecap="round"/>
<path d="M183.693 38.1807L184.331 36.7797" stroke="#FFD9EB" stroke-width="1.5328" stroke-miterlimit="10" stroke-linecap="round"/>
<path d="M191.025 31.9963H193.401" stroke="#FFD9EB" stroke-width="1.5328" stroke-miterlimit="10" stroke-linecap="round"/>
<path d="M188.898 32.1222L190.149 33.6293" stroke="#FFD9EB" stroke-width="1.5328" stroke-miterlimit="10" stroke-linecap="round"/>
<path d="M188.277 34.8579L187.281 38.2208" stroke="#FFD9EB" stroke-width="1.5328" stroke-miterlimit="10" stroke-linecap="round"/>
<path d="M181.423 36.9167L184.745 33.9298" stroke="#FFD9EB" stroke-width="1.5328" stroke-miterlimit="10" stroke-linecap="round"/>
<path d="M181.018 28.354L182.195 28.8483" stroke="#FFD9EB" stroke-width="1.5328" stroke-miterlimit="10" stroke-linecap="round"/>
<path d="M183.676 29.0907L183.74 29.4687" stroke="#FFD9EB" stroke-width="1.5328" stroke-miterlimit="10" stroke-linecap="round"/>
<path d="M193.161 35.9291L193.225 36.3066" stroke="#FFD9EB" stroke-width="1.5328" stroke-miterlimit="10" stroke-linecap="round"/>
<path d="M183.078 32.7743L183.142 33.1518" stroke="#FFD9EB" stroke-width="1.5328" stroke-miterlimit="10" stroke-linecap="round"/>
<path d="M192.7 26.9214L192.126 27.404" stroke="#FFD9EB" stroke-width="1.5328" stroke-miterlimit="10" stroke-linecap="round"/>
<path d="M182.534 26.6007L181.96 27.0838" stroke="#FFD9EB" stroke-width="1.5328" stroke-miterlimit="10" stroke-linecap="round"/>
<path d="M185.51 35.6364L186.149 36.7466" stroke="#FFD9EB" stroke-width="1.5328" stroke-miterlimit="10" stroke-linecap="round"/>
<path d="M182.019 31.6199L181.393 32.8758" stroke="#FFD9EB" stroke-width="1.5328" stroke-miterlimit="10" stroke-linecap="round"/>
<path d="M189.553 36.8197L192.383 37.8204" stroke="#FFD9EB" stroke-width="1.5328" stroke-miterlimit="10" stroke-linecap="round"/>
<path d="M183.895 43.7343L186.646 45.2419" stroke="#FFD9EB" stroke-width="1.5328" stroke-miterlimit="10" stroke-linecap="round"/>
<path d="M185.201 39.5427L185.396 41.7248" stroke="#FFD9EB" stroke-width="1.5328" stroke-miterlimit="10" stroke-linecap="round"/>
<path d="M186.834 41.8724L188.21 39.4858" stroke="#FFD9EB" stroke-width="1.5328" stroke-miterlimit="10" stroke-linecap="round"/>
<path d="M191.049 48.7981L192.934 46.7916" stroke="#FFD9EB" stroke-width="1.5328" stroke-miterlimit="10" stroke-linecap="round"/>
<path d="M189.474 40.72L192.667 43.1004" stroke="#FFD9EB" stroke-width="1.5328" stroke-miterlimit="10" stroke-linecap="round"/>
<path d="M187.358 43.5398L189.673 42.802" stroke="#FFD9EB" stroke-width="1.5328" stroke-miterlimit="10" stroke-linecap="round"/>
<path d="M186.393 47.225L187.757 46.3324" stroke="#FFD9EB" stroke-width="1.5328" stroke-miterlimit="10" stroke-linecap="round"/>
<path d="M183.693 51.0492L184.331 49.6476" stroke="#FFD9EB" stroke-width="1.5328" stroke-miterlimit="10" stroke-linecap="round"/>
<path d="M191.025 44.8647H193.401" stroke="#FFD9EB" stroke-width="1.5328" stroke-miterlimit="10" stroke-linecap="round"/>
<path d="M188.898 44.9907L190.149 46.4978" stroke="#FFD9EB" stroke-width="1.5328" stroke-miterlimit="10" stroke-linecap="round"/>
<path d="M188.277 47.7263L187.281 51.0892" stroke="#FFD9EB" stroke-width="1.5328" stroke-miterlimit="10" stroke-linecap="round"/>
<path d="M181.423 49.7851L184.745 46.7982" stroke="#FFD9EB" stroke-width="1.5328" stroke-miterlimit="10" stroke-linecap="round"/>
<path d="M181.018 41.2223L182.195 41.7165" stroke="#FFD9EB" stroke-width="1.5328" stroke-miterlimit="10" stroke-linecap="round"/>
<path d="M183.676 41.9592L183.74 42.3373" stroke="#FFD9EB" stroke-width="1.5328" stroke-miterlimit="10" stroke-linecap="round"/>
<path d="M193.161 48.797L193.225 49.175" stroke="#FFD9EB" stroke-width="1.5328" stroke-miterlimit="10" stroke-linecap="round"/>
<path d="M183.078 45.6422L183.142 46.0203" stroke="#FFD9EB" stroke-width="1.5328" stroke-miterlimit="10" stroke-linecap="round"/>
<path d="M192.7 39.7893L192.126 40.2724" stroke="#FFD9EB" stroke-width="1.5328" stroke-miterlimit="10" stroke-linecap="round"/>
<path d="M182.534 39.4691L181.96 39.9522" stroke="#FFD9EB" stroke-width="1.5328" stroke-miterlimit="10" stroke-linecap="round"/>
<path d="M185.51 48.5048L186.149 49.6146" stroke="#FFD9EB" stroke-width="1.5328" stroke-miterlimit="10" stroke-linecap="round"/>
<path d="M182.019 44.4883L181.393 45.7442" stroke="#FFD9EB" stroke-width="1.5328" stroke-miterlimit="10" stroke-linecap="round"/>
<path d="M189.553 49.6876L192.383 50.6888" stroke="#FFD9EB" stroke-width="1.5328" stroke-miterlimit="10" stroke-linecap="round"/>
<path d="M183.895 56.6025L186.646 58.1102" stroke="#FFD9EB" stroke-width="1.5328" stroke-miterlimit="10" stroke-linecap="round"/>
<path d="M185.201 52.411L185.396 54.5925" stroke="#FFD9EB" stroke-width="1.5328" stroke-miterlimit="10" stroke-linecap="round"/>
<path d="M186.834 54.7407L188.21 52.3541" stroke="#FFD9EB" stroke-width="1.5328" stroke-miterlimit="10" stroke-linecap="round"/>
<path d="M191.049 61.6659L192.934 59.6599" stroke="#FFD9EB" stroke-width="1.5328" stroke-miterlimit="10" stroke-linecap="round"/>
<path d="M189.474 53.5883L192.667 55.9687" stroke="#FFD9EB" stroke-width="1.5328" stroke-miterlimit="10" stroke-linecap="round"/>
<path d="M187.358 56.4076L189.673 55.6698" stroke="#FFD9EB" stroke-width="1.5328" stroke-miterlimit="10" stroke-linecap="round"/>
<path d="M186.393 60.0933L187.757 59.2007" stroke="#FFD9EB" stroke-width="1.5328" stroke-miterlimit="10" stroke-linecap="round"/>
<path d="M183.693 63.9169L184.331 62.5159" stroke="#FFD9EB" stroke-width="1.5328" stroke-miterlimit="10" stroke-linecap="round"/>
<path d="M191.025 57.7332H193.401" stroke="#FFD9EB" stroke-width="1.5328" stroke-miterlimit="10" stroke-linecap="round"/>
<path d="M188.898 57.8584L190.149 59.366" stroke="#FFD9EB" stroke-width="1.5328" stroke-miterlimit="10" stroke-linecap="round"/>
<path d="M188.277 60.5941L187.281 63.957" stroke="#FFD9EB" stroke-width="1.5328" stroke-miterlimit="10" stroke-linecap="round"/>
<path d="M181.423 62.6529L184.745 59.666" stroke="#FFD9EB" stroke-width="1.5328" stroke-miterlimit="10" stroke-linecap="round"/>
<path d="M181.018 54.0902L182.195 54.5845" stroke="#FFD9EB" stroke-width="1.5328" stroke-miterlimit="10" stroke-linecap="round"/>
<path d="M183.676 54.8275L183.74 55.2051" stroke="#FFD9EB" stroke-width="1.5328" stroke-miterlimit="10" stroke-linecap="round"/>
<path d="M193.161 61.6653L193.225 62.0433" stroke="#FFD9EB" stroke-width="1.5328" stroke-miterlimit="10" stroke-linecap="round"/>
<path d="M183.078 58.5105L183.142 58.8885" stroke="#FFD9EB" stroke-width="1.5328" stroke-miterlimit="10" stroke-linecap="round"/>
<path d="M192.7 52.6576L192.126 53.1407" stroke="#FFD9EB" stroke-width="1.5328" stroke-miterlimit="10" stroke-linecap="round"/>
<path d="M182.534 52.3374L181.96 52.8205" stroke="#FFD9EB" stroke-width="1.5328" stroke-miterlimit="10" stroke-linecap="round"/>
<path d="M185.51 61.3726L186.149 62.4829" stroke="#FFD9EB" stroke-width="1.5328" stroke-miterlimit="10" stroke-linecap="round"/>
<path d="M182.019 57.3561L181.393 58.6125" stroke="#FFD9EB" stroke-width="1.5328" stroke-miterlimit="10" stroke-linecap="round"/>
<path d="M189.553 62.5559L192.383 63.5566" stroke="#FFD9EB" stroke-width="1.5328" stroke-miterlimit="10" stroke-linecap="round"/>
<path d="M170.737 30.8663L173.489 32.3735" stroke="#FFD9EB" stroke-width="1.5328" stroke-miterlimit="10" stroke-linecap="round"/>
<path d="M172.043 26.6748L172.238 28.8563" stroke="#FFD9EB" stroke-width="1.5328" stroke-miterlimit="10" stroke-linecap="round"/>
<path d="M173.677 29.004L175.053 26.6174" stroke="#FFD9EB" stroke-width="1.5328" stroke-miterlimit="10" stroke-linecap="round"/>
<path d="M177.892 35.9296L179.776 33.9237" stroke="#FFD9EB" stroke-width="1.5328" stroke-miterlimit="10" stroke-linecap="round"/>
<path d="M176.315 27.8516L179.509 30.2325" stroke="#FFD9EB" stroke-width="1.5328" stroke-miterlimit="10" stroke-linecap="round"/>
<path d="M174.201 30.6714L176.515 29.9336" stroke="#FFD9EB" stroke-width="1.5328" stroke-miterlimit="10" stroke-linecap="round"/>
<path d="M173.235 34.3566L174.6 33.4645" stroke="#FFD9EB" stroke-width="1.5328" stroke-miterlimit="10" stroke-linecap="round"/>
<path d="M170.535 38.1807L171.172 36.7797" stroke="#FFD9EB" stroke-width="1.5328" stroke-miterlimit="10" stroke-linecap="round"/>
<path d="M177.867 31.9963H180.244" stroke="#FFD9EB" stroke-width="1.5328" stroke-miterlimit="10" stroke-linecap="round"/>
<path d="M175.74 32.1222L176.991 33.6293" stroke="#FFD9EB" stroke-width="1.5328" stroke-miterlimit="10" stroke-linecap="round"/>
<path d="M175.12 34.8579L174.123 38.2208" stroke="#FFD9EB" stroke-width="1.5328" stroke-miterlimit="10" stroke-linecap="round"/>
<path d="M168.265 36.9167L171.587 33.9298" stroke="#FFD9EB" stroke-width="1.5328" stroke-miterlimit="10" stroke-linecap="round"/>
<path d="M167.86 28.354L169.037 28.8483" stroke="#FFD9EB" stroke-width="1.5328" stroke-miterlimit="10" stroke-linecap="round"/>
<path d="M170.518 29.0907L170.582 29.4687" stroke="#FFD9EB" stroke-width="1.5328" stroke-miterlimit="10" stroke-linecap="round"/>
<path d="M180.003 35.9291L180.067 36.3066" stroke="#FFD9EB" stroke-width="1.5328" stroke-miterlimit="10" stroke-linecap="round"/>
<path d="M169.92 32.7743L169.985 33.1518" stroke="#FFD9EB" stroke-width="1.5328" stroke-miterlimit="10" stroke-linecap="round"/>
<path d="M179.542 26.9214L178.968 27.404" stroke="#FFD9EB" stroke-width="1.5328" stroke-miterlimit="10" stroke-linecap="round"/>
<path d="M169.376 26.6007L168.803 27.0838" stroke="#FFD9EB" stroke-width="1.5328" stroke-miterlimit="10" stroke-linecap="round"/>
<path d="M172.353 35.6364L172.991 36.7466" stroke="#FFD9EB" stroke-width="1.5328" stroke-miterlimit="10" stroke-linecap="round"/>
<path d="M168.861 31.6199L168.235 32.8758" stroke="#FFD9EB" stroke-width="1.5328" stroke-miterlimit="10" stroke-linecap="round"/>
<path d="M176.396 36.8197L179.226 37.8204" stroke="#FFD9EB" stroke-width="1.5328" stroke-miterlimit="10" stroke-linecap="round"/>
<path d="M170.737 43.7343L173.489 45.2419" stroke="#FFD9EB" stroke-width="1.5328" stroke-miterlimit="10" stroke-linecap="round"/>
<path d="M172.043 39.5427L172.238 41.7248" stroke="#FFD9EB" stroke-width="1.5328" stroke-miterlimit="10" stroke-linecap="round"/>
<path d="M173.677 41.8724L175.053 39.4858" stroke="#FFD9EB" stroke-width="1.5328" stroke-miterlimit="10" stroke-linecap="round"/>
<path d="M177.892 48.7981L179.776 46.7916" stroke="#FFD9EB" stroke-width="1.5328" stroke-miterlimit="10" stroke-linecap="round"/>
<path d="M176.315 40.72L179.509 43.1004" stroke="#FFD9EB" stroke-width="1.5328" stroke-miterlimit="10" stroke-linecap="round"/>
<path d="M174.201 43.5398L176.515 42.802" stroke="#FFD9EB" stroke-width="1.5328" stroke-miterlimit="10" stroke-linecap="round"/>
<path d="M173.235 47.225L174.6 46.3324" stroke="#FFD9EB" stroke-width="1.5328" stroke-miterlimit="10" stroke-linecap="round"/>
<path d="M170.535 51.0492L171.172 49.6476" stroke="#FFD9EB" stroke-width="1.5328" stroke-miterlimit="10" stroke-linecap="round"/>
<path d="M177.867 44.8647H180.244" stroke="#FFD9EB" stroke-width="1.5328" stroke-miterlimit="10" stroke-linecap="round"/>
<path d="M175.74 44.9907L176.991 46.4978" stroke="#FFD9EB" stroke-width="1.5328" stroke-miterlimit="10" stroke-linecap="round"/>
<path d="M175.12 47.7263L174.123 51.0892" stroke="#FFD9EB" stroke-width="1.5328" stroke-miterlimit="10" stroke-linecap="round"/>
<path d="M168.265 49.7851L171.587 46.7982" stroke="#FFD9EB" stroke-width="1.5328" stroke-miterlimit="10" stroke-linecap="round"/>
<path d="M167.86 41.2223L169.037 41.7165" stroke="#FFD9EB" stroke-width="1.5328" stroke-miterlimit="10" stroke-linecap="round"/>
<path d="M170.518 41.9592L170.582 42.3373" stroke="#FFD9EB" stroke-width="1.5328" stroke-miterlimit="10" stroke-linecap="round"/>
<path d="M180.003 48.797L180.067 49.175" stroke="#FFD9EB" stroke-width="1.5328" stroke-miterlimit="10" stroke-linecap="round"/>
<path d="M169.92 45.6422L169.985 46.0203" stroke="#FFD9EB" stroke-width="1.5328" stroke-miterlimit="10" stroke-linecap="round"/>
<path d="M179.542 39.7893L178.968 40.2724" stroke="#FFD9EB" stroke-width="1.5328" stroke-miterlimit="10" stroke-linecap="round"/>
<path d="M169.376 39.4691L168.803 39.9522" stroke="#FFD9EB" stroke-width="1.5328" stroke-miterlimit="10" stroke-linecap="round"/>
<path d="M172.353 48.5048L172.991 49.6146" stroke="#FFD9EB" stroke-width="1.5328" stroke-miterlimit="10" stroke-linecap="round"/>
<path d="M168.861 44.4883L168.235 45.7442" stroke="#FFD9EB" stroke-width="1.5328" stroke-miterlimit="10" stroke-linecap="round"/>
<path d="M176.396 49.6876L179.226 50.6888" stroke="#FFD9EB" stroke-width="1.5328" stroke-miterlimit="10" stroke-linecap="round"/>
<path d="M170.737 56.6025L173.489 58.1102" stroke="#FFD9EB" stroke-width="1.5328" stroke-miterlimit="10" stroke-linecap="round"/>
<path d="M172.043 52.411L172.238 54.5925" stroke="#FFD9EB" stroke-width="1.5328" stroke-miterlimit="10" stroke-linecap="round"/>
<path d="M173.677 54.7407L175.053 52.3541" stroke="#FFD9EB" stroke-width="1.5328" stroke-miterlimit="10" stroke-linecap="round"/>
<path d="M177.892 61.6659L179.776 59.6599" stroke="#FFD9EB" stroke-width="1.5328" stroke-miterlimit="10" stroke-linecap="round"/>
<path d="M176.315 53.5883L179.509 55.9687" stroke="#FFD9EB" stroke-width="1.5328" stroke-miterlimit="10" stroke-linecap="round"/>
<path d="M174.201 56.4076L176.515 55.6698" stroke="#FFD9EB" stroke-width="1.5328" stroke-miterlimit="10" stroke-linecap="round"/>
<path d="M173.235 60.0933L174.6 59.2007" stroke="#FFD9EB" stroke-width="1.5328" stroke-miterlimit="10" stroke-linecap="round"/>
<path d="M170.535 63.9169L171.172 62.5159" stroke="#FFD9EB" stroke-width="1.5328" stroke-miterlimit="10" stroke-linecap="round"/>
<path d="M177.867 57.7332H180.244" stroke="#FFD9EB" stroke-width="1.5328" stroke-miterlimit="10" stroke-linecap="round"/>
<path d="M175.74 57.8584L176.991 59.366" stroke="#FFD9EB" stroke-width="1.5328" stroke-miterlimit="10" stroke-linecap="round"/>
<path d="M175.12 60.5941L174.123 63.957" stroke="#FFD9EB" stroke-width="1.5328" stroke-miterlimit="10" stroke-linecap="round"/>
<path d="M168.265 62.6529L171.587 59.666" stroke="#FFD9EB" stroke-width="1.5328" stroke-miterlimit="10" stroke-linecap="round"/>
<path d="M167.86 54.0902L169.037 54.5845" stroke="#FFD9EB" stroke-width="1.5328" stroke-miterlimit="10" stroke-linecap="round"/>
<path d="M170.518 54.8275L170.582 55.2051" stroke="#FFD9EB" stroke-width="1.5328" stroke-miterlimit="10" stroke-linecap="round"/>
<path d="M180.003 61.6653L180.067 62.0433" stroke="#FFD9EB" stroke-width="1.5328" stroke-miterlimit="10" stroke-linecap="round"/>
<path d="M169.92 58.5105L169.985 58.8885" stroke="#FFD9EB" stroke-width="1.5328" stroke-miterlimit="10" stroke-linecap="round"/>
<path d="M179.542 52.6576L178.968 53.1407" stroke="#FFD9EB" stroke-width="1.5328" stroke-miterlimit="10" stroke-linecap="round"/>
<path d="M169.376 52.3374L168.803 52.8205" stroke="#FFD9EB" stroke-width="1.5328" stroke-miterlimit="10" stroke-linecap="round"/>
<path d="M172.353 61.3726L172.991 62.4829" stroke="#FFD9EB" stroke-width="1.5328" stroke-miterlimit="10" stroke-linecap="round"/>
<path d="M168.861 57.3561L168.235 58.6125" stroke="#FFD9EB" stroke-width="1.5328" stroke-miterlimit="10" stroke-linecap="round"/>
<path d="M176.396 62.5559L179.226 63.5566" stroke="#FFD9EB" stroke-width="1.5328" stroke-miterlimit="10" stroke-linecap="round"/>
<path d="M4.55176 83.8789C4.69072 78.982 8.68423 75.0539 13.5944 75.0539C14.1047 75.0539 14.6045 75.0985 15.0916 75.1797C15.3503 70.3935 19.2958 66.5922 24.1267 66.5922C27.9726 66.5922 31.2561 69.003 32.5664 72.4009C33.3957 72.1492 34.2744 72.0127 35.1855 72.0127C40.183 72.0127 44.2347 76.0815 44.2347 81.1001C44.2347 82.0693 44.0821 83.0025 43.8021 83.8784H4.55176V83.8789Z" fill="#F2F2F2"/>
<path d="M22.6453 83.8789C22.6453 81.8958 21.0318 80.2598 19.0414 80.2598C17.051 80.2598 15.4375 81.8958 15.4375 83.8789H22.6453Z" fill="#03EFC2"/>
<path d="M19.0347 83.8789C19.0347 81.367 17.0276 79.3768 14.5515 79.3768C12.0755 79.3768 10.0684 81.367 10.0684 83.8789H19.0347Z" fill="url(#paint0_linear)"/>
<path d="M18.5142 50.6085C31.5553 50.6085 31.5553 67.6253 44.5965 67.6253C57.6397 67.6253 57.6397 50.6085 70.6824 50.6085C83.7251 50.6085 83.7256 67.6253 96.7683 67.6253" stroke="#FD91C2" stroke-width="3.105" stroke-miterlimit="10" stroke-linecap="round" stroke-linejoin="round"/>
<path d="M37.4917 92.2448V50.735H56.1828C61.6043 50.735 65.7449 51.9356 68.606 54.3358C71.4671 56.7366 72.8976 60.1959 72.8976 64.7132C72.8976 67.6619 72.1775 70.0911 70.7379 72.0001C69.2978 73.9096 67.3543 75.0245 64.9076 75.3457L75.9477 92.2448H59.289L52.0604 78.5498V92.2448H37.4917V92.2448ZM52.0604 61.4244V69.5334H54.3758C55.7876 69.5334 56.8746 69.1889 57.6371 68.4982C58.3996 67.8086 58.7806 66.8211 58.7806 65.5352C58.7806 64.2123 58.3996 63.1959 57.6371 62.487C56.8746 61.7786 55.7876 61.4239 54.3758 61.4239H52.0604V61.4244Z" fill="#3575F7"/>
<path d="M120.475 71.5748C120.475 74.6185 119.938 77.449 118.865 80.067C117.792 82.6854 116.221 85.0242 114.15 87.0845C112.079 89.1071 109.693 90.6574 106.993 91.7347C104.291 92.812 101.416 93.3509 98.3668 93.3509C95.2799 93.3509 92.3905 92.812 89.6987 91.7347C87.0068 90.6574 84.6167 89.0884 82.5272 87.0281C80.4751 85.0247 78.9228 82.7184 77.8687 80.1101C76.8141 77.5013 76.2876 74.6565 76.2876 71.5753C76.2876 68.4946 76.8141 65.6402 77.8687 63.0121C78.9228 60.3851 80.4751 58.0696 82.5272 56.0657C84.598 54.0242 86.9791 52.4699 89.6709 51.4017C92.3627 50.334 95.2612 49.7997 98.3673 49.7997C101.474 49.7997 104.372 50.334 107.064 51.4017C109.755 52.4699 112.146 54.0242 114.235 56.0657C116.268 58.0883 117.816 60.4135 118.88 63.041C119.942 65.6681 120.475 68.5124 120.475 71.5748ZM98.3668 79.4007C100.456 79.4007 102.136 78.6872 103.407 77.2597C104.678 75.8328 105.312 73.938 105.312 71.5748C105.312 69.1933 104.677 67.2793 103.407 65.8335C102.136 64.3873 100.456 63.6642 98.3668 63.6642C96.2774 63.6642 94.5926 64.3924 93.3127 65.8477C92.0327 67.3036 91.3925 69.2126 91.3925 71.5753C91.3925 73.9385 92.0327 75.8333 93.3127 77.2603C94.5926 78.6872 96.2774 79.4007 98.3668 79.4007Z" fill="#3575F7"/>
<path d="M119.064 92.2447L133.803 50.7344H150.349L164.804 92.2447H148.823L147.497 87.0276H136.288L135.017 92.2447H119.064ZM138.772 77.1608H144.955L143.684 72.4542C143.063 70.0722 142.64 68.2388 142.414 66.9534C142.188 65.6681 142.047 64.4583 141.991 63.3242H141.736C141.68 64.4583 141.538 65.6686 141.312 66.9534C141.087 68.2388 140.663 70.0722 140.042 72.4542L138.772 77.1608Z" fill="#3575F7"/>
<path d="M166.728 88.7007L171.471 77.0756C173.598 78.569 175.495 79.6605 177.16 80.3506C178.826 81.0408 180.384 81.3858 181.833 81.3858C182.85 81.3858 183.65 81.1925 184.233 80.8043C184.816 80.4171 185.108 79.8924 185.108 79.2307C185.108 78.0783 183.649 77.1989 180.732 76.594C179.79 76.3859 179.057 76.2251 178.53 76.1119C175.443 75.3558 173.081 74.0136 171.443 72.0853C169.805 70.1575 168.987 67.7568 168.987 64.8836C168.987 60.4226 170.577 56.7934 173.758 53.9958C176.939 51.1982 181.109 49.7992 186.267 49.7992C188.638 49.7992 190.972 50.1108 193.268 50.7349C195.565 51.3586 197.88 52.304 200.214 53.57L195.697 64.4294C194.266 63.3714 192.831 62.563 191.391 62.0054C189.95 61.4482 188.553 61.1691 187.198 61.1691C186.162 61.1691 185.363 61.3442 184.798 61.6938C184.233 62.0439 183.951 62.5301 183.951 63.1542C183.951 64.3264 186.012 65.3565 190.134 66.2446C190.793 66.3958 191.301 66.5095 191.659 66.5846C194.501 67.2275 196.741 68.5408 198.379 70.5259C200.016 72.5111 200.835 74.9118 200.835 77.7276C200.835 82.3211 199.183 86.0731 195.88 88.9844C192.576 91.8956 188.28 93.3504 182.991 93.3504C180.28 93.3504 177.569 92.9627 174.859 92.1879C172.149 91.4135 169.438 90.2509 166.728 88.7007Z" fill="#3575F7"/>
<path d="M142.765 26.522L158.002 41.8241" stroke="#01DDF1" stroke-width="2.5592" stroke-miterlimit="10" stroke-linecap="round" stroke-linejoin="round"/>
<path d="M158.002 26.522L142.765 41.8241" stroke="#01DDF1" stroke-width="2.5592" stroke-miterlimit="10" stroke-linecap="round" stroke-linejoin="round"/>
<path d="M7.14307 69.2776H24.818L19.2383 36.7106H12.7222L7.14307 69.2776Z" fill="#01DDF1"/>
<path d="M16.4014 83.879V43.2831" stroke="#0650F5" stroke-miterlimit="10" stroke-linecap="round" stroke-linejoin="round"/>
<path d="M16.3125 47.3269L18.4308 45.1997" stroke="#0650F5" stroke-miterlimit="10" stroke-linecap="round" stroke-linejoin="round"/>
<path d="M16.0564 47.3284L13.9619 45.225" stroke="#0650F5" stroke-miterlimit="10" stroke-linecap="round" stroke-linejoin="round"/>
<path d="M16.3125 52.5998L19.2176 49.6825" stroke="#0650F5" stroke-miterlimit="10" stroke-linecap="round" stroke-linejoin="round"/>
<path d="M16.0564 52.5998L13.1509 49.6825" stroke="#0650F5" stroke-miterlimit="10" stroke-linecap="round" stroke-linejoin="round"/>
<path d="M16.3125 66.5637L21.3849 61.47" stroke="#0650F5" stroke-miterlimit="10" stroke-linecap="round" stroke-linejoin="round"/>
<path d="M16.0563 66.5637L11.2417 61.7288" stroke="#0650F5" stroke-miterlimit="10" stroke-linecap="round" stroke-linejoin="round"/>
<path d="M16.3125 59.1144L20.3004 55.1096" stroke="#0650F5" stroke-miterlimit="10" stroke-linecap="round" stroke-linejoin="round"/>
<path d="M16.0561 59.1144L11.9146 54.9553" stroke="#0650F5" stroke-miterlimit="10" stroke-linecap="round" stroke-linejoin="round"/>
<path d="M86.3553 110.87H27.3921" stroke="#3575F7" stroke-width="2" stroke-miterlimit="10"/>
<path d="M92.3792 110.87H88.5029" stroke="#3575F7" stroke-width="2" stroke-miterlimit="10"/>
<path d="M200.519 103.953H128.179V122.006H200.519V103.953Z" fill="#FFD9EB"/>
<path d="M144.548 106.647H136.961V114.265H144.548V106.647Z" fill="white"/>
<path d="M155.444 106.647H147.857V114.265H155.444V106.647Z" fill="#FD91C2"/>
<path d="M166.34 106.647H158.753V114.265H166.34V106.647Z" stroke="#FD6125" stroke-miterlimit="10" stroke-linecap="round" stroke-linejoin="round"/>
<path d="M177.236 106.647H169.649V114.265H177.236V106.647Z" stroke="#FD6125" stroke-miterlimit="10" stroke-linecap="round" stroke-linejoin="round"/>
<path d="M187.734 106.647H180.147V114.265H187.734V106.647Z" stroke="#FD6125" stroke-miterlimit="10" stroke-linecap="round" stroke-linejoin="round"/>
<path d="M166.318 106.647H162.547V110.433H166.318V106.647Z" stroke="#FD6125" stroke-width="1.3927" stroke-miterlimit="10" stroke-linecap="round" stroke-linejoin="round"/>
<path d="M177.236 106.647H173.465V110.433H177.236V106.647Z" stroke="#FD6125" stroke-width="1.3927" stroke-miterlimit="10" stroke-linecap="round" stroke-linejoin="round"/>
<path d="M198.418 101.844H126.079V119.897H198.418V101.844Z" stroke="#0650F5" stroke-width="2" stroke-miterlimit="10" stroke-linecap="round" stroke-linejoin="round"/>
<path d="M155.444 106.647H147.857V114.265H155.444V106.647Z" stroke="#0650F5" stroke-miterlimit="10" stroke-linecap="round" stroke-linejoin="round"/>
<path d="M144.548 106.647H136.961V114.265H144.548V106.647Z" stroke="#0650F5" stroke-miterlimit="10" stroke-linecap="round" stroke-linejoin="round"/>
<path d="M95.4604 110.87H122.325" stroke="#3575F7" stroke-width="2" stroke-miterlimit="10"/>
<path d="M122.325 108.97H120.722V112.771H122.325V108.97Z" fill="#0650F5"/>
<path d="M125.904 108.97H120.722V112.771H125.904V108.97Z" fill="#0650F5"/>
<path d="M120.856 109.508H119.254V112.233H120.856V109.508Z" fill="#0650F5"/>
<path d="M23.3581 116.693C27.7935 116.693 31.3891 113.082 31.3891 108.628C31.3891 104.174 27.7935 100.563 23.3581 100.563C18.9227 100.563 15.3271 104.174 15.3271 108.628C15.3271 113.082 18.9227 116.693 23.3581 116.693Z" fill="#CBDDFD"/>
<path d="M21.0617 114.387C25.4971 114.387 29.0927 110.776 29.0927 106.322C29.0927 101.868 25.4971 98.2574 21.0617 98.2574C16.6264 98.2574 13.0308 101.868 13.0308 106.322C13.0308 110.776 16.6264 114.387 21.0617 114.387Z" stroke="#FD91C2" stroke-width="2" stroke-miterlimit="10" stroke-linecap="round" stroke-linejoin="round"/>
<path d="M11.3804 116.044L30.743 96.6001" stroke="#FD91C2" stroke-width="2" stroke-miterlimit="10" stroke-linecap="round" stroke-linejoin="round"/>
<path d="M202.503 112.233H213.703V51.829" stroke="#FD6125" stroke-width="2" stroke-miterlimit="10"/>
<path d="M204.105 110.333H202.503V114.134H204.105V110.333Z" fill="#FD6125"/>
<path d="M204.105 110.333H198.924V114.134H204.105V110.333Z" fill="#FD6125"/>
<path d="M205.575 110.87H203.972V113.596H205.575V110.87Z" fill="#FD6125"/>
<defs>
<linearGradient id="paint0_linear" x1="19.0345" y1="81.6279" x2="10.0682" y2="81.6279" gradientUnits="userSpaceOnUse">
<stop stop-color="#01DDF1"/>
<stop offset="0.1739" stop-color="#01DFEB"/>
<stop offset="0.4063" stop-color="#02E6DA"/>
<stop offset="0.64" stop-color="#03EFC2"/>
</linearGradient>
</defs>
</svg>
