<svg width="216" height="101" viewBox="0 0 216 101" fill="none" xmlns="http://www.w3.org/2000/svg">
<path d="M195.053 6.86633L197.805 8.37345" stroke="#FFD9EB" stroke-width="1.5328" stroke-miterlimit="10" stroke-linecap="round"/>
<path d="M196.359 2.6748L196.554 4.85633" stroke="#FFD9EB" stroke-width="1.5328" stroke-miterlimit="10" stroke-linecap="round"/>
<path d="M197.993 5.00396L199.369 2.61743" stroke="#FFD9EB" stroke-width="1.5328" stroke-miterlimit="10" stroke-linecap="round"/>
<path d="M202.208 11.9296L204.092 9.92365" stroke="#FFD9EB" stroke-width="1.5328" stroke-miterlimit="10" stroke-linecap="round"/>
<path d="M200.632 3.85156L203.825 6.23251" stroke="#FFD9EB" stroke-width="1.5328" stroke-miterlimit="10" stroke-linecap="round"/>
<path d="M198.517 6.67142L200.831 5.93359" stroke="#FFD9EB" stroke-width="1.5328" stroke-miterlimit="10" stroke-linecap="round"/>
<path d="M197.551 10.3565L198.916 9.46442" stroke="#FFD9EB" stroke-width="1.5328" stroke-miterlimit="10" stroke-linecap="round"/>
<path d="M194.851 14.1807L195.489 12.7796" stroke="#FFD9EB" stroke-width="1.5328" stroke-miterlimit="10" stroke-linecap="round"/>
<path d="M202.183 7.9964H204.56" stroke="#FFD9EB" stroke-width="1.5328" stroke-miterlimit="10" stroke-linecap="round"/>
<path d="M200.057 8.12225L201.307 9.62938" stroke="#FFD9EB" stroke-width="1.5328" stroke-miterlimit="10" stroke-linecap="round"/>
<path d="M199.436 10.8579L198.439 14.2208" stroke="#FFD9EB" stroke-width="1.5328" stroke-miterlimit="10" stroke-linecap="round"/>
<path d="M192.581 12.9166L195.903 9.92975" stroke="#FFD9EB" stroke-width="1.5328" stroke-miterlimit="10" stroke-linecap="round"/>
<path d="M192.176 4.354L193.354 4.84826" stroke="#FFD9EB" stroke-width="1.5328" stroke-miterlimit="10" stroke-linecap="round"/>
<path d="M194.834 5.0907L194.899 5.46875" stroke="#FFD9EB" stroke-width="1.5328" stroke-miterlimit="10" stroke-linecap="round"/>
<path d="M204.319 11.9291L204.384 12.3066" stroke="#FFD9EB" stroke-width="1.5328" stroke-miterlimit="10" stroke-linecap="round"/>
<path d="M194.236 8.77429L194.301 9.15183" stroke="#FFD9EB" stroke-width="1.5328" stroke-miterlimit="10" stroke-linecap="round"/>
<path d="M203.858 2.92139L203.285 3.40397" stroke="#FFD9EB" stroke-width="1.5328" stroke-miterlimit="10" stroke-linecap="round"/>
<path d="M193.692 2.60071L193.119 3.0838" stroke="#FFD9EB" stroke-width="1.5328" stroke-miterlimit="10" stroke-linecap="round"/>
<path d="M196.668 11.6363L197.307 12.7466" stroke="#FFD9EB" stroke-width="1.5328" stroke-miterlimit="10" stroke-linecap="round"/>
<path d="M193.177 7.61987L192.551 8.87581" stroke="#FFD9EB" stroke-width="1.5328" stroke-miterlimit="10" stroke-linecap="round"/>
<path d="M200.711 12.8196L203.542 13.8203" stroke="#FFD9EB" stroke-width="1.5328" stroke-miterlimit="10" stroke-linecap="round"/>
<path d="M195.053 19.7341L197.805 21.2418" stroke="#FFD9EB" stroke-width="1.5328" stroke-miterlimit="10" stroke-linecap="round"/>
<path d="M196.359 15.5427L196.554 17.7247" stroke="#FFD9EB" stroke-width="1.5328" stroke-miterlimit="10" stroke-linecap="round"/>
<path d="M197.993 17.8723L199.369 15.4858" stroke="#FFD9EB" stroke-width="1.5328" stroke-miterlimit="10" stroke-linecap="round"/>
<path d="M202.208 24.798L204.092 22.7915" stroke="#FFD9EB" stroke-width="1.5328" stroke-miterlimit="10" stroke-linecap="round"/>
<path d="M200.632 16.7199L203.825 19.1004" stroke="#FFD9EB" stroke-width="1.5328" stroke-miterlimit="10" stroke-linecap="round"/>
<path d="M198.517 19.5398L200.831 18.802" stroke="#FFD9EB" stroke-width="1.5328" stroke-miterlimit="10" stroke-linecap="round"/>
<path d="M197.551 23.2249L198.916 22.3323" stroke="#FFD9EB" stroke-width="1.5328" stroke-miterlimit="10" stroke-linecap="round"/>
<path d="M194.851 27.049L195.489 25.6475" stroke="#FFD9EB" stroke-width="1.5328" stroke-miterlimit="10" stroke-linecap="round"/>
<path d="M202.183 20.8647H204.56" stroke="#FFD9EB" stroke-width="1.5328" stroke-miterlimit="10" stroke-linecap="round"/>
<path d="M200.057 20.9906L201.307 22.4977" stroke="#FFD9EB" stroke-width="1.5328" stroke-miterlimit="10" stroke-linecap="round"/>
<path d="M199.436 23.7263L198.439 27.0891" stroke="#FFD9EB" stroke-width="1.5328" stroke-miterlimit="10" stroke-linecap="round"/>
<path d="M192.581 25.785L195.903 22.7982" stroke="#FFD9EB" stroke-width="1.5328" stroke-miterlimit="10" stroke-linecap="round"/>
<path d="M192.176 17.2223L193.354 17.7165" stroke="#FFD9EB" stroke-width="1.5328" stroke-miterlimit="10" stroke-linecap="round"/>
<path d="M194.834 17.9591L194.899 18.3372" stroke="#FFD9EB" stroke-width="1.5328" stroke-miterlimit="10" stroke-linecap="round"/>
<path d="M204.319 24.7969L204.384 25.175" stroke="#FFD9EB" stroke-width="1.5328" stroke-miterlimit="10" stroke-linecap="round"/>
<path d="M194.236 21.6422L194.301 22.0202" stroke="#FFD9EB" stroke-width="1.5328" stroke-miterlimit="10" stroke-linecap="round"/>
<path d="M203.858 15.7892L203.285 16.2723" stroke="#FFD9EB" stroke-width="1.5328" stroke-miterlimit="10" stroke-linecap="round"/>
<path d="M193.692 15.4691L193.119 15.9521" stroke="#FFD9EB" stroke-width="1.5328" stroke-miterlimit="10" stroke-linecap="round"/>
<path d="M196.668 24.5047L197.307 25.6145" stroke="#FFD9EB" stroke-width="1.5328" stroke-miterlimit="10" stroke-linecap="round"/>
<path d="M193.177 20.4882L192.551 21.7442" stroke="#FFD9EB" stroke-width="1.5328" stroke-miterlimit="10" stroke-linecap="round"/>
<path d="M200.711 25.6875L203.542 26.6887" stroke="#FFD9EB" stroke-width="1.5328" stroke-miterlimit="10" stroke-linecap="round"/>
<path d="M195.053 32.6025L197.805 34.1102" stroke="#FFD9EB" stroke-width="1.5328" stroke-miterlimit="10" stroke-linecap="round"/>
<path d="M196.359 28.4111L196.554 30.5926" stroke="#FFD9EB" stroke-width="1.5328" stroke-miterlimit="10" stroke-linecap="round"/>
<path d="M197.993 30.7407L199.369 28.3542" stroke="#FFD9EB" stroke-width="1.5328" stroke-miterlimit="10" stroke-linecap="round"/>
<path d="M202.208 37.6659L204.092 35.6599" stroke="#FFD9EB" stroke-width="1.5328" stroke-miterlimit="10" stroke-linecap="round"/>
<path d="M200.632 29.5883L203.825 31.9688" stroke="#FFD9EB" stroke-width="1.5328" stroke-miterlimit="10" stroke-linecap="round"/>
<path d="M198.517 32.4077L200.831 31.6699" stroke="#FFD9EB" stroke-width="1.5328" stroke-miterlimit="10" stroke-linecap="round"/>
<path d="M197.551 36.0933L198.916 35.2007" stroke="#FFD9EB" stroke-width="1.5328" stroke-miterlimit="10" stroke-linecap="round"/>
<path d="M194.851 39.9169L195.489 38.5159" stroke="#FFD9EB" stroke-width="1.5328" stroke-miterlimit="10" stroke-linecap="round"/>
<path d="M202.183 33.7332H204.56" stroke="#FFD9EB" stroke-width="1.5328" stroke-miterlimit="10" stroke-linecap="round"/>
<path d="M200.057 33.8585L201.307 35.3661" stroke="#FFD9EB" stroke-width="1.5328" stroke-miterlimit="10" stroke-linecap="round"/>
<path d="M199.436 36.5942L198.439 39.957" stroke="#FFD9EB" stroke-width="1.5328" stroke-miterlimit="10" stroke-linecap="round"/>
<path d="M192.581 38.6529L195.903 35.666" stroke="#FFD9EB" stroke-width="1.5328" stroke-miterlimit="10" stroke-linecap="round"/>
<path d="M192.176 30.0902L193.354 30.5845" stroke="#FFD9EB" stroke-width="1.5328" stroke-miterlimit="10" stroke-linecap="round"/>
<path d="M194.834 30.8275L194.899 31.2051" stroke="#FFD9EB" stroke-width="1.5328" stroke-miterlimit="10" stroke-linecap="round"/>
<path d="M204.319 37.6653L204.384 38.0434" stroke="#FFD9EB" stroke-width="1.5328" stroke-miterlimit="10" stroke-linecap="round"/>
<path d="M194.236 34.5106L194.301 34.8886" stroke="#FFD9EB" stroke-width="1.5328" stroke-miterlimit="10" stroke-linecap="round"/>
<path d="M203.858 28.6577L203.285 29.1407" stroke="#FFD9EB" stroke-width="1.5328" stroke-miterlimit="10" stroke-linecap="round"/>
<path d="M193.692 28.3375L193.119 28.8206" stroke="#FFD9EB" stroke-width="1.5328" stroke-miterlimit="10" stroke-linecap="round"/>
<path d="M196.668 37.3726L197.307 38.4829" stroke="#FFD9EB" stroke-width="1.5328" stroke-miterlimit="10" stroke-linecap="round"/>
<path d="M193.177 33.3561L192.551 34.6126" stroke="#FFD9EB" stroke-width="1.5328" stroke-miterlimit="10" stroke-linecap="round"/>
<path d="M200.711 38.556L203.542 39.5567" stroke="#FFD9EB" stroke-width="1.5328" stroke-miterlimit="10" stroke-linecap="round"/>
<path d="M181.895 6.86633L184.646 8.37345" stroke="#FFD9EB" stroke-width="1.5328" stroke-miterlimit="10" stroke-linecap="round"/>
<path d="M183.201 2.6748L183.396 4.85633" stroke="#FFD9EB" stroke-width="1.5328" stroke-miterlimit="10" stroke-linecap="round"/>
<path d="M184.834 5.00396L186.21 2.61743" stroke="#FFD9EB" stroke-width="1.5328" stroke-miterlimit="10" stroke-linecap="round"/>
<path d="M189.049 11.9296L190.934 9.92365" stroke="#FFD9EB" stroke-width="1.5328" stroke-miterlimit="10" stroke-linecap="round"/>
<path d="M187.474 3.85156L190.667 6.23251" stroke="#FFD9EB" stroke-width="1.5328" stroke-miterlimit="10" stroke-linecap="round"/>
<path d="M185.358 6.67142L187.673 5.93359" stroke="#FFD9EB" stroke-width="1.5328" stroke-miterlimit="10" stroke-linecap="round"/>
<path d="M184.393 10.3565L185.757 9.46442" stroke="#FFD9EB" stroke-width="1.5328" stroke-miterlimit="10" stroke-linecap="round"/>
<path d="M181.693 14.1807L182.331 12.7796" stroke="#FFD9EB" stroke-width="1.5328" stroke-miterlimit="10" stroke-linecap="round"/>
<path d="M189.025 7.9964H191.401" stroke="#FFD9EB" stroke-width="1.5328" stroke-miterlimit="10" stroke-linecap="round"/>
<path d="M186.898 8.12225L188.149 9.62938" stroke="#FFD9EB" stroke-width="1.5328" stroke-miterlimit="10" stroke-linecap="round"/>
<path d="M186.277 10.8579L185.281 14.2208" stroke="#FFD9EB" stroke-width="1.5328" stroke-miterlimit="10" stroke-linecap="round"/>
<path d="M179.423 12.9166L182.745 9.92975" stroke="#FFD9EB" stroke-width="1.5328" stroke-miterlimit="10" stroke-linecap="round"/>
<path d="M179.018 4.354L180.195 4.84826" stroke="#FFD9EB" stroke-width="1.5328" stroke-miterlimit="10" stroke-linecap="round"/>
<path d="M181.676 5.0907L181.74 5.46875" stroke="#FFD9EB" stroke-width="1.5328" stroke-miterlimit="10" stroke-linecap="round"/>
<path d="M191.161 11.9291L191.225 12.3066" stroke="#FFD9EB" stroke-width="1.5328" stroke-miterlimit="10" stroke-linecap="round"/>
<path d="M181.078 8.77429L181.142 9.15183" stroke="#FFD9EB" stroke-width="1.5328" stroke-miterlimit="10" stroke-linecap="round"/>
<path d="M190.7 2.92139L190.126 3.40397" stroke="#FFD9EB" stroke-width="1.5328" stroke-miterlimit="10" stroke-linecap="round"/>
<path d="M180.534 2.60071L179.96 3.0838" stroke="#FFD9EB" stroke-width="1.5328" stroke-miterlimit="10" stroke-linecap="round"/>
<path d="M183.51 11.6363L184.149 12.7466" stroke="#FFD9EB" stroke-width="1.5328" stroke-miterlimit="10" stroke-linecap="round"/>
<path d="M180.019 7.61987L179.393 8.87581" stroke="#FFD9EB" stroke-width="1.5328" stroke-miterlimit="10" stroke-linecap="round"/>
<path d="M187.553 12.8196L190.383 13.8203" stroke="#FFD9EB" stroke-width="1.5328" stroke-miterlimit="10" stroke-linecap="round"/>
<path d="M181.895 19.7341L184.646 21.2418" stroke="#FFD9EB" stroke-width="1.5328" stroke-miterlimit="10" stroke-linecap="round"/>
<path d="M183.201 15.5427L183.396 17.7247" stroke="#FFD9EB" stroke-width="1.5328" stroke-miterlimit="10" stroke-linecap="round"/>
<path d="M184.834 17.8723L186.21 15.4858" stroke="#FFD9EB" stroke-width="1.5328" stroke-miterlimit="10" stroke-linecap="round"/>
<path d="M189.049 24.798L190.934 22.7915" stroke="#FFD9EB" stroke-width="1.5328" stroke-miterlimit="10" stroke-linecap="round"/>
<path d="M187.474 16.7199L190.667 19.1004" stroke="#FFD9EB" stroke-width="1.5328" stroke-miterlimit="10" stroke-linecap="round"/>
<path d="M185.358 19.5398L187.673 18.802" stroke="#FFD9EB" stroke-width="1.5328" stroke-miterlimit="10" stroke-linecap="round"/>
<path d="M184.393 23.2249L185.757 22.3323" stroke="#FFD9EB" stroke-width="1.5328" stroke-miterlimit="10" stroke-linecap="round"/>
<path d="M181.693 27.049L182.331 25.6475" stroke="#FFD9EB" stroke-width="1.5328" stroke-miterlimit="10" stroke-linecap="round"/>
<path d="M189.025 20.8647H191.401" stroke="#FFD9EB" stroke-width="1.5328" stroke-miterlimit="10" stroke-linecap="round"/>
<path d="M186.898 20.9906L188.149 22.4977" stroke="#FFD9EB" stroke-width="1.5328" stroke-miterlimit="10" stroke-linecap="round"/>
<path d="M186.277 23.7263L185.281 27.0891" stroke="#FFD9EB" stroke-width="1.5328" stroke-miterlimit="10" stroke-linecap="round"/>
<path d="M179.423 25.785L182.745 22.7982" stroke="#FFD9EB" stroke-width="1.5328" stroke-miterlimit="10" stroke-linecap="round"/>
<path d="M179.018 17.2223L180.195 17.7165" stroke="#FFD9EB" stroke-width="1.5328" stroke-miterlimit="10" stroke-linecap="round"/>
<path d="M181.676 17.9591L181.74 18.3372" stroke="#FFD9EB" stroke-width="1.5328" stroke-miterlimit="10" stroke-linecap="round"/>
<path d="M191.161 24.7969L191.225 25.175" stroke="#FFD9EB" stroke-width="1.5328" stroke-miterlimit="10" stroke-linecap="round"/>
<path d="M181.078 21.6422L181.142 22.0202" stroke="#FFD9EB" stroke-width="1.5328" stroke-miterlimit="10" stroke-linecap="round"/>
<path d="M190.7 15.7892L190.126 16.2723" stroke="#FFD9EB" stroke-width="1.5328" stroke-miterlimit="10" stroke-linecap="round"/>
<path d="M180.534 15.4691L179.96 15.9521" stroke="#FFD9EB" stroke-width="1.5328" stroke-miterlimit="10" stroke-linecap="round"/>
<path d="M183.51 24.5047L184.149 25.6145" stroke="#FFD9EB" stroke-width="1.5328" stroke-miterlimit="10" stroke-linecap="round"/>
<path d="M180.019 20.4882L179.393 21.7442" stroke="#FFD9EB" stroke-width="1.5328" stroke-miterlimit="10" stroke-linecap="round"/>
<path d="M187.553 25.6875L190.383 26.6887" stroke="#FFD9EB" stroke-width="1.5328" stroke-miterlimit="10" stroke-linecap="round"/>
<path d="M181.895 32.6025L184.646 34.1102" stroke="#FFD9EB" stroke-width="1.5328" stroke-miterlimit="10" stroke-linecap="round"/>
<path d="M183.201 28.4111L183.396 30.5926" stroke="#FFD9EB" stroke-width="1.5328" stroke-miterlimit="10" stroke-linecap="round"/>
<path d="M184.834 30.7407L186.21 28.3542" stroke="#FFD9EB" stroke-width="1.5328" stroke-miterlimit="10" stroke-linecap="round"/>
<path d="M189.049 37.6659L190.934 35.6599" stroke="#FFD9EB" stroke-width="1.5328" stroke-miterlimit="10" stroke-linecap="round"/>
<path d="M187.474 29.5883L190.667 31.9688" stroke="#FFD9EB" stroke-width="1.5328" stroke-miterlimit="10" stroke-linecap="round"/>
<path d="M185.358 32.4077L187.673 31.6699" stroke="#FFD9EB" stroke-width="1.5328" stroke-miterlimit="10" stroke-linecap="round"/>
<path d="M184.393 36.0933L185.757 35.2007" stroke="#FFD9EB" stroke-width="1.5328" stroke-miterlimit="10" stroke-linecap="round"/>
<path d="M181.693 39.9169L182.331 38.5159" stroke="#FFD9EB" stroke-width="1.5328" stroke-miterlimit="10" stroke-linecap="round"/>
<path d="M189.025 33.7332H191.401" stroke="#FFD9EB" stroke-width="1.5328" stroke-miterlimit="10" stroke-linecap="round"/>
<path d="M186.898 33.8585L188.149 35.3661" stroke="#FFD9EB" stroke-width="1.5328" stroke-miterlimit="10" stroke-linecap="round"/>
<path d="M186.277 36.5942L185.281 39.957" stroke="#FFD9EB" stroke-width="1.5328" stroke-miterlimit="10" stroke-linecap="round"/>
<path d="M179.423 38.6529L182.745 35.666" stroke="#FFD9EB" stroke-width="1.5328" stroke-miterlimit="10" stroke-linecap="round"/>
<path d="M179.018 30.0902L180.195 30.5845" stroke="#FFD9EB" stroke-width="1.5328" stroke-miterlimit="10" stroke-linecap="round"/>
<path d="M181.676 30.8275L181.74 31.2051" stroke="#FFD9EB" stroke-width="1.5328" stroke-miterlimit="10" stroke-linecap="round"/>
<path d="M191.161 37.6653L191.225 38.0434" stroke="#FFD9EB" stroke-width="1.5328" stroke-miterlimit="10" stroke-linecap="round"/>
<path d="M181.078 34.5106L181.142 34.8886" stroke="#FFD9EB" stroke-width="1.5328" stroke-miterlimit="10" stroke-linecap="round"/>
<path d="M190.7 28.6577L190.126 29.1407" stroke="#FFD9EB" stroke-width="1.5328" stroke-miterlimit="10" stroke-linecap="round"/>
<path d="M180.534 28.3375L179.96 28.8206" stroke="#FFD9EB" stroke-width="1.5328" stroke-miterlimit="10" stroke-linecap="round"/>
<path d="M183.51 37.3726L184.149 38.4829" stroke="#FFD9EB" stroke-width="1.5328" stroke-miterlimit="10" stroke-linecap="round"/>
<path d="M180.019 33.3561L179.393 34.6126" stroke="#FFD9EB" stroke-width="1.5328" stroke-miterlimit="10" stroke-linecap="round"/>
<path d="M187.553 38.556L190.383 39.5567" stroke="#FFD9EB" stroke-width="1.5328" stroke-miterlimit="10" stroke-linecap="round"/>
<path d="M168.737 6.86633L171.489 8.37345" stroke="#FFD9EB" stroke-width="1.5328" stroke-miterlimit="10" stroke-linecap="round"/>
<path d="M170.043 2.6748L170.238 4.85633" stroke="#FFD9EB" stroke-width="1.5328" stroke-miterlimit="10" stroke-linecap="round"/>
<path d="M171.677 5.00396L173.053 2.61743" stroke="#FFD9EB" stroke-width="1.5328" stroke-miterlimit="10" stroke-linecap="round"/>
<path d="M175.892 11.9296L177.776 9.92365" stroke="#FFD9EB" stroke-width="1.5328" stroke-miterlimit="10" stroke-linecap="round"/>
<path d="M174.315 3.85156L177.509 6.23251" stroke="#FFD9EB" stroke-width="1.5328" stroke-miterlimit="10" stroke-linecap="round"/>
<path d="M172.201 6.67142L174.515 5.93359" stroke="#FFD9EB" stroke-width="1.5328" stroke-miterlimit="10" stroke-linecap="round"/>
<path d="M171.235 10.3565L172.6 9.46442" stroke="#FFD9EB" stroke-width="1.5328" stroke-miterlimit="10" stroke-linecap="round"/>
<path d="M168.535 14.1807L169.172 12.7796" stroke="#FFD9EB" stroke-width="1.5328" stroke-miterlimit="10" stroke-linecap="round"/>
<path d="M175.867 7.9964H178.244" stroke="#FFD9EB" stroke-width="1.5328" stroke-miterlimit="10" stroke-linecap="round"/>
<path d="M173.74 8.12225L174.991 9.62938" stroke="#FFD9EB" stroke-width="1.5328" stroke-miterlimit="10" stroke-linecap="round"/>
<path d="M173.12 10.8579L172.123 14.2208" stroke="#FFD9EB" stroke-width="1.5328" stroke-miterlimit="10" stroke-linecap="round"/>
<path d="M166.265 12.9166L169.587 9.92975" stroke="#FFD9EB" stroke-width="1.5328" stroke-miterlimit="10" stroke-linecap="round"/>
<path d="M165.86 4.354L167.037 4.84826" stroke="#FFD9EB" stroke-width="1.5328" stroke-miterlimit="10" stroke-linecap="round"/>
<path d="M168.518 5.0907L168.582 5.46875" stroke="#FFD9EB" stroke-width="1.5328" stroke-miterlimit="10" stroke-linecap="round"/>
<path d="M178.003 11.9291L178.067 12.3066" stroke="#FFD9EB" stroke-width="1.5328" stroke-miterlimit="10" stroke-linecap="round"/>
<path d="M167.92 8.77429L167.985 9.15183" stroke="#FFD9EB" stroke-width="1.5328" stroke-miterlimit="10" stroke-linecap="round"/>
<path d="M177.542 2.92139L176.968 3.40397" stroke="#FFD9EB" stroke-width="1.5328" stroke-miterlimit="10" stroke-linecap="round"/>
<path d="M167.376 2.60071L166.803 3.0838" stroke="#FFD9EB" stroke-width="1.5328" stroke-miterlimit="10" stroke-linecap="round"/>
<path d="M170.353 11.6363L170.991 12.7466" stroke="#FFD9EB" stroke-width="1.5328" stroke-miterlimit="10" stroke-linecap="round"/>
<path d="M166.861 7.61987L166.235 8.87581" stroke="#FFD9EB" stroke-width="1.5328" stroke-miterlimit="10" stroke-linecap="round"/>
<path d="M174.396 12.8196L177.226 13.8203" stroke="#FFD9EB" stroke-width="1.5328" stroke-miterlimit="10" stroke-linecap="round"/>
<path d="M168.737 19.7341L171.489 21.2418" stroke="#FFD9EB" stroke-width="1.5328" stroke-miterlimit="10" stroke-linecap="round"/>
<path d="M170.043 15.5427L170.238 17.7247" stroke="#FFD9EB" stroke-width="1.5328" stroke-miterlimit="10" stroke-linecap="round"/>
<path d="M171.677 17.8723L173.053 15.4858" stroke="#FFD9EB" stroke-width="1.5328" stroke-miterlimit="10" stroke-linecap="round"/>
<path d="M175.892 24.798L177.776 22.7915" stroke="#FFD9EB" stroke-width="1.5328" stroke-miterlimit="10" stroke-linecap="round"/>
<path d="M174.315 16.7199L177.509 19.1004" stroke="#FFD9EB" stroke-width="1.5328" stroke-miterlimit="10" stroke-linecap="round"/>
<path d="M172.201 19.5398L174.515 18.802" stroke="#FFD9EB" stroke-width="1.5328" stroke-miterlimit="10" stroke-linecap="round"/>
<path d="M171.235 23.2249L172.6 22.3323" stroke="#FFD9EB" stroke-width="1.5328" stroke-miterlimit="10" stroke-linecap="round"/>
<path d="M168.535 27.049L169.172 25.6475" stroke="#FFD9EB" stroke-width="1.5328" stroke-miterlimit="10" stroke-linecap="round"/>
<path d="M175.867 20.8647H178.244" stroke="#FFD9EB" stroke-width="1.5328" stroke-miterlimit="10" stroke-linecap="round"/>
<path d="M173.74 20.9906L174.991 22.4977" stroke="#FFD9EB" stroke-width="1.5328" stroke-miterlimit="10" stroke-linecap="round"/>
<path d="M173.12 23.7263L172.123 27.0891" stroke="#FFD9EB" stroke-width="1.5328" stroke-miterlimit="10" stroke-linecap="round"/>
<path d="M166.265 25.785L169.587 22.7982" stroke="#FFD9EB" stroke-width="1.5328" stroke-miterlimit="10" stroke-linecap="round"/>
<path d="M165.86 17.2223L167.037 17.7165" stroke="#FFD9EB" stroke-width="1.5328" stroke-miterlimit="10" stroke-linecap="round"/>
<path d="M168.518 17.9591L168.582 18.3372" stroke="#FFD9EB" stroke-width="1.5328" stroke-miterlimit="10" stroke-linecap="round"/>
<path d="M178.003 24.7969L178.067 25.175" stroke="#FFD9EB" stroke-width="1.5328" stroke-miterlimit="10" stroke-linecap="round"/>
<path d="M167.92 21.6422L167.985 22.0202" stroke="#FFD9EB" stroke-width="1.5328" stroke-miterlimit="10" stroke-linecap="round"/>
<path d="M177.542 15.7892L176.968 16.2723" stroke="#FFD9EB" stroke-width="1.5328" stroke-miterlimit="10" stroke-linecap="round"/>
<path d="M167.376 15.4691L166.803 15.9521" stroke="#FFD9EB" stroke-width="1.5328" stroke-miterlimit="10" stroke-linecap="round"/>
<path d="M170.353 24.5047L170.991 25.6145" stroke="#FFD9EB" stroke-width="1.5328" stroke-miterlimit="10" stroke-linecap="round"/>
<path d="M166.861 20.4882L166.235 21.7442" stroke="#FFD9EB" stroke-width="1.5328" stroke-miterlimit="10" stroke-linecap="round"/>
<path d="M174.396 25.6875L177.226 26.6887" stroke="#FFD9EB" stroke-width="1.5328" stroke-miterlimit="10" stroke-linecap="round"/>
<path d="M168.737 32.6025L171.489 34.1102" stroke="#FFD9EB" stroke-width="1.5328" stroke-miterlimit="10" stroke-linecap="round"/>
<path d="M170.043 28.4111L170.238 30.5926" stroke="#FFD9EB" stroke-width="1.5328" stroke-miterlimit="10" stroke-linecap="round"/>
<path d="M171.677 30.7407L173.053 28.3542" stroke="#FFD9EB" stroke-width="1.5328" stroke-miterlimit="10" stroke-linecap="round"/>
<path d="M175.892 37.6659L177.776 35.6599" stroke="#FFD9EB" stroke-width="1.5328" stroke-miterlimit="10" stroke-linecap="round"/>
<path d="M174.315 29.5883L177.509 31.9688" stroke="#FFD9EB" stroke-width="1.5328" stroke-miterlimit="10" stroke-linecap="round"/>
<path d="M172.201 32.4077L174.515 31.6699" stroke="#FFD9EB" stroke-width="1.5328" stroke-miterlimit="10" stroke-linecap="round"/>
<path d="M171.235 36.0933L172.6 35.2007" stroke="#FFD9EB" stroke-width="1.5328" stroke-miterlimit="10" stroke-linecap="round"/>
<path d="M168.535 39.9169L169.172 38.5159" stroke="#FFD9EB" stroke-width="1.5328" stroke-miterlimit="10" stroke-linecap="round"/>
<path d="M175.867 33.7332H178.244" stroke="#FFD9EB" stroke-width="1.5328" stroke-miterlimit="10" stroke-linecap="round"/>
<path d="M173.74 33.8585L174.991 35.3661" stroke="#FFD9EB" stroke-width="1.5328" stroke-miterlimit="10" stroke-linecap="round"/>
<path d="M173.12 36.5942L172.123 39.957" stroke="#FFD9EB" stroke-width="1.5328" stroke-miterlimit="10" stroke-linecap="round"/>
<path d="M166.265 38.6529L169.587 35.666" stroke="#FFD9EB" stroke-width="1.5328" stroke-miterlimit="10" stroke-linecap="round"/>
<path d="M165.86 30.0902L167.037 30.5845" stroke="#FFD9EB" stroke-width="1.5328" stroke-miterlimit="10" stroke-linecap="round"/>
<path d="M168.518 30.8275L168.582 31.2051" stroke="#FFD9EB" stroke-width="1.5328" stroke-miterlimit="10" stroke-linecap="round"/>
<path d="M178.003 37.6653L178.067 38.0434" stroke="#FFD9EB" stroke-width="1.5328" stroke-miterlimit="10" stroke-linecap="round"/>
<path d="M167.92 34.5106L167.985 34.8886" stroke="#FFD9EB" stroke-width="1.5328" stroke-miterlimit="10" stroke-linecap="round"/>
<path d="M177.542 28.6577L176.968 29.1407" stroke="#FFD9EB" stroke-width="1.5328" stroke-miterlimit="10" stroke-linecap="round"/>
<path d="M167.376 28.3375L166.803 28.8206" stroke="#FFD9EB" stroke-width="1.5328" stroke-miterlimit="10" stroke-linecap="round"/>
<path d="M170.353 37.3726L170.991 38.4829" stroke="#FFD9EB" stroke-width="1.5328" stroke-miterlimit="10" stroke-linecap="round"/>
<path d="M166.861 33.3561L166.235 34.6126" stroke="#FFD9EB" stroke-width="1.5328" stroke-miterlimit="10" stroke-linecap="round"/>
<path d="M174.396 38.556L177.226 39.5567" stroke="#FFD9EB" stroke-width="1.5328" stroke-miterlimit="10" stroke-linecap="round"/>
<path d="M2.55176 59.8789C2.69072 54.982 6.68423 51.0539 11.5944 51.0539C12.1047 51.0539 12.6045 51.0985 13.0916 51.1797C13.3503 46.3935 17.2958 42.5922 22.1267 42.5922C25.9726 42.5922 29.2561 45.003 30.5664 48.4009C31.3957 48.1492 32.2744 48.0127 33.1855 48.0127C38.183 48.0127 42.2347 52.0815 42.2347 57.1001C42.2347 58.0693 42.0821 59.0025 41.8021 59.8784H2.55176V59.8789Z" fill="#F2F2F2"/>
<path d="M20.6453 59.8789C20.6453 57.8958 19.0318 56.2598 17.0414 56.2598C15.051 56.2598 13.4375 57.8958 13.4375 59.8789H20.6453Z" fill="#03EFC2"/>
<path d="M17.0347 59.8789C17.0347 57.367 15.0276 55.3768 12.5515 55.3768C10.0755 55.3768 8.06836 57.367 8.06836 59.8789H17.0347Z" fill="url(#paint0_linear)"/>
<path d="M16.5142 26.6086C29.5553 26.6086 29.5553 43.6254 42.5965 43.6254C55.6397 43.6254 55.6397 26.6086 68.6824 26.6086C81.7251 26.6086 81.7256 43.6254 94.7683 43.6254" stroke="#FD91C2" stroke-width="3.105" stroke-miterlimit="10" stroke-linecap="round" stroke-linejoin="round"/>
<path d="M35.4917 68.2447V26.7349H54.1828C59.6043 26.7349 63.7449 27.9355 66.606 30.3358C69.4671 32.7365 70.8976 36.1958 70.8976 40.7131C70.8976 43.6619 70.1775 46.091 68.7379 48.0001C67.2978 49.9096 65.3543 51.0245 62.9076 51.3457L73.9477 68.2447H57.289L50.0604 54.5497V68.2447H35.4917ZM50.0604 37.4243V45.5334H52.3758C53.7876 45.5334 54.8746 45.1888 55.6371 44.4982C56.3996 43.8085 56.7806 42.821 56.7806 41.5352C56.7806 40.2122 56.3996 39.1958 55.6371 38.4869C54.8746 37.7785 53.7876 37.4238 52.3758 37.4238H50.0604V37.4243Z" fill="#3575F7"/>
<path d="M118.475 47.5748C118.475 50.6185 117.938 53.449 116.865 56.067C115.792 58.6854 114.221 61.0242 112.15 63.0845C110.079 65.1071 107.693 66.6574 104.993 67.7347C102.291 68.812 99.4159 69.3509 96.3668 69.3509C93.2799 69.3509 90.3905 68.812 87.6987 67.7347C85.0068 66.6574 82.6167 65.0884 80.5272 63.0281C78.4751 61.0247 76.9228 58.7184 75.8687 56.1101C74.8141 53.5013 74.2876 50.6565 74.2876 47.5753C74.2876 44.4946 74.8141 41.6402 75.8687 39.0121C76.9228 36.3851 78.4751 34.0696 80.5272 32.0657C82.598 30.0242 84.9791 28.4699 87.6709 27.4017C90.3627 26.334 93.2612 25.7997 96.3673 25.7997C99.4735 25.7997 102.372 26.334 105.064 27.4017C107.755 28.4699 110.146 30.0242 112.235 32.0657C114.268 34.0883 115.816 36.4135 116.88 39.041C117.942 41.6681 118.475 44.5124 118.475 47.5748ZM96.3668 55.4007C98.4563 55.4007 100.136 54.6872 101.407 53.2597C102.678 51.8328 103.312 49.938 103.312 47.5748C103.312 45.1933 102.677 43.2793 101.407 41.8335C100.136 40.3873 98.4563 39.6642 96.3668 39.6642C94.2774 39.6642 92.5926 40.3924 91.3127 41.8477C90.0327 43.3036 89.3925 45.2126 89.3925 47.5753C89.3925 49.9385 90.0327 51.8333 91.3127 53.2603C92.5926 54.6872 94.2774 55.4007 96.3668 55.4007Z" fill="#3575F7"/>
<path d="M117.064 68.2447L131.803 26.7344H148.349L162.804 68.2447H146.823L145.497 63.0277H134.288L133.017 68.2447H117.064ZM136.772 53.1608H142.955L141.684 48.4542C141.063 46.0723 140.64 44.2389 140.414 42.9535C140.188 41.6681 140.047 40.4584 139.991 39.3242H139.736C139.68 40.4584 139.538 41.6686 139.312 42.9535C139.087 44.2389 138.663 46.0723 138.042 48.4542L136.772 53.1608Z" fill="#3575F7"/>
<path d="M164.728 64.7007L169.471 53.0756C171.598 54.569 173.495 55.6605 175.16 56.3506C176.826 57.0408 178.384 57.3858 179.833 57.3858C180.85 57.3858 181.65 57.1925 182.233 56.8043C182.816 56.4171 183.108 55.8924 183.108 55.2307C183.108 54.0783 181.649 53.1989 178.732 52.594C177.79 52.3859 177.057 52.2251 176.53 52.1119C173.443 51.3558 171.081 50.0136 169.443 48.0853C167.805 46.1575 166.987 43.7568 166.987 40.8836C166.987 36.4226 168.577 32.7934 171.758 29.9958C174.939 27.1982 179.109 25.7992 184.267 25.7992C186.638 25.7992 188.972 26.1108 191.268 26.7349C193.565 27.3586 195.88 28.304 198.214 29.57L193.697 40.4294C192.266 39.3714 190.831 38.563 189.391 38.0054C187.95 37.4482 186.553 37.1691 185.198 37.1691C184.162 37.1691 183.363 37.3442 182.798 37.6938C182.233 38.0439 181.951 38.5301 181.951 39.1542C181.951 40.3264 184.012 41.3565 188.134 42.2446C188.793 42.3958 189.301 42.5095 189.659 42.5846C192.501 43.2275 194.741 44.5408 196.379 46.5259C198.016 48.5111 198.835 50.9118 198.835 53.7276C198.835 58.3211 197.183 62.0731 193.88 64.9844C190.576 67.8956 186.28 69.3504 180.991 69.3504C178.28 69.3504 175.569 68.9627 172.859 68.1879C170.149 67.4135 167.438 66.2509 164.728 64.7007Z" fill="#3575F7"/>
<path d="M140.765 2.52197L156.002 17.8241" stroke="#01DDF1" stroke-width="2.5592" stroke-miterlimit="10" stroke-linecap="round" stroke-linejoin="round"/>
<path d="M156.002 2.52197L140.765 17.8241" stroke="#01DDF1" stroke-width="2.5592" stroke-miterlimit="10" stroke-linecap="round" stroke-linejoin="round"/>
<path d="M5.14307 45.2776H22.818L17.2383 12.7106H10.7222L5.14307 45.2776Z" fill="#01DDF1"/>
<path d="M14.4014 59.8789V19.283" stroke="#0650F5" stroke-miterlimit="10" stroke-linecap="round" stroke-linejoin="round"/>
<path d="M14.3125 23.3269L16.4308 21.1997" stroke="#0650F5" stroke-miterlimit="10" stroke-linecap="round" stroke-linejoin="round"/>
<path d="M14.0564 23.3283L11.9619 21.2249" stroke="#0650F5" stroke-miterlimit="10" stroke-linecap="round" stroke-linejoin="round"/>
<path d="M14.3125 28.5998L17.2176 25.6825" stroke="#0650F5" stroke-miterlimit="10" stroke-linecap="round" stroke-linejoin="round"/>
<path d="M14.0564 28.5998L11.1509 25.6825" stroke="#0650F5" stroke-miterlimit="10" stroke-linecap="round" stroke-linejoin="round"/>
<path d="M14.3125 42.5637L19.3849 37.47" stroke="#0650F5" stroke-miterlimit="10" stroke-linecap="round" stroke-linejoin="round"/>
<path d="M14.0563 42.5637L9.2417 37.7288" stroke="#0650F5" stroke-miterlimit="10" stroke-linecap="round" stroke-linejoin="round"/>
<path d="M14.3125 35.1145L18.3004 31.1097" stroke="#0650F5" stroke-miterlimit="10" stroke-linecap="round" stroke-linejoin="round"/>
<path d="M14.0561 35.1144L9.91455 30.9554" stroke="#0650F5" stroke-miterlimit="10" stroke-linecap="round" stroke-linejoin="round"/>
<path d="M84.3553 86.8701H25.3921" stroke="#3575F7" stroke-width="2" stroke-miterlimit="10"/>
<path d="M90.3792 86.8701H86.5029" stroke="#3575F7" stroke-width="2" stroke-miterlimit="10"/>
<path d="M198.519 79.9526H126.179V98.0056H198.519V79.9526Z" fill="#FFD9EB"/>
<path d="M142.548 82.6466H134.961V90.2654H142.548V82.6466Z" fill="white"/>
<path d="M153.444 82.6466H145.857V90.2654H153.444V82.6466Z" fill="#FD91C2"/>
<path d="M164.34 82.6466H156.753V90.2654H164.34V82.6466Z" stroke="#FD6125" stroke-miterlimit="10" stroke-linecap="round" stroke-linejoin="round"/>
<path d="M175.236 82.6466H167.649V90.2654H175.236V82.6466Z" stroke="#FD6125" stroke-miterlimit="10" stroke-linecap="round" stroke-linejoin="round"/>
<path d="M185.734 82.6466H178.147V90.2654H185.734V82.6466Z" stroke="#FD6125" stroke-miterlimit="10" stroke-linecap="round" stroke-linejoin="round"/>
<path d="M164.318 82.6466H160.547V86.4332H164.318V82.6466Z" stroke="#FD6125" stroke-width="1.3927" stroke-miterlimit="10" stroke-linecap="round" stroke-linejoin="round"/>
<path d="M175.236 82.6466H171.465V86.4332H175.236V82.6466Z" stroke="#FD6125" stroke-width="1.3927" stroke-miterlimit="10" stroke-linecap="round" stroke-linejoin="round"/>
<path d="M196.418 77.8436H124.079V95.8966H196.418V77.8436Z" stroke="#0650F5" stroke-width="2" stroke-miterlimit="10" stroke-linecap="round" stroke-linejoin="round"/>
<path d="M153.444 82.6466H145.857V90.2654H153.444V82.6466Z" stroke="#0650F5" stroke-miterlimit="10" stroke-linecap="round" stroke-linejoin="round"/>
<path d="M142.548 82.6466H134.961V90.2654H142.548V82.6466Z" stroke="#0650F5" stroke-miterlimit="10" stroke-linecap="round" stroke-linejoin="round"/>
<path d="M93.4604 86.8701H120.325" stroke="#3575F7" stroke-width="2" stroke-miterlimit="10"/>
<path d="M120.325 84.9702H118.722V88.7705H120.325V84.9702Z" fill="#0650F5"/>
<path d="M123.904 84.9702H118.722V88.7705H123.904V84.9702Z" fill="#0650F5"/>
<path d="M118.856 85.5076H117.254V88.2331H118.856V85.5076Z" fill="#0650F5"/>
<path d="M21.3581 92.6931C25.7935 92.6931 29.3891 89.0823 29.3891 84.6282C29.3891 80.1741 25.7935 76.5633 21.3581 76.5633C16.9227 76.5633 13.3271 80.1741 13.3271 84.6282C13.3271 89.0823 16.9227 92.6931 21.3581 92.6931Z" fill="#CBDDFD"/>
<path d="M19.0617 90.3873C23.4971 90.3873 27.0927 86.7765 27.0927 82.3224C27.0927 77.8683 23.4971 74.2575 19.0617 74.2575C14.6264 74.2575 11.0308 77.8683 11.0308 82.3224C11.0308 86.7765 14.6264 90.3873 19.0617 90.3873Z" stroke="#FD91C2" stroke-width="2" stroke-miterlimit="10" stroke-linecap="round" stroke-linejoin="round"/>
<path d="M9.38037 92.0446L28.743 72.6002" stroke="#FD91C2" stroke-width="2" stroke-miterlimit="10" stroke-linecap="round" stroke-linejoin="round"/>
<path d="M200.503 88.2331H211.703V27.829" stroke="#FD6125" stroke-width="2" stroke-miterlimit="10"/>
<path d="M202.105 86.3332H200.503V90.1335H202.105V86.3332Z" fill="#FD6125"/>
<path d="M202.105 86.3332H196.924V90.1335H202.105V86.3332Z" fill="#FD6125"/>
<path d="M203.575 86.8701H201.972V89.5956H203.575V86.8701Z" fill="#FD6125"/>
<defs>
<linearGradient id="paint0_linear" x1="17.0345" y1="57.6279" x2="8.06821" y2="57.6279" gradientUnits="userSpaceOnUse">
<stop stop-color="#01DDF1"/>
<stop offset="0.1739" stop-color="#01DFEB"/>
<stop offset="0.4063" stop-color="#02E6DA"/>
<stop offset="0.64" stop-color="#03EFC2"/>
</linearGradient>
</defs>
</svg>
