<svg width="177" height="147" viewBox="0 0 177 147" fill="none" xmlns="http://www.w3.org/2000/svg">
<g clip-path="url(#clip0)">
<mask id="mask0" mask-type="alpha" maskUnits="userSpaceOnUse" x="0" y="1" width="47" height="47">
<ellipse cx="23.0281" cy="24.8006" rx="23.0281" ry="22.9969" fill="#C4C4C4"/>
</mask>
<g mask="url(#mask0)">
<path d="M34.874 8.50781L38.1184 10.2771" stroke="#FFD9EB" stroke-width="1.5328" stroke-miterlimit="10" stroke-linecap="round"/>
<path d="M36.4146 3.58875L36.6439 6.14954" stroke="#FFD9EB" stroke-width="1.5328" stroke-miterlimit="10" stroke-linecap="round"/>
<path d="M38.3403 6.32277L39.9625 3.52197" stroke="#FFD9EB" stroke-width="1.5328" stroke-miterlimit="10" stroke-linecap="round"/>
<path d="M43.3096 14.4507L45.5311 12.0959" stroke="#FFD9EB" stroke-width="1.5328" stroke-miterlimit="10" stroke-linecap="round"/>
<path d="M41.4512 4.97034L45.2163 7.76399" stroke="#FFD9EB" stroke-width="1.5328" stroke-miterlimit="10" stroke-linecap="round"/>
<path d="M38.958 8.27973L41.6859 7.41382" stroke="#FFD9EB" stroke-width="1.5328" stroke-miterlimit="10" stroke-linecap="round"/>
<path d="M37.8198 12.6046L39.4283 11.557" stroke="#FFD9EB" stroke-width="1.5328" stroke-miterlimit="10" stroke-linecap="round"/>
<path d="M34.6362 17.0925L35.3881 15.4476" stroke="#FFD9EB" stroke-width="1.5328" stroke-miterlimit="10" stroke-linecap="round"/>
<path d="M43.2798 9.83472H46.0822" stroke="#FFD9EB" stroke-width="1.5328" stroke-miterlimit="10" stroke-linecap="round"/>
<path d="M40.7729 9.98242L42.2474 11.7512" stroke="#FFD9EB" stroke-width="1.5328" stroke-miterlimit="10" stroke-linecap="round"/>
<path d="M40.0411 13.1924L38.8657 17.1396" stroke="#FFD9EB" stroke-width="1.5328" stroke-miterlimit="10" stroke-linecap="round"/>
<path d="M31.9595 15.6089L35.8759 12.103" stroke="#FFD9EB" stroke-width="1.5328" stroke-miterlimit="10" stroke-linecap="round"/>
<path d="M31.4824 5.55933L32.8705 6.13997" stroke="#FFD9EB" stroke-width="1.5328" stroke-miterlimit="10" stroke-linecap="round"/>
<path d="M34.6162 6.42468L34.6919 6.86836" stroke="#FFD9EB" stroke-width="1.5328" stroke-miterlimit="10" stroke-linecap="round"/>
<path d="M45.7983 14.4495L45.874 14.8931" stroke="#FFD9EB" stroke-width="1.5328" stroke-miterlimit="10" stroke-linecap="round"/>
<path d="M33.9111 10.7471L33.9874 11.1907" stroke="#FFD9EB" stroke-width="1.5328" stroke-miterlimit="10" stroke-linecap="round"/>
<path d="M45.2548 3.87817L44.5786 4.44512" stroke="#FFD9EB" stroke-width="1.5328" stroke-miterlimit="10" stroke-linecap="round"/>
<path d="M33.2694 3.50232L32.5933 4.06927" stroke="#FFD9EB" stroke-width="1.5328" stroke-miterlimit="10" stroke-linecap="round"/>
<path d="M36.7783 14.1058L37.5313 15.4089" stroke="#FFD9EB" stroke-width="1.5328" stroke-miterlimit="10" stroke-linecap="round"/>
<path d="M32.6617 9.39221L31.9248 10.8668" stroke="#FFD9EB" stroke-width="1.5328" stroke-miterlimit="10" stroke-linecap="round"/>
<path d="M41.5449 15.4946L44.8823 16.6696" stroke="#FFD9EB" stroke-width="1.5328" stroke-miterlimit="10" stroke-linecap="round"/>
<path d="M34.874 23.61L38.1184 25.3787" stroke="#FFD9EB" stroke-width="1.5328" stroke-miterlimit="10" stroke-linecap="round"/>
<path d="M36.4146 18.6909L36.6439 21.2511" stroke="#FFD9EB" stroke-width="1.5328" stroke-miterlimit="10" stroke-linecap="round"/>
<path d="M38.3403 21.4251L39.9625 18.6237" stroke="#FFD9EB" stroke-width="1.5328" stroke-miterlimit="10" stroke-linecap="round"/>
<path d="M43.3096 29.5523L45.5311 27.1981" stroke="#FFD9EB" stroke-width="1.5328" stroke-miterlimit="10" stroke-linecap="round"/>
<path d="M41.4512 20.0725L45.2163 22.8662" stroke="#FFD9EB" stroke-width="1.5328" stroke-miterlimit="10" stroke-linecap="round"/>
<path d="M38.958 23.3813L41.6859 22.5154" stroke="#FFD9EB" stroke-width="1.5328" stroke-miterlimit="10" stroke-linecap="round"/>
<path d="M37.8198 27.7061L39.4283 26.6591" stroke="#FFD9EB" stroke-width="1.5328" stroke-miterlimit="10" stroke-linecap="round"/>
<path d="M34.6362 32.1941L35.3881 30.5498" stroke="#FFD9EB" stroke-width="1.5328" stroke-miterlimit="10" stroke-linecap="round"/>
<path d="M43.2798 24.9369H46.0822" stroke="#FFD9EB" stroke-width="1.5328" stroke-miterlimit="10" stroke-linecap="round"/>
<path d="M40.7729 25.084L42.2474 26.8533" stroke="#FFD9EB" stroke-width="1.5328" stroke-miterlimit="10" stroke-linecap="round"/>
<path d="M40.0411 28.2945L38.8657 32.2411" stroke="#FFD9EB" stroke-width="1.5328" stroke-miterlimit="10" stroke-linecap="round"/>
<path d="M31.9595 30.7106L35.8759 27.2053" stroke="#FFD9EB" stroke-width="1.5328" stroke-miterlimit="10" stroke-linecap="round"/>
<path d="M31.4824 20.6615L32.8705 21.2416" stroke="#FFD9EB" stroke-width="1.5328" stroke-miterlimit="10" stroke-linecap="round"/>
<path d="M34.6162 21.5269L34.6919 21.9699" stroke="#FFD9EB" stroke-width="1.5328" stroke-miterlimit="10" stroke-linecap="round"/>
<path d="M45.7983 29.5516L45.874 29.9953" stroke="#FFD9EB" stroke-width="1.5328" stroke-miterlimit="10" stroke-linecap="round"/>
<path d="M33.9111 25.8492L33.9874 26.2929" stroke="#FFD9EB" stroke-width="1.5328" stroke-miterlimit="10" stroke-linecap="round"/>
<path d="M45.2548 18.9803L44.5786 19.5473" stroke="#FFD9EB" stroke-width="1.5328" stroke-miterlimit="10" stroke-linecap="round"/>
<path d="M33.2694 18.6045L32.5933 19.1714" stroke="#FFD9EB" stroke-width="1.5328" stroke-miterlimit="10" stroke-linecap="round"/>
<path d="M36.7783 29.208L37.5313 30.511" stroke="#FFD9EB" stroke-width="1.5328" stroke-miterlimit="10" stroke-linecap="round"/>
<path d="M32.6617 24.4944L31.9248 25.9689" stroke="#FFD9EB" stroke-width="1.5328" stroke-miterlimit="10" stroke-linecap="round"/>
<path d="M41.5449 30.5968L44.8823 31.7712" stroke="#FFD9EB" stroke-width="1.5328" stroke-miterlimit="10" stroke-linecap="round"/>
<path d="M34.874 38.7122L38.1184 40.4809" stroke="#FFD9EB" stroke-width="1.5328" stroke-miterlimit="10" stroke-linecap="round"/>
<path d="M36.4146 33.7931L36.6439 36.3533" stroke="#FFD9EB" stroke-width="1.5328" stroke-miterlimit="10" stroke-linecap="round"/>
<path d="M38.3403 36.5266L39.9625 33.7258" stroke="#FFD9EB" stroke-width="1.5328" stroke-miterlimit="10" stroke-linecap="round"/>
<path d="M43.3096 44.6544L45.5311 42.3002" stroke="#FFD9EB" stroke-width="1.5328" stroke-miterlimit="10" stroke-linecap="round"/>
<path d="M41.4512 35.1747L45.2163 37.9683" stroke="#FFD9EB" stroke-width="1.5328" stroke-miterlimit="10" stroke-linecap="round"/>
<path d="M38.958 38.4835L41.6859 37.6176" stroke="#FFD9EB" stroke-width="1.5328" stroke-miterlimit="10" stroke-linecap="round"/>
<path d="M37.8198 42.8083L39.4283 41.7613" stroke="#FFD9EB" stroke-width="1.5328" stroke-miterlimit="10" stroke-linecap="round"/>
<path d="M34.6362 47.2962L35.3881 45.652" stroke="#FFD9EB" stroke-width="1.5328" stroke-miterlimit="10" stroke-linecap="round"/>
<path d="M43.2798 40.039H46.0822" stroke="#FFD9EB" stroke-width="1.5328" stroke-miterlimit="10" stroke-linecap="round"/>
<path d="M40.7729 40.1861L42.2474 41.9554" stroke="#FFD9EB" stroke-width="1.5328" stroke-miterlimit="10" stroke-linecap="round"/>
<path d="M40.0411 43.3967L38.8657 47.3433" stroke="#FFD9EB" stroke-width="1.5328" stroke-miterlimit="10" stroke-linecap="round"/>
<path d="M31.9595 45.8128L35.8759 42.3074" stroke="#FFD9EB" stroke-width="1.5328" stroke-miterlimit="10" stroke-linecap="round"/>
<path d="M31.4824 35.7637L32.8705 36.3437" stroke="#FFD9EB" stroke-width="1.5328" stroke-miterlimit="10" stroke-linecap="round"/>
<path d="M34.6162 36.629L34.6919 37.0721" stroke="#FFD9EB" stroke-width="1.5328" stroke-miterlimit="10" stroke-linecap="round"/>
<path d="M45.7983 44.6538L45.874 45.0969" stroke="#FFD9EB" stroke-width="1.5328" stroke-miterlimit="10" stroke-linecap="round"/>
<path d="M33.9111 40.9514L33.9874 41.3945" stroke="#FFD9EB" stroke-width="1.5328" stroke-miterlimit="10" stroke-linecap="round"/>
<path d="M45.2548 34.0825L44.5786 34.6495" stroke="#FFD9EB" stroke-width="1.5328" stroke-miterlimit="10" stroke-linecap="round"/>
<path d="M33.2694 33.7067L32.5933 34.2731" stroke="#FFD9EB" stroke-width="1.5328" stroke-miterlimit="10" stroke-linecap="round"/>
<path d="M36.7783 44.3102L37.5313 45.6132" stroke="#FFD9EB" stroke-width="1.5328" stroke-miterlimit="10" stroke-linecap="round"/>
<path d="M32.6617 39.5966L31.9248 41.0705" stroke="#FFD9EB" stroke-width="1.5328" stroke-miterlimit="10" stroke-linecap="round"/>
<path d="M41.5449 45.699L44.8823 46.8734" stroke="#FFD9EB" stroke-width="1.5328" stroke-miterlimit="10" stroke-linecap="round"/>
<path d="M19.3613 8.50781L22.6057 10.2771" stroke="#FFD9EB" stroke-width="1.5328" stroke-miterlimit="10" stroke-linecap="round"/>
<path d="M20.9014 3.58875L21.1313 6.14954" stroke="#FFD9EB" stroke-width="1.5328" stroke-miterlimit="10" stroke-linecap="round"/>
<path d="M22.8271 6.32277L24.4494 3.52197" stroke="#FFD9EB" stroke-width="1.5328" stroke-miterlimit="10" stroke-linecap="round"/>
<path d="M27.7969 14.4507L30.0184 12.0959" stroke="#FFD9EB" stroke-width="1.5328" stroke-miterlimit="10" stroke-linecap="round"/>
<path d="M25.938 4.97034L29.7031 7.76399" stroke="#FFD9EB" stroke-width="1.5328" stroke-miterlimit="10" stroke-linecap="round"/>
<path d="M23.4448 8.27973L26.1733 7.41382" stroke="#FFD9EB" stroke-width="1.5328" stroke-miterlimit="10" stroke-linecap="round"/>
<path d="M22.3066 12.6046L23.9157 11.557" stroke="#FFD9EB" stroke-width="1.5328" stroke-miterlimit="10" stroke-linecap="round"/>
<path d="M19.1235 17.0925L19.8754 15.4476" stroke="#FFD9EB" stroke-width="1.5328" stroke-miterlimit="10" stroke-linecap="round"/>
<path d="M27.7671 9.83472H30.5689" stroke="#FFD9EB" stroke-width="1.5328" stroke-miterlimit="10" stroke-linecap="round"/>
<path d="M25.2603 9.98242L26.7347 11.7512" stroke="#FFD9EB" stroke-width="1.5328" stroke-miterlimit="10" stroke-linecap="round"/>
<path d="M24.5284 13.1924L23.353 17.1396" stroke="#FFD9EB" stroke-width="1.5328" stroke-miterlimit="10" stroke-linecap="round"/>
<path d="M16.4468 15.6089L20.3632 12.103" stroke="#FFD9EB" stroke-width="1.5328" stroke-miterlimit="10" stroke-linecap="round"/>
<path d="M15.9697 5.55933L17.3578 6.13997" stroke="#FFD9EB" stroke-width="1.5328" stroke-miterlimit="10" stroke-linecap="round"/>
<path d="M19.103 6.42468L19.1793 6.86836" stroke="#FFD9EB" stroke-width="1.5328" stroke-miterlimit="10" stroke-linecap="round"/>
<path d="M30.2852 14.4495L30.3614 14.8931" stroke="#FFD9EB" stroke-width="1.5328" stroke-miterlimit="10" stroke-linecap="round"/>
<path d="M18.3984 10.7471L18.4741 11.1907" stroke="#FFD9EB" stroke-width="1.5328" stroke-miterlimit="10" stroke-linecap="round"/>
<path d="M29.7421 3.87817L29.0659 4.44512" stroke="#FFD9EB" stroke-width="1.5328" stroke-miterlimit="10" stroke-linecap="round"/>
<path d="M17.7567 3.50232L17.0806 4.06927" stroke="#FFD9EB" stroke-width="1.5328" stroke-miterlimit="10" stroke-linecap="round"/>
<path d="M21.2656 14.1058L22.0186 15.4089" stroke="#FFD9EB" stroke-width="1.5328" stroke-miterlimit="10" stroke-linecap="round"/>
<path d="M17.1491 9.39221L16.4116 10.8668" stroke="#FFD9EB" stroke-width="1.5328" stroke-miterlimit="10" stroke-linecap="round"/>
<path d="M26.0322 15.4946L29.3696 16.6696" stroke="#FFD9EB" stroke-width="1.5328" stroke-miterlimit="10" stroke-linecap="round"/>
<path d="M19.3613 23.61L22.6057 25.3787" stroke="#FFD9EB" stroke-width="1.5328" stroke-miterlimit="10" stroke-linecap="round"/>
<path d="M20.9014 18.6909L21.1313 21.2511" stroke="#FFD9EB" stroke-width="1.5328" stroke-miterlimit="10" stroke-linecap="round"/>
<path d="M22.8271 21.4251L24.4494 18.6237" stroke="#FFD9EB" stroke-width="1.5328" stroke-miterlimit="10" stroke-linecap="round"/>
<path d="M27.7969 29.5523L30.0184 27.1981" stroke="#FFD9EB" stroke-width="1.5328" stroke-miterlimit="10" stroke-linecap="round"/>
<path d="M25.938 20.0725L29.7031 22.8662" stroke="#FFD9EB" stroke-width="1.5328" stroke-miterlimit="10" stroke-linecap="round"/>
<path d="M23.4448 23.3813L26.1733 22.5154" stroke="#FFD9EB" stroke-width="1.5328" stroke-miterlimit="10" stroke-linecap="round"/>
<path d="M22.3066 27.7061L23.9157 26.6591" stroke="#FFD9EB" stroke-width="1.5328" stroke-miterlimit="10" stroke-linecap="round"/>
<path d="M19.1235 32.1941L19.8754 30.5498" stroke="#FFD9EB" stroke-width="1.5328" stroke-miterlimit="10" stroke-linecap="round"/>
<path d="M27.7671 24.9369H30.5689" stroke="#FFD9EB" stroke-width="1.5328" stroke-miterlimit="10" stroke-linecap="round"/>
<path d="M25.2603 25.084L26.7347 26.8533" stroke="#FFD9EB" stroke-width="1.5328" stroke-miterlimit="10" stroke-linecap="round"/>
<path d="M24.5284 28.2945L23.353 32.2411" stroke="#FFD9EB" stroke-width="1.5328" stroke-miterlimit="10" stroke-linecap="round"/>
<path d="M16.4468 30.7106L20.3632 27.2053" stroke="#FFD9EB" stroke-width="1.5328" stroke-miterlimit="10" stroke-linecap="round"/>
<path d="M15.9697 20.6615L17.3578 21.2416" stroke="#FFD9EB" stroke-width="1.5328" stroke-miterlimit="10" stroke-linecap="round"/>
<path d="M19.103 21.5269L19.1793 21.9699" stroke="#FFD9EB" stroke-width="1.5328" stroke-miterlimit="10" stroke-linecap="round"/>
<path d="M30.2852 29.5516L30.3614 29.9953" stroke="#FFD9EB" stroke-width="1.5328" stroke-miterlimit="10" stroke-linecap="round"/>
<path d="M18.3984 25.8492L18.4741 26.2929" stroke="#FFD9EB" stroke-width="1.5328" stroke-miterlimit="10" stroke-linecap="round"/>
<path d="M29.7421 18.9803L29.0659 19.5473" stroke="#FFD9EB" stroke-width="1.5328" stroke-miterlimit="10" stroke-linecap="round"/>
<path d="M17.7567 18.6045L17.0806 19.1714" stroke="#FFD9EB" stroke-width="1.5328" stroke-miterlimit="10" stroke-linecap="round"/>
<path d="M21.2656 29.208L22.0186 30.511" stroke="#FFD9EB" stroke-width="1.5328" stroke-miterlimit="10" stroke-linecap="round"/>
<path d="M17.1491 24.4944L16.4116 25.9689" stroke="#FFD9EB" stroke-width="1.5328" stroke-miterlimit="10" stroke-linecap="round"/>
<path d="M26.0322 30.5968L29.3696 31.7712" stroke="#FFD9EB" stroke-width="1.5328" stroke-miterlimit="10" stroke-linecap="round"/>
<path d="M19.3613 38.7122L22.6057 40.4809" stroke="#FFD9EB" stroke-width="1.5328" stroke-miterlimit="10" stroke-linecap="round"/>
<path d="M20.9014 33.7931L21.1313 36.3533" stroke="#FFD9EB" stroke-width="1.5328" stroke-miterlimit="10" stroke-linecap="round"/>
<path d="M22.8271 36.5266L24.4494 33.7258" stroke="#FFD9EB" stroke-width="1.5328" stroke-miterlimit="10" stroke-linecap="round"/>
<path d="M27.7969 44.6544L30.0184 42.3002" stroke="#FFD9EB" stroke-width="1.5328" stroke-miterlimit="10" stroke-linecap="round"/>
<path d="M25.938 35.1747L29.7031 37.9683" stroke="#FFD9EB" stroke-width="1.5328" stroke-miterlimit="10" stroke-linecap="round"/>
<path d="M23.4448 38.4835L26.1733 37.6176" stroke="#FFD9EB" stroke-width="1.5328" stroke-miterlimit="10" stroke-linecap="round"/>
<path d="M22.3066 42.8083L23.9157 41.7613" stroke="#FFD9EB" stroke-width="1.5328" stroke-miterlimit="10" stroke-linecap="round"/>
<path d="M19.1235 47.2962L19.8754 45.652" stroke="#FFD9EB" stroke-width="1.5328" stroke-miterlimit="10" stroke-linecap="round"/>
<path d="M27.7671 40.039H30.5689" stroke="#FFD9EB" stroke-width="1.5328" stroke-miterlimit="10" stroke-linecap="round"/>
<path d="M25.2603 40.1861L26.7347 41.9554" stroke="#FFD9EB" stroke-width="1.5328" stroke-miterlimit="10" stroke-linecap="round"/>
<path d="M24.5284 43.3967L23.353 47.3433" stroke="#FFD9EB" stroke-width="1.5328" stroke-miterlimit="10" stroke-linecap="round"/>
<path d="M16.4468 45.8128L20.3632 42.3074" stroke="#FFD9EB" stroke-width="1.5328" stroke-miterlimit="10" stroke-linecap="round"/>
<path d="M15.9697 35.7637L17.3578 36.3437" stroke="#FFD9EB" stroke-width="1.5328" stroke-miterlimit="10" stroke-linecap="round"/>
<path d="M19.103 36.629L19.1793 37.0721" stroke="#FFD9EB" stroke-width="1.5328" stroke-miterlimit="10" stroke-linecap="round"/>
<path d="M30.2852 44.6538L30.3614 45.0969" stroke="#FFD9EB" stroke-width="1.5328" stroke-miterlimit="10" stroke-linecap="round"/>
<path d="M18.3984 40.9514L18.4741 41.3945" stroke="#FFD9EB" stroke-width="1.5328" stroke-miterlimit="10" stroke-linecap="round"/>
<path d="M29.7421 34.0825L29.0659 34.6495" stroke="#FFD9EB" stroke-width="1.5328" stroke-miterlimit="10" stroke-linecap="round"/>
<path d="M17.7567 33.7067L17.0806 34.2731" stroke="#FFD9EB" stroke-width="1.5328" stroke-miterlimit="10" stroke-linecap="round"/>
<path d="M21.2656 44.3102L22.0186 45.6132" stroke="#FFD9EB" stroke-width="1.5328" stroke-miterlimit="10" stroke-linecap="round"/>
<path d="M17.1491 39.5966L16.4116 41.0705" stroke="#FFD9EB" stroke-width="1.5328" stroke-miterlimit="10" stroke-linecap="round"/>
<path d="M26.0322 45.699L29.3696 46.8734" stroke="#FFD9EB" stroke-width="1.5328" stroke-miterlimit="10" stroke-linecap="round"/>
<path d="M3.84863 8.50781L7.09305 10.2771" stroke="#FFD9EB" stroke-width="1.5328" stroke-miterlimit="10" stroke-linecap="round"/>
<path d="M5.38867 3.58875L5.61803 6.14954" stroke="#FFD9EB" stroke-width="1.5328" stroke-miterlimit="10" stroke-linecap="round"/>
<path d="M7.31445 6.32277L8.93666 3.52197" stroke="#FFD9EB" stroke-width="1.5328" stroke-miterlimit="10" stroke-linecap="round"/>
<path d="M12.2837 14.4507L14.5058 12.0959" stroke="#FFD9EB" stroke-width="1.5328" stroke-miterlimit="10" stroke-linecap="round"/>
<path d="M10.4253 4.97034L14.1904 7.76399" stroke="#FFD9EB" stroke-width="1.5328" stroke-miterlimit="10" stroke-linecap="round"/>
<path d="M7.93213 8.27973L10.66 7.41382" stroke="#FFD9EB" stroke-width="1.5328" stroke-miterlimit="10" stroke-linecap="round"/>
<path d="M6.79395 12.6046L8.40245 11.557" stroke="#FFD9EB" stroke-width="1.5328" stroke-miterlimit="10" stroke-linecap="round"/>
<path d="M3.61035 17.0925L4.36278 15.4476" stroke="#FFD9EB" stroke-width="1.5328" stroke-miterlimit="10" stroke-linecap="round"/>
<path d="M12.2544 9.83472H15.0562" stroke="#FFD9EB" stroke-width="1.5328" stroke-miterlimit="10" stroke-linecap="round"/>
<path d="M9.74707 9.98242L11.2221 11.7512" stroke="#FFD9EB" stroke-width="1.5328" stroke-miterlimit="10" stroke-linecap="round"/>
<path d="M9.01514 13.1924L7.84033 17.1396" stroke="#FFD9EB" stroke-width="1.5328" stroke-miterlimit="10" stroke-linecap="round"/>
<path d="M0.934082 15.6089L4.8505 12.103" stroke="#FFD9EB" stroke-width="1.5328" stroke-miterlimit="10" stroke-linecap="round"/>
<path d="M0.456543 5.55933L1.84522 6.13997" stroke="#FFD9EB" stroke-width="1.5328" stroke-miterlimit="10" stroke-linecap="round"/>
<path d="M3.59033 6.42468L3.66599 6.86836" stroke="#FFD9EB" stroke-width="1.5328" stroke-miterlimit="10" stroke-linecap="round"/>
<path d="M14.7725 14.4495L14.8481 14.8931" stroke="#FFD9EB" stroke-width="1.5328" stroke-miterlimit="10" stroke-linecap="round"/>
<path d="M2.88574 10.7471L2.9614 11.1907" stroke="#FFD9EB" stroke-width="1.5328" stroke-miterlimit="10" stroke-linecap="round"/>
<path d="M14.2294 3.87817L13.5532 4.44512" stroke="#FFD9EB" stroke-width="1.5328" stroke-miterlimit="10" stroke-linecap="round"/>
<path d="M2.24404 3.50232L1.56787 4.06927" stroke="#FFD9EB" stroke-width="1.5328" stroke-miterlimit="10" stroke-linecap="round"/>
<path d="M5.75293 14.1058L6.50595 15.4089" stroke="#FFD9EB" stroke-width="1.5328" stroke-miterlimit="10" stroke-linecap="round"/>
<path d="M1.63646 9.39221L0.898926 10.8668" stroke="#FFD9EB" stroke-width="1.5328" stroke-miterlimit="10" stroke-linecap="round"/>
<path d="M10.5195 15.4946L13.8563 16.6696" stroke="#FFD9EB" stroke-width="1.5328" stroke-miterlimit="10" stroke-linecap="round"/>
<path d="M3.84863 23.61L7.09305 25.3787" stroke="#FFD9EB" stroke-width="1.5328" stroke-miterlimit="10" stroke-linecap="round"/>
<path d="M5.38867 18.6909L5.61803 21.2511" stroke="#FFD9EB" stroke-width="1.5328" stroke-miterlimit="10" stroke-linecap="round"/>
<path d="M7.31445 21.4251L8.93666 18.6237" stroke="#FFD9EB" stroke-width="1.5328" stroke-miterlimit="10" stroke-linecap="round"/>
<path d="M12.2837 29.5523L14.5058 27.1981" stroke="#FFD9EB" stroke-width="1.5328" stroke-miterlimit="10" stroke-linecap="round"/>
<path d="M10.4253 20.0725L14.1904 22.8662" stroke="#FFD9EB" stroke-width="1.5328" stroke-miterlimit="10" stroke-linecap="round"/>
<path d="M7.93213 23.3813L10.66 22.5154" stroke="#FFD9EB" stroke-width="1.5328" stroke-miterlimit="10" stroke-linecap="round"/>
<path d="M6.79395 27.7061L8.40245 26.6591" stroke="#FFD9EB" stroke-width="1.5328" stroke-miterlimit="10" stroke-linecap="round"/>
<path d="M3.61035 32.1941L4.36278 30.5498" stroke="#FFD9EB" stroke-width="1.5328" stroke-miterlimit="10" stroke-linecap="round"/>
<path d="M12.2544 24.9369H15.0562" stroke="#FFD9EB" stroke-width="1.5328" stroke-miterlimit="10" stroke-linecap="round"/>
<path d="M9.74707 25.084L11.2221 26.8533" stroke="#FFD9EB" stroke-width="1.5328" stroke-miterlimit="10" stroke-linecap="round"/>
<path d="M9.01514 28.2945L7.84033 32.2411" stroke="#FFD9EB" stroke-width="1.5328" stroke-miterlimit="10" stroke-linecap="round"/>
<path d="M0.934082 30.7106L4.8505 27.2053" stroke="#FFD9EB" stroke-width="1.5328" stroke-miterlimit="10" stroke-linecap="round"/>
<path d="M0.456543 20.6615L1.84522 21.2416" stroke="#FFD9EB" stroke-width="1.5328" stroke-miterlimit="10" stroke-linecap="round"/>
<path d="M3.59033 21.5269L3.66599 21.9699" stroke="#FFD9EB" stroke-width="1.5328" stroke-miterlimit="10" stroke-linecap="round"/>
<path d="M14.7725 29.5516L14.8481 29.9953" stroke="#FFD9EB" stroke-width="1.5328" stroke-miterlimit="10" stroke-linecap="round"/>
<path d="M2.88574 25.8492L2.9614 26.2929" stroke="#FFD9EB" stroke-width="1.5328" stroke-miterlimit="10" stroke-linecap="round"/>
<path d="M14.2294 18.9803L13.5532 19.5473" stroke="#FFD9EB" stroke-width="1.5328" stroke-miterlimit="10" stroke-linecap="round"/>
<path d="M2.24404 18.6045L1.56787 19.1714" stroke="#FFD9EB" stroke-width="1.5328" stroke-miterlimit="10" stroke-linecap="round"/>
<path d="M5.75293 29.208L6.50595 30.511" stroke="#FFD9EB" stroke-width="1.5328" stroke-miterlimit="10" stroke-linecap="round"/>
<path d="M1.63646 24.4944L0.898926 25.9689" stroke="#FFD9EB" stroke-width="1.5328" stroke-miterlimit="10" stroke-linecap="round"/>
<path d="M10.5195 30.5968L13.8563 31.7712" stroke="#FFD9EB" stroke-width="1.5328" stroke-miterlimit="10" stroke-linecap="round"/>
<path d="M3.84863 38.7122L7.09305 40.4809" stroke="#FFD9EB" stroke-width="1.5328" stroke-miterlimit="10" stroke-linecap="round"/>
<path d="M5.38867 33.7931L5.61803 36.3533" stroke="#FFD9EB" stroke-width="1.5328" stroke-miterlimit="10" stroke-linecap="round"/>
<path d="M7.31445 36.5266L8.93666 33.7258" stroke="#FFD9EB" stroke-width="1.5328" stroke-miterlimit="10" stroke-linecap="round"/>
<path d="M12.2837 44.6544L14.5058 42.3002" stroke="#FFD9EB" stroke-width="1.5328" stroke-miterlimit="10" stroke-linecap="round"/>
<path d="M10.4253 35.1747L14.1904 37.9683" stroke="#FFD9EB" stroke-width="1.5328" stroke-miterlimit="10" stroke-linecap="round"/>
<path d="M7.93213 38.4835L10.66 37.6176" stroke="#FFD9EB" stroke-width="1.5328" stroke-miterlimit="10" stroke-linecap="round"/>
<path d="M6.79395 42.8083L8.40245 41.7613" stroke="#FFD9EB" stroke-width="1.5328" stroke-miterlimit="10" stroke-linecap="round"/>
<path d="M3.61035 47.2962L4.36278 45.652" stroke="#FFD9EB" stroke-width="1.5328" stroke-miterlimit="10" stroke-linecap="round"/>
<path d="M12.2544 40.039H15.0562" stroke="#FFD9EB" stroke-width="1.5328" stroke-miterlimit="10" stroke-linecap="round"/>
<path d="M9.74707 40.1861L11.2221 41.9554" stroke="#FFD9EB" stroke-width="1.5328" stroke-miterlimit="10" stroke-linecap="round"/>
<path d="M9.01514 43.3967L7.84033 47.3433" stroke="#FFD9EB" stroke-width="1.5328" stroke-miterlimit="10" stroke-linecap="round"/>
<path d="M0.934082 45.8128L4.8505 42.3074" stroke="#FFD9EB" stroke-width="1.5328" stroke-miterlimit="10" stroke-linecap="round"/>
<path d="M0.456543 35.7637L1.84522 36.3437" stroke="#FFD9EB" stroke-width="1.5328" stroke-miterlimit="10" stroke-linecap="round"/>
<path d="M3.59033 36.629L3.66599 37.0721" stroke="#FFD9EB" stroke-width="1.5328" stroke-miterlimit="10" stroke-linecap="round"/>
<path d="M14.7725 44.6538L14.8481 45.0969" stroke="#FFD9EB" stroke-width="1.5328" stroke-miterlimit="10" stroke-linecap="round"/>
<path d="M2.88574 40.9514L2.9614 41.3945" stroke="#FFD9EB" stroke-width="1.5328" stroke-miterlimit="10" stroke-linecap="round"/>
<path d="M14.2294 34.0825L13.5532 34.6495" stroke="#FFD9EB" stroke-width="1.5328" stroke-miterlimit="10" stroke-linecap="round"/>
<path d="M2.24404 33.7067L1.56787 34.2731" stroke="#FFD9EB" stroke-width="1.5328" stroke-miterlimit="10" stroke-linecap="round"/>
<path d="M5.75293 44.3102L6.50595 45.6132" stroke="#FFD9EB" stroke-width="1.5328" stroke-miterlimit="10" stroke-linecap="round"/>
<path d="M1.63646 39.5966L0.898926 41.0705" stroke="#FFD9EB" stroke-width="1.5328" stroke-miterlimit="10" stroke-linecap="round"/>
<path d="M10.5195 45.699L13.8563 46.8734" stroke="#FFD9EB" stroke-width="1.5328" stroke-miterlimit="10" stroke-linecap="round"/>
</g>
<path d="M21.2129 23.8214V87.5436" stroke="#F2F2F2" stroke-miterlimit="10"/>
<path d="M33.1279 23.8214V87.5436" stroke="#F2F2F2" stroke-miterlimit="10"/>
<path d="M43.2554 22.6304V87.5436" stroke="#F2F2F2" stroke-miterlimit="10"/>
<path d="M54.5747 0V87.5436" stroke="#F2F2F2" stroke-miterlimit="10"/>
<path d="M65.2979 0V87.5436" stroke="#F2F2F2" stroke-miterlimit="10"/>
<path d="M77.8086 0V87.5436" stroke="#F2F2F2" stroke-miterlimit="10"/>
<path d="M88.5322 0V87.5436" stroke="#F2F2F2" stroke-miterlimit="10"/>
<path d="M99.2554 0V87.5436" stroke="#F2F2F2" stroke-miterlimit="10"/>
<path d="M110.575 0V87.5436" stroke="#F2F2F2" stroke-miterlimit="10"/>
<path d="M121.298 0V87.5436" stroke="#F2F2F2" stroke-miterlimit="10"/>
<path d="M132.617 0V87.5436" stroke="#F2F2F2" stroke-miterlimit="10"/>
<path d="M143.34 0V87.5436" stroke="#F2F2F2" stroke-miterlimit="10"/>
<path d="M155.255 0V87.5436" stroke="#F2F2F2" stroke-miterlimit="10"/>
<path d="M165.383 0V87.5436" stroke="#F2F2F2" stroke-miterlimit="10"/>
<path d="M42.9575 11.0173H176.404" stroke="#F2F2F2" stroke-miterlimit="10"/>
<path d="M22.7026 22.9281H176.404" stroke="#F2F2F2" stroke-miterlimit="10"/>
<path d="M22.7026 33.0522H176.404" stroke="#F2F2F2" stroke-miterlimit="10"/>
<path d="M23.894 44.3673H176.404" stroke="#F2F2F2" stroke-miterlimit="10"/>
<path d="M10.7876 55.087H176.404" stroke="#F2F2F2" stroke-miterlimit="10"/>
<path d="M10.7876 65.8066H176.404" stroke="#F2F2F2" stroke-miterlimit="10"/>
<path d="M10.7876 77.7173H176.404" stroke="#F2F2F2" stroke-miterlimit="10"/>
<path d="M177 28.5482H27.9292V116.667H177V28.5482Z" fill="url(#paint0_linear)"/>
<path d="M168.472 24.9268H22.4409V109.883H168.472V24.9268Z" fill="white"/>
<path d="M164.175 23.4015H20.9155V106.612H164.175V23.4015Z" stroke="#0650F5" stroke-width="2" stroke-miterlimit="10"/>
<path d="M32.394 74.374H62.3403" stroke="#0650F5" stroke-width="2" stroke-miterlimit="10" stroke-linecap="round" stroke-linejoin="round"/>
<path d="M32.394 78.7422H44.3119" stroke="#0650F5" stroke-width="2" stroke-miterlimit="10" stroke-linecap="round" stroke-linejoin="round"/>
<path d="M32.394 83.1105H53.9826" stroke="#0650F5" stroke-width="2" stroke-miterlimit="10" stroke-linecap="round" stroke-linejoin="round"/>
<path d="M72.2922 47.5386H34.0044V69.7776H72.2922V47.5386Z" fill="#F7F8F9"/>
<path d="M70.6818 45.9294H32.394V68.1685H70.6818V45.9294Z" stroke="#0650F5" stroke-width="2" stroke-miterlimit="10" stroke-linecap="round" stroke-linejoin="round"/>
<path d="M35.487 36.349C37.1739 36.349 38.5414 34.982 38.5414 33.2957C38.5414 31.6094 37.1739 30.2424 35.487 30.2424C33.8001 30.2424 32.4326 31.6094 32.4326 33.2957C32.4326 34.982 33.8001 36.349 35.487 36.349Z" fill="#E9E9E9"/>
<path d="M43.9714 36.349C45.6583 36.349 47.0257 34.982 47.0257 33.2957C47.0257 31.6094 45.6583 30.2424 43.9714 30.2424C42.2845 30.2424 40.917 31.6094 40.917 33.2957C40.917 34.982 42.2845 36.349 43.9714 36.349Z" fill="#E9E9E9"/>
<path d="M52.4567 36.349C54.1436 36.349 55.5111 34.982 55.5111 33.2957C55.5111 31.6094 54.1436 30.2424 52.4567 30.2424C50.7698 30.2424 49.4023 31.6094 49.4023 33.2957C49.4023 34.982 50.7698 36.349 52.4567 36.349Z" fill="#E9E9E9"/>
<path d="M79.5435 45.7555V99.6484" stroke="#0650F5" stroke-width="1.0249" stroke-miterlimit="10" stroke-linecap="round" stroke-linejoin="round"/>
<path d="M158.399 45.7555H88.165V83.0991H158.399V45.7555Z" stroke="#0650F5" stroke-width="2" stroke-miterlimit="10"/>
<path d="M90.5327 73.8082L100.607 76.1802L104.945 71.7423H110.641L114.359 70.0045L116.7 66.9071L123.991 63.7526L133.875 65.5308L143.836 60.7642L155.95 47.716" stroke="url(#paint1_linear)" stroke-width="3" stroke-miterlimit="10" stroke-linecap="round" stroke-linejoin="round"/>
<path d="M156.547 33.2957C156.547 34.9817 155.18 36.349 153.493 36.349H97.0261C95.3395 36.349 93.9717 34.9823 93.9717 33.2957C93.9717 31.6098 95.3389 30.2424 97.0261 30.2424H153.493C155.18 30.2424 156.547 31.6092 156.547 33.2957Z" fill="url(#paint2_linear)"/>
<path d="M74.2452 95.276C74.2452 98.343 71.758 100.829 68.6905 100.829H35.211C32.1429 100.829 29.6562 98.3424 29.6562 95.276C29.6562 92.209 32.1435 89.7233 35.211 89.7233H68.6911C71.7586 89.7233 74.2452 92.2096 74.2452 95.276Z" fill="url(#paint3_linear)"/>
<path d="M46.6746 121.489H35.7505V132.409H46.6746V121.489Z" stroke="#E9E9E9" stroke-miterlimit="10"/>
<path d="M61.1151 121.489H50.1909V132.409H61.1151V121.489Z" stroke="#E9E9E9" stroke-miterlimit="10"/>
<path d="M75.555 121.489H64.6309V132.409H75.555V121.489Z" stroke="#E9E9E9" stroke-miterlimit="10"/>
<path d="M89.9954 121.489H79.0713V132.409H89.9954V121.489Z" stroke="#E9E9E9" stroke-miterlimit="10"/>
<path d="M104.435 121.489H93.5112V132.409H104.435V121.489Z" stroke="#E9E9E9" stroke-miterlimit="10"/>
<path d="M118.876 121.489H107.952V132.409H118.876V121.489Z" stroke="#E9E9E9" stroke-miterlimit="10"/>
<path d="M133.315 121.489H122.391V132.409H133.315V121.489Z" stroke="#E9E9E9" stroke-miterlimit="10"/>
<path d="M147.756 121.489H136.832V132.409H147.756V121.489Z" stroke="#E9E9E9" stroke-miterlimit="10"/>
<path d="M162.196 121.489H151.271V132.409H162.196V121.489Z" stroke="#E9E9E9" stroke-miterlimit="10"/>
<path d="M106.486 92.2484C107.839 92.2484 108.936 91.1517 108.936 89.7989C108.936 88.4461 107.839 87.3495 106.486 87.3495C105.133 87.3495 104.036 88.4461 104.036 89.7989C104.036 91.1517 105.133 92.2484 106.486 92.2484Z" fill="#D37AA7"/>
<path d="M90.5128 92.2484C91.866 92.2484 92.9631 91.1517 92.9631 89.7989C92.9631 88.4461 91.866 87.3495 90.5128 87.3495C89.1595 87.3495 88.0625 88.4461 88.0625 89.7989C88.0625 91.1517 89.1595 92.2484 90.5128 92.2484Z" fill="#FFD9EB"/>
<path d="M98.4996 92.2484C99.8529 92.2484 100.95 91.1517 100.95 89.7989C100.95 88.4461 99.8529 87.3495 98.4996 87.3495C97.1464 87.3495 96.0493 88.4461 96.0493 89.7989C96.0493 91.1517 97.1464 92.2484 98.4996 92.2484Z" fill="#FD91C2"/>
<path d="M114.473 92.2484C115.826 92.2484 116.923 91.1517 116.923 89.7989C116.923 88.4461 115.826 87.3495 114.473 87.3495C113.119 87.3495 112.022 88.4461 112.022 89.7989C112.022 91.1517 113.119 92.2484 114.473 92.2484Z" fill="#FD91C2"/>
<path d="M122.593 92.2484C123.947 92.2484 125.044 91.1517 125.044 89.7989C125.044 88.4461 123.947 87.3495 122.593 87.3495C121.24 87.3495 120.143 88.4461 120.143 89.7989C120.143 91.1517 121.24 92.2484 122.593 92.2484Z" fill="#FFD9EB"/>
<path d="M130.58 92.2484C131.933 92.2484 133.03 91.1517 133.03 89.7989C133.03 88.4461 131.933 87.3495 130.58 87.3495C129.226 87.3495 128.129 88.4461 128.129 89.7989C128.129 91.1517 129.226 92.2484 130.58 92.2484Z" fill="#FFD9EB"/>
<path d="M106.486 99.6484C107.839 99.6484 108.936 98.5518 108.936 97.199C108.936 95.8462 107.839 94.7496 106.486 94.7496C105.133 94.7496 104.036 95.8462 104.036 97.199C104.036 98.5518 105.133 99.6484 106.486 99.6484Z" fill="#FD6125"/>
<path d="M90.5128 99.6484C91.866 99.6484 92.9631 98.5518 92.9631 97.199C92.9631 95.8462 91.866 94.7496 90.5128 94.7496C89.1595 94.7496 88.0625 95.8462 88.0625 97.199C88.0625 98.5518 89.1595 99.6484 90.5128 99.6484Z" fill="#FD91C2"/>
<path d="M98.4996 99.6484C99.8529 99.6484 100.95 98.5518 100.95 97.199C100.95 95.8462 99.8529 94.7496 98.4996 94.7496C97.1464 94.7496 96.0493 95.8462 96.0493 97.199C96.0493 98.5518 97.1464 99.6484 98.4996 99.6484Z" fill="#FD6125"/>
<path d="M114.473 99.6484C115.826 99.6484 116.923 98.5518 116.923 97.199C116.923 95.8462 115.826 94.7496 114.473 94.7496C113.119 94.7496 112.022 95.8462 112.022 97.199C112.022 98.5518 113.119 99.6484 114.473 99.6484Z" fill="#FD91C2"/>
<path d="M122.593 99.6484C123.947 99.6484 125.044 98.5518 125.044 97.199C125.044 95.8462 123.947 94.7496 122.593 94.7496C121.24 94.7496 120.143 95.8462 120.143 97.199C120.143 98.5518 121.24 99.6484 122.593 99.6484Z" fill="#FFD9EB"/>
<path d="M130.58 99.6484C131.933 99.6484 133.03 98.5518 133.03 97.199C133.03 95.8462 131.933 94.7496 130.58 94.7496C129.226 94.7496 128.129 95.8462 128.129 97.199C128.129 98.5518 129.226 99.6484 130.58 99.6484Z" fill="#FFD9EB"/>
</g>
<defs>
<linearGradient id="paint0_linear" x1="71.3611" y1="18.7539" x2="154.69" y2="163.135" gradientUnits="userSpaceOnUse">
<stop offset="0.1929" stop-color="#CBDDFD"/>
<stop offset="0.331" stop-color="#C9D9FC"/>
<stop offset="0.4809" stop-color="#C3CCF9"/>
<stop offset="0.6365" stop-color="#B9B6F5"/>
<stop offset="0.7957" stop-color="#AC97EE"/>
<stop offset="0.9565" stop-color="#9A71E6"/>
<stop offset="1" stop-color="#9565E3"/>
</linearGradient>
<linearGradient id="paint1_linear" x1="89.6389" y1="61.9481" x2="156.844" y2="61.9481" gradientUnits="userSpaceOnUse">
<stop offset="0.1929" stop-color="#CBDDFD"/>
<stop offset="0.331" stop-color="#C9D9FC"/>
<stop offset="0.4809" stop-color="#C3CCF9"/>
<stop offset="0.6365" stop-color="#B9B6F5"/>
<stop offset="0.7957" stop-color="#AC97EE"/>
<stop offset="0.9565" stop-color="#9A71E6"/>
<stop offset="1" stop-color="#9565E3"/>
</linearGradient>
<linearGradient id="paint2_linear" x1="93.9722" y1="33.2956" x2="156.547" y2="33.2956" gradientUnits="userSpaceOnUse">
<stop offset="0.1929" stop-color="#CBDDFD"/>
<stop offset="0.331" stop-color="#C9D9FC"/>
<stop offset="0.4809" stop-color="#C3CCF9"/>
<stop offset="0.6365" stop-color="#B9B6F5"/>
<stop offset="0.7957" stop-color="#AC97EE"/>
<stop offset="0.9565" stop-color="#9A71E6"/>
<stop offset="1" stop-color="#9565E3"/>
</linearGradient>
<linearGradient id="paint3_linear" x1="29.6559" y1="95.2761" x2="74.2454" y2="95.2761" gradientUnits="userSpaceOnUse">
<stop offset="0.1929" stop-color="#CBDDFD"/>
<stop offset="0.331" stop-color="#C9D9FC"/>
<stop offset="0.4809" stop-color="#C3CCF9"/>
<stop offset="0.6365" stop-color="#B9B6F5"/>
<stop offset="0.7957" stop-color="#AC97EE"/>
<stop offset="0.9565" stop-color="#9A71E6"/>
<stop offset="1" stop-color="#9565E3"/>
</linearGradient>
<clipPath id="clip0">
<rect width="177" height="147" fill="white"/>
</clipPath>
</defs>
</svg>
