<svg width="140" height="40" viewBox="0 0 140 40" fill="none" xmlns="http://www.w3.org/2000/svg">
<mask id="mask0" mask-type="alpha" maskUnits="userSpaceOnUse" x="4" y="0" width="16" height="27">
<path d="M12.2064 0.050942L4.85145 5.26482C4.6344 5.41845 4.74457 5.75564 5.01259 5.75564H8.30859C8.46069 5.75564 8.58401 5.87693 8.58401 6.02652V21.9811C8.58401 23.4544 8.92603 24.5444 9.61005 25.2519C10.2949 25.9594 11.2141 26.3128 12.3675 26.3128C13.521 26.3128 14.4402 25.974 15.1242 25.2955C15.8091 24.6179 16.1503 23.5619 16.1503 22.1266V6.02733C16.1503 5.87774 16.2736 5.75645 16.4257 5.75645H19.7217C19.9889 5.75645 20.0999 5.41926 19.8828 5.26563L12.5287 0.050942C12.481 0.0169807 12.4243 0 12.3675 0C12.3108 0 12.2549 0.0169807 12.2064 0.050942Z" fill="#0650F5"/>
</mask>
<g mask="url(#mask0)">
<path d="M20.0859 4.21021H5.34619V29.706H20.0859V4.21021Z" fill="url(#paint0_linear)"/>
<path d="M19.9977 0H4.73633V29.4703H19.9977V0Z" fill="url(#paint1_linear)"/>
</g>
<path d="M12.2328 34.3493C10.3449 34.3493 8.64602 34.1098 7.13582 33.6318C5.62561 33.1541 4.34191 32.4177 3.28471 31.4232C2.22765 30.4291 1.41585 29.1707 0.849452 27.6475C0.2832 26.1248 0 24.3317 0 22.2673V7.83884C0 7.61279 0.183195 7.42944 0.409398 7.42944H7.06617C7.29237 7.42944 7.47557 7.61279 7.47557 7.83884V22.1164C7.47557 24.0296 7.91205 25.4455 8.78636 26.364C9.66066 27.2831 10.8347 27.7422 12.3083 27.7422C13.782 27.7422 14.9553 27.302 15.8296 26.4207C16.7039 25.5398 17.141 24.1682 17.141 22.3053V7.83884C17.141 7.61279 17.3243 7.42944 17.5504 7.42944H24.2072C24.4334 7.42944 24.6166 7.61279 24.6166 7.83884V22.0786C24.6166 24.2183 24.3206 26.0619 23.7293 27.6099C23.1376 29.1579 22.3071 30.4291 21.2375 31.4232C20.1673 32.4177 18.8713 33.1541 17.3487 33.6318C15.8254 34.1098 14.1206 34.3493 12.2328 34.3493Z" fill="#2C2A32"/>
<path d="M27.0686 13.4324H33.4612C33.6873 13.4324 33.8706 13.6156 33.8706 13.8418V15.0789C33.8706 15.4504 34.3199 15.6245 34.5784 15.358C34.7159 15.2163 34.8564 15.0779 35.0003 14.9426C35.4019 14.5649 35.8479 14.2318 36.3375 13.9421C36.8273 13.6529 37.3794 13.42 37.9948 13.2434C38.6095 13.0678 39.2938 12.9792 40.0471 12.9792C41.2517 12.9792 42.4004 13.2246 43.493 13.7154C44.5855 14.2064 45.5458 14.9048 46.3741 15.811C47.2024 16.7171 47.862 17.8249 48.3516 19.1335C48.8412 20.4425 49.086 21.915 49.086 23.5508V23.6263C49.086 25.2877 48.8412 26.779 48.3516 28.1003C47.862 29.4218 47.2088 30.5421 46.393 31.4606C45.5766 32.3797 44.6227 33.0841 43.5307 33.575C42.4382 34.0658 41.2895 34.3112 40.0849 34.3112C39.3062 34.3112 38.6095 34.2293 37.9948 34.0658C37.3794 33.9019 36.8208 33.6882 36.3188 33.4238C35.8162 33.1597 35.3643 32.8452 34.9625 32.48C34.8282 32.3582 34.6982 32.2355 34.5723 32.1122C34.3103 31.8553 33.8706 32.032 33.8706 32.3986V39.4897C33.8706 39.7157 33.6873 39.8991 33.4612 39.8991H27.0686C26.8425 39.8991 26.6592 39.7157 26.6592 39.4897V13.8418C26.6592 13.6156 26.8425 13.4324 27.0686 13.4324ZM37.8537 28.3081C39.0313 28.3081 40.0211 27.8804 40.8229 27.0244C41.6246 26.169 42.0258 25.0487 42.0258 23.6642V23.5885C42.0258 22.2293 41.6246 21.1221 40.8229 20.2661C40.0211 19.4107 39.0313 18.9823 37.8537 18.9823C37.2773 18.9823 36.7388 19.0958 36.2374 19.3223C35.7359 19.549 35.2976 19.8697 34.9217 20.2849C34.5459 20.7004 34.2516 21.1854 34.0386 21.7387C33.8256 22.2926 33.7195 22.9091 33.7195 23.5885V23.6642C33.7195 24.3437 33.8256 24.9667 34.0386 25.5331C34.2516 26.0995 34.5459 26.5901 34.9217 27.0055C35.2976 27.4207 35.7359 27.7418 36.2374 27.9682C36.7388 28.1947 37.2773 28.3081 37.8537 28.3081Z" fill="#2C2A32"/>
<path d="M58.0341 34.3109C56.2974 34.3109 54.6109 34.0656 52.9749 33.5747C51.4596 33.1201 50.0313 32.4342 48.6891 31.5154C48.5087 31.392 48.459 31.1445 48.5738 30.9585L50.8322 27.3004C50.9519 27.1066 51.2056 27.0523 51.3986 27.173C52.4686 27.8421 53.554 28.3525 54.6551 28.7042C55.8757 29.0947 57.0147 29.2893 58.0719 29.2893C59.2802 29.2893 59.8842 28.9249 59.8842 28.1943V28.119C59.8842 27.7166 59.6068 27.4014 59.0535 27.1749C58.4996 26.9486 57.6814 26.6843 56.5994 26.3823C55.5925 26.1308 54.6485 25.8348 53.7678 25.4949C52.8865 25.1552 52.1189 24.74 51.4647 24.2492C50.8099 23.7582 50.2942 23.1604 49.9167 22.4556C49.5391 21.7513 49.3503 20.8829 49.3503 19.8506V19.775C49.3503 18.6931 49.558 17.7302 49.9732 16.8867C50.3886 16.0435 50.961 15.3387 51.6912 14.7723C52.421 14.206 53.2828 13.7718 54.2775 13.4697C55.2715 13.1677 56.3599 13.0168 57.5433 13.0168C59.0535 13.0168 60.5384 13.2243 61.9985 13.6398C63.3234 14.0166 64.5345 14.5337 65.6317 15.1906C65.8191 15.3027 65.8811 15.546 65.7773 15.7378L63.7011 19.5711C63.5944 19.7678 63.35 19.8385 63.1515 19.7352C62.2107 19.2453 61.2597 18.8495 60.2996 18.548C59.2169 18.2082 58.273 18.0383 57.4679 18.0383C56.9138 18.0383 56.4986 18.1326 56.222 18.3215C55.9446 18.5102 55.8066 18.7432 55.8066 19.0199V19.0955C55.8066 19.4983 56.0898 19.8192 56.6561 20.058C57.2223 20.2978 58.0465 20.581 59.129 20.9078C60.1356 21.185 61.0794 21.4929 61.9608 21.8327C62.8415 22.1724 63.609 22.5879 64.2638 23.0784C64.9181 23.5694 65.4342 24.1676 65.8118 24.872C66.1893 25.5769 66.3782 26.4201 66.3782 27.4014V27.4772C66.3782 28.6098 66.1764 29.598 65.7741 30.4409C65.3711 31.2845 64.8049 31.9954 64.0751 32.574C63.3447 33.1535 62.464 33.5876 61.4321 33.8766C60.3997 34.1658 59.2671 34.3109 58.0341 34.3109Z" fill="#2C2A32"/>
<path d="M77.1757 34.349C75.5647 34.349 74.0922 34.0907 72.7583 33.575C71.4239 33.0594 70.2723 32.3422 69.3037 31.423C68.3344 30.5043 67.5793 29.3906 67.0384 28.0816C66.4968 26.773 66.2266 25.3256 66.2266 23.7397V23.6642C66.2266 22.1793 66.4779 20.7888 66.9818 19.4921C67.485 18.1961 68.1959 17.0634 69.115 16.0943C70.0335 15.1256 71.1219 14.3638 72.3808 13.8099C73.639 13.2566 75.0236 12.9792 76.534 12.9792C78.2954 12.9792 79.8245 13.2815 81.1213 13.8855C82.4173 14.4896 83.4867 15.3014 84.3304 16.3208C85.1735 17.3401 85.803 18.5236 86.2183 19.8698C86.6335 21.2165 86.8411 22.6448 86.8411 24.1549V24.8725C86.8411 24.9911 86.8383 25.1098 86.8326 25.2284C86.8221 25.4503 86.645 25.6276 86.4229 25.6276H73.6856C73.4021 25.6276 73.2046 25.9109 73.2976 26.1787C73.5966 27.0378 74.0649 27.6975 74.7028 28.1572C75.4702 28.7112 76.4207 28.9877 77.5532 28.9877C78.4086 28.9877 79.1956 28.8243 79.913 28.4968C80.544 28.2093 81.1795 27.7658 81.8204 27.1664C81.9722 27.0245 82.2045 27.0113 82.3645 27.1437L85.734 29.9356C85.9077 30.0796 85.9363 30.3409 85.7912 30.5137C84.8571 31.6252 83.7281 32.5259 82.4048 33.2164C80.9571 33.9713 79.2145 34.349 77.1757 34.349ZM79.6441 21.9652C79.9043 21.9652 80.095 21.725 80.0465 21.4695C79.8751 20.5669 79.5222 19.8325 78.988 19.2656C78.3585 18.5991 77.5532 18.2653 76.5716 18.2653C75.6149 18.2653 74.8349 18.5991 74.2307 19.2656C73.7216 19.8283 73.3552 20.5557 73.1323 21.4489C73.0673 21.7095 73.2612 21.9652 73.5298 21.9652H79.6441Z" fill="#2C2A32"/>
<path d="M88.1946 6.29663H94.587C94.8132 6.29663 94.9964 6.47983 94.9964 6.70603V33.4489C94.9964 33.675 94.8132 33.8581 94.587 33.8581H88.1946C87.9683 33.8581 87.7852 33.675 87.7852 33.4489V6.70603C87.7852 6.47983 87.9683 6.29663 88.1946 6.29663Z" fill="#2C2A32"/>
<path d="M97.2556 6.29663H103.648C103.874 6.29663 104.057 6.47983 104.057 6.70603V33.4489C104.057 33.675 103.874 33.8581 103.648 33.8581H97.2556C97.0294 33.8581 96.8462 33.675 96.8462 33.4489V6.70603C96.8462 6.47983 97.0294 6.29663 97.2556 6.29663Z" fill="#2C2A32"/>
<path d="M115.874 34.349C114.263 34.349 112.791 34.0907 111.457 33.575C110.123 33.0594 108.971 32.3422 108.003 31.423C107.033 30.5043 106.278 29.3906 105.737 28.0816C105.196 26.773 104.925 25.3256 104.925 23.7397V23.6642C104.925 22.1793 105.177 20.7888 105.68 19.4921C106.184 18.1961 106.894 17.0634 107.814 16.0943C108.732 15.1256 109.821 14.3638 111.08 13.8099C112.338 13.2566 113.722 12.9792 115.233 12.9792C116.994 12.9792 118.523 13.2815 119.82 13.8855C121.116 14.4896 122.185 15.3014 123.029 16.3208C123.872 17.3401 124.502 18.5236 124.917 19.8698C125.332 21.2165 125.54 22.6448 125.54 24.1549V24.8725C125.54 24.9911 125.537 25.1098 125.531 25.2284C125.521 25.4503 125.344 25.6276 125.122 25.6276H112.384C112.101 25.6276 111.903 25.9109 111.996 26.1787C112.295 27.0378 112.764 27.6975 113.402 28.1572C114.169 28.7112 115.119 28.9877 116.252 28.9877C117.107 28.9877 117.894 28.8243 118.612 28.4968C119.243 28.2093 119.878 27.7658 120.519 27.1664C120.671 27.0245 120.903 27.0113 121.063 27.1437L124.433 29.9356C124.606 30.0796 124.635 30.3409 124.49 30.5137C123.556 31.6252 122.427 32.5259 121.104 33.2164C119.656 33.9713 117.913 34.349 115.874 34.349ZM118.343 21.9652C118.603 21.9652 118.794 21.725 118.745 21.4695C118.574 20.5669 118.221 19.8325 117.687 19.2656C117.057 18.5991 116.252 18.2653 115.27 18.2653C114.314 18.2653 113.534 18.5991 112.929 19.2656C112.42 19.8283 112.054 20.5557 111.831 21.4489C111.766 21.7095 111.96 21.9652 112.229 21.9652H118.343Z" fill="#2C2A32"/>
<path d="M126.742 13.4324H133.135C133.361 13.4324 133.544 13.6156 133.544 13.8418V15.8674C133.544 16.2718 134.077 16.4372 134.293 16.0952C134.754 15.3649 135.297 14.7415 135.922 14.2253C136.848 13.4611 138.073 13.0804 139.597 13.0833C139.82 13.0837 140 13.2715 140 13.4947V20.6438H139.396C137.508 20.6438 136.061 21.1977 135.054 22.3051C134.047 23.4129 133.544 25.1496 133.544 27.5153V33.4488C133.544 33.6749 133.361 33.8581 133.135 33.8581H126.742C126.516 33.8581 126.333 33.6749 126.333 33.4488V13.8418C126.332 13.6156 126.516 13.4324 126.742 13.4324Z" fill="#2C2A32"/>
<defs>
<linearGradient id="paint0_linear" x1="12.7159" y1="4.02537" x2="12.7159" y2="30.3925" gradientUnits="userSpaceOnUse">
<stop stop-color="white"/>
<stop offset="0.0775" stop-color="white"/>
<stop offset="0.16" stop-color="white"/>
<stop offset="0.19" stop-color="white"/>
<stop offset="0.22" stop-color="white"/>
<stop offset="1"/>
</linearGradient>
<linearGradient id="paint1_linear" x1="12.3669" y1="-0.213651" x2="12.3669" y2="30.2639" gradientUnits="userSpaceOnUse">
<stop stop-color="#00F1F1"/>
<stop offset="0.0775" stop-color="#00F0F1"/>
<stop offset="0.16" stop-color="#00F0F1"/>
<stop offset="0.19" stop-color="#00F0F1"/>
<stop offset="0.22" stop-color="#00F0F1"/>
<stop offset="1" stop-color="#0D1EEE"/>
</linearGradient>
</defs>
</svg>
