<svg width="535" height="313" viewBox="0 0 535 313" fill="none" xmlns="http://www.w3.org/2000/svg">
<g clip-path="url(#clip0)">
<path d="M535 5.6347H5.63867V313.001H535V5.6347Z" fill="white"/>
<path d="M529.361 0H0V307.366H529.361V0Z" stroke="#0650F5" stroke-width="3" stroke-miterlimit="10"/>
<path d="M20.9751 26.2743C24.2206 26.2743 26.8516 23.6451 26.8516 20.4019C26.8516 17.1586 24.2206 14.5295 20.9751 14.5295C17.7296 14.5295 15.0986 17.1586 15.0986 20.4019C15.0986 23.6451 17.7296 26.2743 20.9751 26.2743Z" fill="#E9E9E9"/>
<path d="M37.3003 26.2743C40.5458 26.2743 43.1768 23.6451 43.1768 20.4019C43.1768 17.1586 40.5458 14.5295 37.3003 14.5295C34.0548 14.5295 31.4238 17.1586 31.4238 20.4019C31.4238 23.6451 34.0548 26.2743 37.3003 26.2743Z" fill="#E9E9E9"/>
<path d="M53.626 26.2743C56.8715 26.2743 59.5025 23.6451 59.5025 20.4019C59.5025 17.1586 56.8715 14.5295 53.626 14.5295C50.3805 14.5295 47.7495 17.1586 47.7495 20.4019C47.7495 23.6451 50.3805 26.2743 53.626 26.2743Z" fill="#E9E9E9"/>
<path d="M18.6968 18.1623L22.9712 22.4337" stroke="#0650F5" stroke-width="2" stroke-miterlimit="10" stroke-linecap="round" stroke-linejoin="round"/>
<path d="M22.9712 18.1623L18.6968 22.4337" stroke="#0650F5" stroke-width="2" stroke-miterlimit="10" stroke-linecap="round" stroke-linejoin="round"/>
<path d="M34.814 20.3583H39.751" stroke="#0650F5" stroke-width="2" stroke-miterlimit="10" stroke-linecap="round" stroke-linejoin="round"/>
<path d="M55.8499 21.6454L53.5689 19.0984L51.02 21.6454" stroke="#0650F5" stroke-width="2" stroke-miterlimit="10" stroke-linecap="round" stroke-linejoin="round"/>
<path d="M96.0036 97.4695V85.4127L86.8657 70.1875H98.055L100.349 75.4794C100.56 75.9392 100.809 76.6286 101.095 77.5475L101.151 77.7343C101.288 77.2998 101.524 76.6595 101.86 75.815C101.922 75.6653 101.965 75.5601 101.991 75.4975L104.247 70.1866H115.361L105.888 85.4118V97.4686H96.0036V97.4695Z" fill="#0650F5"/>
<path d="M142.699 83.8852C142.699 85.8853 142.344 87.7457 141.636 89.4664C140.927 91.1872 139.888 92.7246 138.521 94.078C137.154 95.4078 135.578 96.4264 133.794 97.1348C132.01 97.8423 130.112 98.197 128.097 98.197C126.058 98.197 124.15 97.8423 122.372 97.1348C120.594 96.4264 119.016 95.396 117.636 94.0408C116.281 92.7237 115.255 91.208 114.559 89.4936C113.862 87.7793 113.514 85.9098 113.514 83.8843C113.514 81.8588 113.862 79.983 114.559 78.2559C115.255 76.5298 116.28 75.0077 117.636 73.6906C119.003 72.3491 120.576 71.3277 122.354 70.6256C124.132 69.9235 126.046 69.5725 128.098 69.5725C130.15 69.5725 132.064 69.9235 133.842 70.6256C135.619 71.3277 137.199 72.3491 138.579 73.6906C139.921 75.0204 140.944 76.5479 141.647 78.275C142.347 80.002 142.699 81.8724 142.699 83.8852ZM128.097 89.0274C129.477 89.0274 130.587 88.5585 131.426 87.6205C132.265 86.6826 132.685 85.4372 132.685 83.8843C132.685 82.3187 132.266 81.0606 131.426 80.1109C130.587 79.1603 129.477 78.685 128.097 78.685C126.717 78.685 125.604 79.163 124.759 80.12C123.913 81.0769 123.491 82.3314 123.491 83.8843C123.491 85.4372 123.913 86.6826 124.759 87.6205C125.604 88.5594 126.718 89.0274 128.097 89.0274Z" fill="#0650F5"/>
<path d="M145.757 84.9837V70.1875H155.566V85.0581C155.566 86.7851 155.771 87.9743 156.181 88.6274C156.592 89.2796 157.294 89.6061 158.288 89.6061C159.27 89.6061 159.973 89.2705 160.395 88.6002C160.818 87.9289 161.029 86.7488 161.029 85.059V70.1875H170.838V84.9837C170.838 86.9221 170.71 88.5176 170.456 89.773C170.201 91.0284 169.794 92.0779 169.234 92.9224C168.14 94.624 166.648 95.9284 164.758 96.8355C162.868 97.7426 160.712 98.1961 158.287 98.1961C155.85 98.1961 153.687 97.7426 151.798 96.8355C149.908 95.9284 148.416 94.624 147.322 92.9224C146.775 92.0906 146.377 91.0529 146.129 89.8102C145.882 88.5684 145.757 86.9593 145.757 84.9837Z" fill="#0650F5"/>
<path d="M175.167 97.4695V70.1875H187.511C191.092 70.1875 193.827 70.9767 195.717 72.5541C197.607 74.1324 198.552 76.4055 198.552 79.3752C198.552 81.3128 198.076 82.9092 197.125 84.1646C196.174 85.42 194.89 86.152 193.273 86.3633L200.565 97.4695H189.563L184.789 88.4686V97.4695H175.167ZM184.789 77.2137V82.5427H186.319C187.251 82.5427 187.969 82.316 188.473 81.8624C188.976 81.4089 189.228 80.7603 189.228 79.9149C189.228 79.046 188.976 78.3775 188.473 77.9121C187.969 77.4468 187.251 77.2128 186.319 77.2128H184.789V77.2137Z" fill="#0650F5"/>
<path d="M116.516 128.613L115.322 117.804C115.248 116.972 115.172 116.143 115.098 115.316C115.023 114.49 114.961 113.661 114.911 112.828C114.799 113.611 114.64 114.44 114.435 115.316C114.23 116.192 113.979 117.127 113.68 118.121L110.548 128.612H104.711L101.578 118.121C101.267 117.127 101.011 116.192 100.813 115.316C100.615 114.44 100.459 113.611 100.347 112.828C100.285 113.673 100.219 114.505 100.151 115.325C100.083 116.145 100.011 116.972 99.9365 117.803L98.7428 128.612H89.1221L93.784 101.33H103.909L105.849 108.076C105.911 108.287 106.004 108.605 106.129 109.027C106.949 111.871 107.453 114.213 107.639 116.052H107.807C107.957 114.896 108.18 113.666 108.479 112.362C108.778 111.057 109.175 109.592 109.672 107.964L111.705 101.33H121.812L126.138 128.612H116.516V128.613Z" fill="#9565E3"/>
<path d="M124.461 128.613L134.195 101.331H145.123L154.671 128.613H144.116L143.24 125.184H135.837L134.998 128.613H124.461ZM137.477 118.699H141.561L140.722 115.606C140.312 114.04 140.033 112.835 139.883 111.991C139.734 111.145 139.64 110.351 139.603 109.605H139.435C139.397 110.351 139.305 111.145 139.155 111.991C139.006 112.835 138.726 114.041 138.316 115.606L137.477 118.699Z" fill="#9565E3"/>
<path d="M155.417 128.613V101.331H167.762C171.343 101.331 174.078 102.12 175.968 103.697C177.858 105.276 178.803 107.549 178.803 110.519C178.803 112.456 178.327 114.053 177.376 115.308C176.424 116.563 175.141 117.295 173.524 117.507L180.816 128.613H169.814L165.04 119.612V128.613H155.417ZM165.04 108.357V113.686H166.57C167.502 113.686 168.22 113.459 168.724 113.006C169.227 112.552 169.479 111.904 169.479 111.058C169.479 110.189 169.227 109.521 168.724 109.056C168.22 108.59 167.502 108.356 166.57 108.356H165.04V108.357Z" fill="#9565E3"/>
<path d="M181.991 128.613V101.331H191.614V112.959L197.842 101.331H208.956L200.714 114.766L210.112 128.612H198.234L191.614 117.207V128.612H181.991V128.613Z" fill="#9565E3"/>
<path d="M210.412 128.613V101.331H228.668V108.729H220.034V111.356H227.866V118.344H220.034V121.214H228.892V128.612H210.412V128.613Z" fill="#9565E3"/>
<path d="M235.625 128.613V110.257H230.161V101.331H250.897V110.257H245.433V128.613H235.625Z" fill="#9565E3"/>
<path d="M253.304 128.613V101.331H265.034C269.161 101.331 272.179 102.126 274.087 103.717C275.996 105.307 276.95 107.828 276.95 111.282C276.95 114.5 276.092 116.851 274.377 118.336C272.661 119.821 269.939 120.563 266.209 120.563H263.132V128.613H253.304ZM263.169 108.916V113.463H264.699C265.631 113.463 266.345 113.268 266.843 112.876C267.34 112.485 267.589 111.929 267.589 111.208C267.589 110.488 267.334 109.925 266.824 109.522C266.314 109.118 265.606 108.916 264.699 108.916H263.169Z" fill="#9565E3"/>
<path d="M279.58 128.613V101.331H289.407V119.761H298.955V128.612H279.58V128.613Z" fill="#9565E3"/>
<path d="M297.576 128.613L307.31 101.331H318.238L327.786 128.613H317.231L316.355 125.184H308.952L308.113 128.613H297.576ZM310.592 118.699H314.676L313.837 115.606C313.427 114.04 313.147 112.835 312.998 111.991C312.849 111.145 312.755 110.351 312.718 109.605H312.55C312.512 110.351 312.419 111.145 312.27 111.991C312.121 112.835 311.841 114.041 311.431 115.606L310.592 118.699Z" fill="#9565E3"/>
<path d="M347.944 112.158C347.049 111.301 346.135 110.661 345.203 110.238C344.271 109.816 343.289 109.604 342.257 109.604C340.653 109.604 339.363 110.098 338.387 111.086C337.411 112.073 336.923 113.387 336.923 115.027C336.923 116.63 337.389 117.909 338.322 118.866C339.254 119.823 340.504 120.301 342.07 120.301C343.015 120.301 343.975 120.098 344.951 119.695C345.926 119.291 346.993 118.649 348.148 117.766L347.832 128.034C346.762 128.469 345.693 128.795 344.624 129.013C343.555 129.23 342.485 129.339 341.416 129.339C340.086 129.339 338.805 129.189 337.575 128.891C336.344 128.594 335.231 128.171 334.237 127.624C331.825 126.233 330.001 124.475 328.764 122.351C327.526 120.226 326.908 117.785 326.908 115.027C326.908 112.99 327.259 111.101 327.962 109.361C328.664 107.622 329.687 106.088 331.029 104.759C332.384 103.417 333.954 102.401 335.738 101.712C337.522 101.023 339.452 100.677 341.529 100.677C342.635 100.677 343.725 100.792 344.801 101.022C345.876 101.251 346.923 101.597 347.942 102.056V112.158H347.944Z" fill="#9565E3"/>
<path d="M351.507 128.613V101.331H369.763V108.729H361.129V111.356H368.961V118.344H361.129V121.214H369.987V128.612H351.507V128.613Z" fill="#9565E3"/>
<path d="M89.0107 236.512H173.415" stroke="#0650F5" stroke-width="2" stroke-miterlimit="10" stroke-linecap="round" stroke-linejoin="round"/>
<path d="M89.0107 248.82H122.601" stroke="#0650F5" stroke-width="2" stroke-miterlimit="10" stroke-linecap="round" stroke-linejoin="round"/>
<path d="M89.0107 261.128H149.86" stroke="#0650F5" stroke-width="2" stroke-miterlimit="10" stroke-linecap="round" stroke-linejoin="round"/>
<path d="M217.444 236.512H292.246" stroke="#0650F5" stroke-width="2" stroke-miterlimit="10" stroke-linecap="round" stroke-linejoin="round"/>
<path d="M217.444 248.82H310.626" stroke="#0650F5" stroke-width="2" stroke-miterlimit="10" stroke-linecap="round" stroke-linejoin="round"/>
<path d="M217.444 261.128H263.965" stroke="#0650F5" stroke-width="2" stroke-miterlimit="10" stroke-linecap="round" stroke-linejoin="round"/>
<path d="M201.464 160.902H93.5493V223.562H201.464V160.902Z" fill="#F7F8F9"/>
<path d="M328.543 160.902H220.628V223.562H328.543V160.902Z" fill="#F7F8F9"/>
<path d="M455.622 160.902H347.707V223.562H455.622V160.902Z" fill="#F7F8F9"/>
<path d="M344.523 236.512H434.975" stroke="#0650F5" stroke-width="2" stroke-miterlimit="10" stroke-linecap="round" stroke-linejoin="round"/>
<path d="M344.523 248.82H397.125" stroke="#0650F5" stroke-width="2" stroke-miterlimit="10" stroke-linecap="round" stroke-linejoin="round"/>
<path d="M344.523 261.128H412.51" stroke="#0650F5" stroke-width="2" stroke-miterlimit="10" stroke-linecap="round" stroke-linejoin="round"/>
<path d="M196.926 156.367H89.0107V219.026H196.926V156.367Z" stroke="#0650F5" stroke-width="2" stroke-miterlimit="10" stroke-linecap="round" stroke-linejoin="round"/>
<path d="M324.005 156.367H216.089V219.026H324.005V156.367Z" stroke="#0650F5" stroke-width="2" stroke-miterlimit="10" stroke-linecap="round" stroke-linejoin="round"/>
<path d="M451.083 156.367H343.168V219.026H451.083V156.367Z" stroke="#0650F5" stroke-width="2" stroke-miterlimit="10" stroke-linecap="round" stroke-linejoin="round"/>
<path d="M423.667 42.597H450.82" stroke="#FD6125" stroke-width="3" stroke-miterlimit="10" stroke-linecap="round" stroke-linejoin="round"/>
<path d="M344.523 42.597H371.677" stroke="#9565E3" stroke-width="3" stroke-miterlimit="10" stroke-linecap="round" stroke-linejoin="round"/>
<path d="M384.095 42.597H411.249" stroke="#9565E3" stroke-width="3" stroke-miterlimit="10" stroke-linecap="round" stroke-linejoin="round"/>
<path d="M283.552 47.5116H258.941C256.225 47.5116 254.023 45.311 254.023 42.5971C254.023 39.8831 256.225 37.6826 258.941 37.6826H283.552C286.268 37.6826 288.47 39.8831 288.47 42.5971C288.47 45.311 286.268 47.5116 283.552 47.5116Z" fill="#FD6125"/>
</g>
<defs>
<clipPath id="clip0">
<rect width="535" height="313" fill="white"/>
</clipPath>
</defs>
</svg>
