<svg width="740" height="765" viewBox="0 0 740 765" fill="none" xmlns="http://www.w3.org/2000/svg">
<mask id="mask0" mask-type="alpha" maskUnits="userSpaceOnUse" x="0" y="0" width="740" height="765">
<rect width="740" height="765" fill="#C4C4C4"/>
</mask>
<g mask="url(#mask0)">
<path d="M510.676 716.768L566.014 977.622L639.9 970.678L596.141 688.458C596.141 688.46 518.136 714.045 510.676 716.768Z" fill="#FFD9EB"/>
<path d="M154.803 696.374C150.689 694.556 139.546 690.029 131.761 688.459L83.4248 934.097L154.803 959.856C154.803 959.856 222.321 704.599 228.919 704.701C221.452 698.918 167.828 702.135 154.803 696.374Z" fill="#FFD9EB"/>
<path d="M407.456 382.438C424.793 383.406 447.145 385.47 450.13 372.458C451.282 367.441 446.065 363.665 450.083 359.325C455.53 353.443 469.797 353.563 477.552 350.776C490.794 346.017 483.59 336.637 475.737 331.738C471.023 328.796 467.248 325.12 469.656 319.779C475.445 306.94 521.094 296.193 502.294 278.561C495.816 272.486 482.366 273.154 483.003 263.271C483.817 250.622 506.15 246.617 499.923 231.478C495.343 220.342 480.577 220.693 470.905 214.191C450.776 200.66 486.427 192.705 485.459 180.68C484.047 163.109 459.274 168.062 450.957 158.241C443.205 149.088 461.157 136.514 464.688 129.458C467.81 123.219 468.942 110.397 460.514 107.934C450.415 104.983 438.965 115.781 428.827 116.775C419.149 117.724 409.603 115.316 400.48 112.113C392.719 109.387 385.611 104.817 377.93 101.826C366.01 97.1818 351.681 96.2784 339.057 98.6471C327.248 100.862 314.158 112.011 313.783 124.757C295.517 125.47 265.449 118.646 251.776 134.679C246.063 141.377 245.997 151.712 250.103 159.103C253.322 164.898 256.224 170.832 247.89 173.169C240.215 175.321 231.069 173.725 223.23 173.51C214.879 173.282 209.544 176.9 205.224 184.193C201.743 190.068 200.655 197.701 203.955 203.672C206.286 207.889 213.453 214.457 210.087 220.004C207.056 224.997 196.479 224.066 191.834 227.004C184.904 231.386 181.967 238.695 183.472 246.633C186.4 262.079 222.639 270.557 208.814 287.004C203.866 292.89 193.61 302.285 195.482 311.019C197.405 319.993 212.405 325.446 220.091 327.699C228.626 330.204 242.719 330.033 243.169 341.406C243.528 350.507 239.064 356.421 246.782 364.246C256.445 374.042 271.781 366.198 282.947 374.686C288.481 378.894 289.831 386.367 294.948 390.915C298.881 394.41 309.602 407.441 326.575 399.573" fill="#FD6125"/>
<path d="M520.354 1015.93C515.576 997.596 497.958 872.849 497.958 872.849C497.958 872.849 508.22 764.862 515.576 725.291C529.096 652.554 509.552 557.514 510.258 488.67C480.741 478.77 403.8 477.47 401.878 413.503H326.344C324.422 477.47 253.416 478.503 223.898 488.403C224.732 505.046 225.173 526.138 225.326 549.844C226.131 675.157 218.857 873.475 218.857 873.475C202.165 930.703 185.123 989.073 185.123 1015.93" fill="#9565E3"/>
<path d="M222.244 488.67C203.541 491.938 188.008 502.866 178.414 517.72L174.778 523.762C147.162 584.848 113.743 693.779 113.743 693.779L220.426 730.168C220.426 730.168 255.496 611.52 265.237 564.839" fill="#9565E3"/>
<path d="M510.257 488.67C528.96 491.938 544.493 502.866 554.087 517.72L557.723 523.762C585.338 584.848 622.027 693.779 622.027 693.779L515.344 730.168C515.344 730.168 480.274 611.52 470.533 564.839" fill="#9565E3"/>
<path d="M294.002 234.284V330.417C294.002 368.411 324.853 399.21 362.91 399.21C400.967 399.21 431.817 368.411 431.817 330.417V229.787" fill="#FFD9EB"/>
<path d="M293.484 319.021C283.957 319.021 276.234 311.311 276.234 301.8C276.234 292.289 283.957 284.579 293.484 284.579H298.947" fill="#FFD9EB"/>
<path d="M293.484 321.047C282.854 321.047 274.205 312.413 274.205 301.8C274.205 291.186 282.853 282.553 293.484 282.553H298.946C300.067 282.553 300.975 283.459 300.975 284.579C300.975 285.698 300.067 286.605 298.946 286.605H293.484C285.092 286.605 278.264 293.422 278.264 301.8C278.264 310.178 285.092 316.995 293.484 316.995C294.605 316.995 295.514 317.901 295.514 319.021C295.514 320.14 294.604 321.047 293.484 321.047Z" fill="#434343"/>
<path d="M397.373 293.868C399.324 293.868 400.906 292.289 400.906 290.341C400.906 288.393 399.324 286.814 397.373 286.814C395.422 286.814 393.84 288.393 393.84 290.341C393.84 292.289 395.422 293.868 397.373 293.868Z" fill="#434343"/>
<path d="M371.385 337.313C369.1 337.313 366.272 336.263 364.497 335.49C363.471 335.042 363.003 333.849 363.45 332.824C363.899 331.798 365.095 331.328 366.121 331.776C367.901 332.551 369.969 333.158 371.078 333.267C370.898 328.159 368.736 303.255 367.219 286.588C367.117 285.473 367.94 284.487 369.056 284.386C370.167 284.284 371.159 285.106 371.26 286.22C371.951 293.798 375.38 331.737 375.125 334.449C375.031 335.458 374.505 336.292 373.643 336.799C373.024 337.166 372.242 337.313 371.385 337.313Z" fill="#434343"/>
<path d="M406.636 274.316C405.922 274.316 405.231 273.94 404.86 273.275C401.655 267.523 393.9 265.753 389.469 265.967C388.323 266.025 387.399 265.158 387.344 264.041C387.29 262.922 388.154 261.974 389.273 261.919C395.797 261.605 404.562 264.409 408.406 271.305C408.95 272.282 408.598 273.516 407.619 274.06C407.308 274.234 406.969 274.316 406.636 274.316Z" fill="#434343"/>
<path d="M328.083 283.132C327.82 283.132 327.551 283.08 327.292 282.971C326.261 282.535 325.778 281.345 326.216 280.315C327.447 277.414 330.661 274.746 334.603 273.355C339.131 271.758 343.956 272.03 347.848 274.101C348.837 274.627 349.211 275.855 348.683 276.842C348.156 277.829 346.926 278.204 345.937 277.676C343.048 276.138 339.412 275.955 335.957 277.174C333.099 278.184 330.742 280.037 329.953 281.897C329.625 282.668 328.873 283.132 328.083 283.132Z" fill="#434343"/>
<path d="M363.763 367.641C357.325 367.641 351.328 364.684 345.941 358.854C344.65 357.458 344.323 355.509 345.086 353.77C345.841 352.05 347.475 350.982 349.352 350.982L378.876 351.185C380.796 351.198 382.424 352.282 383.122 354.013C383.865 355.857 383.386 357.984 381.899 359.43C376.456 364.725 370.014 367.641 363.763 367.641ZM349.357 355.033C349.029 355.033 348.875 355.23 348.803 355.395C348.738 355.543 348.668 355.832 348.923 356.108C353.512 361.073 358.504 363.59 363.763 363.59C368.951 363.59 374.386 361.082 379.067 356.529C379.435 356.17 379.453 355.765 379.358 355.525C379.301 355.384 379.195 355.239 378.848 355.236L349.357 355.033Z" fill="#434343"/>
<path d="M325.933 389.195V439.26C325.933 460.309 343.025 477.374 364.11 477.374C385.195 477.374 402.287 460.309 402.287 439.26V387.277" fill="#FFD9EB"/>
<path d="M364.109 504.672C336.352 504.672 312.045 486.947 303.624 460.565C303.284 459.499 303.872 458.361 304.941 458.021C306.008 457.68 307.15 458.27 307.489 459.336C315.372 484.031 338.125 500.622 364.109 500.622C390.472 500.622 413.322 483.719 420.972 458.562C421.297 457.492 422.431 456.884 423.501 457.212C424.574 457.537 425.179 458.668 424.853 459.738C416.682 486.614 392.27 504.672 364.109 504.672Z" fill="#FFFBDC"/>
<path d="M448.902 227.494C447.384 225.91 441.205 226.858 438.674 227.524C433.815 228.802 429.804 232.137 425.624 234.739C417.87 239.565 408.319 241.319 399.325 242.554C392.067 243.55 385.014 242.812 378.295 246.142C374.737 247.906 371.138 249.71 368.211 252.418C365.752 254.694 364.109 257.686 361.715 259.938C355.756 265.543 345.448 267.637 337.562 268.153C330.878 268.589 323.769 267.016 317.689 270.438C310.833 274.297 308.82 279.344 306.743 286.43C304.986 292.425 300.362 296.726 293.805 296.597C293.805 296.597 298.638 276.498 279.36 279.537C279.36 279.537 215.35 244.661 279.109 217.678C342.867 190.694 389.994 189.31 396.232 190.694C402.469 192.078 441.972 210.067 441.972 210.067L448.902 227.494Z" fill="#FD6125"/>
<path d="M294.084 298.627C293.978 298.627 293.872 298.626 293.765 298.624C293.15 298.612 292.575 298.322 292.199 297.836C291.823 297.351 291.688 296.721 291.831 296.125C291.851 296.045 293.747 287.811 289.917 283.686C287.895 281.509 284.45 280.785 279.675 281.539C278.569 281.712 277.53 280.959 277.354 279.853C277.179 278.748 277.935 277.711 279.043 277.536C285.245 276.56 289.907 277.705 292.904 280.944C296.574 284.909 296.586 290.918 296.214 294.376C300.295 293.596 303.421 290.546 304.795 285.859C306.882 278.742 309.082 272.956 316.693 268.672C321.511 265.959 326.731 266.068 331.781 266.17C333.743 266.21 335.597 266.248 337.43 266.129C342.193 265.817 353.96 264.448 360.323 258.461C361.384 257.464 362.305 256.274 363.281 255.014C364.352 253.631 365.458 252.202 366.832 250.931C370.022 247.979 373.938 246.038 377.392 244.325C382.484 241.802 387.728 241.45 392.799 241.11C394.849 240.973 396.968 240.831 399.048 240.545C407.371 239.402 416.893 237.784 424.55 233.018C425.549 232.396 426.538 231.731 427.531 231.064C430.785 228.877 434.15 226.617 438.157 225.563C438.537 225.463 447.538 223.139 450.368 226.091C451.143 226.9 451.114 228.182 450.305 228.956C449.509 229.717 448.254 229.702 447.477 228.934C446.554 228.381 442.325 228.656 439.192 229.48C435.848 230.36 432.909 232.335 429.798 234.425C428.765 235.119 427.736 235.81 426.698 236.455C418.759 241.398 408.983 243.27 399.601 244.558C397.383 244.863 395.191 245.01 393.072 245.152C388.183 245.48 383.566 245.789 379.199 247.954C375.833 249.622 372.352 251.349 369.592 253.903C368.465 254.946 367.507 256.184 366.493 257.492C365.465 258.821 364.4 260.196 363.108 261.411C356.049 268.051 344.157 269.75 337.697 270.172C335.692 270.303 333.663 270.262 331.699 270.221C326.988 270.122 322.539 270.032 318.689 272.201C312.384 275.75 310.638 280.364 308.694 286.997C306.58 294.198 301.001 298.627 294.084 298.627Z" fill="#434343"/>
<path d="M313.406 380.296C312.875 380.296 312.346 380.09 311.949 379.68C299.068 366.401 291.974 348.906 291.974 330.416C291.974 329.297 292.882 328.39 294.003 328.39C295.124 328.39 296.032 329.297 296.032 330.416C296.032 347.848 302.721 364.343 314.864 376.861C315.644 377.664 315.624 378.947 314.819 379.726C314.424 380.107 313.914 380.296 313.406 380.296Z" fill="#434343"/>
<path d="M220.427 732.195C220.171 732.195 219.914 732.146 219.671 732.049L197.818 723.28C196.777 722.862 196.274 721.682 196.691 720.645C197.111 719.606 198.293 719.104 199.331 719.52L219.11 727.457C222.08 717.358 234.993 673.246 246.388 631.394C246.682 630.315 247.797 629.678 248.878 629.971C249.96 630.264 250.599 631.378 250.304 632.458C237.388 679.9 222.521 730.239 222.373 730.742C222.211 731.289 221.825 731.744 221.311 731.992C221.033 732.127 220.731 732.195 220.427 732.195Z" fill="#434343"/>
<path d="M515.341 732.192C514.438 732.192 513.615 731.589 513.379 730.676C513.152 729.798 507.872 708.247 513.552 628.869C513.631 627.753 514.595 626.898 515.72 626.994C516.838 627.073 517.679 628.043 517.6 629.16C511.993 707.529 517.256 729.454 517.31 729.667C517.584 730.751 516.93 731.853 515.847 732.13C515.677 732.172 515.507 732.192 515.341 732.192Z" fill="#434343"/>
<path d="M325.933 389.195V434.334L350.354 398.611C350.354 398.611 334.238 397.642 325.933 389.195Z" fill="#FFD9EB"/>
<path d="M362.912 401.236C343.533 401.236 325.435 393.581 311.95 379.681C311.17 378.877 311.19 377.595 311.995 376.816C312.8 376.037 314.085 376.057 314.865 376.861C327.578 389.966 344.642 397.184 362.912 397.184C364.033 397.184 364.941 398.091 364.941 399.21C364.941 400.33 364.032 401.236 362.912 401.236Z" fill="#434343"/>
<path d="M348.268 292.535C348.101 292.535 347.932 292.514 347.764 292.471C341.422 290.857 332.286 292.485 332.195 292.501C331.093 292.7 330.036 291.973 329.834 290.873C329.633 289.773 330.362 288.718 331.465 288.516C331.873 288.441 341.556 286.707 348.768 288.546C349.854 288.822 350.51 289.925 350.232 291.009C349.998 291.926 349.172 292.535 348.268 292.535Z" fill="#434343"/>
</g>
</svg>
